<ttFont>
<head>
    <!-- Most of this table will be recalculated by the compiler -->
    <tableVersion value="1.0"/>
    <fontRevision value="2.004"/>
    <checkSumAdjustment value="0x90625993"/>
    <magicNumber value="0x5f0f3cf5"/>
    <flags value="00000000 00000011"/>
    <unitsPerEm value="1000"/>
    <created value="Thu Oct  8 09:57:14 2009"/>
    <modified value="Thu Oct  8 09:57:14 2009"/>
    <xMin value="-528"/>
    <yMin value="-292"/>
    <xMax value="1571"/>
    <yMax value="1123"/>
    <macStyle value="00000000 00000010"/>
    <lowestRecPPEM value="3"/>
    <fontDirectionHint value="2"/>
    <indexToLocFormat value="0"/>
    <glyphDataFormat value="0"/>
  </head>
          <CharString index="0">
            787 249 rmoveto
            14 -13 0 -8 -6 -5 0 -3 -4 vhcurveto
            -3 -2 -9 -19 -5 -12 rrcurveto
            -133 -60 -45 -58 -157 hhcurveto
            -161 hlineto
            -9 -10 0 2 -9 hvcurveto
            10 0 2 4 15 vhcurveto
            65 callgsubr
            106 hlineto
            77 6 -16 -28 -5 0 -13 -7 -29 hvcurveto
            -3 -9 110 callgsubr
            -14 15 0 6 17 2 4 16 4 vhcurveto
            56 223 rlineto
            1 3 1 7 3 vvcurveto
            14 -14 0 -7 -17 -1 -3 -21 -5 vhcurveto
            -74 -20 -23 -19 -86 hhcurveto
            -99 hlineto
            59 237 rlineto
            35 9 6 0 33 hhcurveto
            153 hlineto
            118 33 -27 -83 -19 -5 -48 0 hvcurveto
            -17 11 0 10 19 1 7 17 2 vhcurveto
            19 180 rlineto
            26 3 -8 0 -22 hhcurveto
            -519 -87 callsubr
            76 callgsubr
            -36 -9 -5 -8 -65 hhcurveto
            -21 -11 0 -22 -14 12 0 16 hvcurveto
            return
          </CharString>
          <CharString index="1">
            797 99 callsubr
            -16 -51 -1 8 25 -3 vhcurveto
            -77 617 rlineto
            22 -3 0 5 -23 hhcurveto
            -21 -4 -5 -16 -10 hvcurveto
            -359 -574 -40 -64 -34 -14 -43 -4 rlinecurve
            -11 -1 -12 -1 -20 vvcurveto
            -5 5 -9 10 vhcurveto
            25 31 4 26 32 36 -4 31 hhcurveto
            6 14 0 22 13 -12 1 -4 hvcurveto
            -19 1 -20 6 22 vvcurveto
            15 8 14 34 53 vhcurveto
            28 42 0 2 24 40 rrcurveto
            275 hlineto
            21 -170 rlineto
            -18 -7 -22 -7 -31 hhcurveto
            -16 -12 -4 callsubr
            37 43 4 38 33 39 -4 32 12 callsubr
            hvcurveto
            -196 245 rmoveto
            -247 hlineto
            206 330 rlineto
            return
          </CharString>
          <CharString index="2">
            941 669 rmoveto
            9 -6 5 -9 vhcurveto
            -30 -36 -4 -32 21 callgsubr
            -13 14 -1 5 hvcurveto
            52 -2 8 -17 -21 vvcurveto
            -4 0 -6 -4 -16 vhcurveto
            -88 -352 rlineto
            -118 -29 -110 -95 -111 hhcurveto
            -54 -74 28 104 26 5 29 4 15 hvcurveto
            97 389 rlineto
            33 8 6 7 65 hhcurveto
            20 11 0 22 42 callsubr
            hvcurveto
            -38 -42 -4 -39 -40 -43 4 -39 hhcurveto
            -5 -16 -49 callgsubr
            17 34 22 -9 callgsubr
            -95 -379 rlineto
            -7 -27 0 -19 -9 vvcurveto
            -118 91 -76 114 149 119 132 105 26 vhcurveto
            88 355 14 58 31 15 56 2 rlinecurve
            11 1 7 6 15 vvcurveto
            return
          </CharString>
          <CharString index="3">
            -95 callgsubr
            70 282 rlineto
            2 9 1 3 0 93 callgsubr
            -10 -29 -14 -3 vhcurveto
            -65 -262 rlineto
            -29 -7 -47 -79 -70 hhcurveto
            -46 -20 34 47 57 32 83 27 69 hvcurveto
            7 19 4 11 19 vvcurveto
            50 -40 34 -49 -99 -46 -136 -17 -13 13 0 8 12 6 0 13 3 vhcurveto
            109 31 45 16 24 hhcurveto
            17 8 -11 -22 -23 -7 -16 -18 -48 hvcurveto
            return
          </CharString>
          <CharString index="4">
            rmoveto
            8 -7 6 -7 -10 -3 -9 -4 -1 vhcurveto
            -100 -34 -94 -21 -38 hhcurveto
            -60 -43 37 53 hvcurveto
            12 4 14 3 vvcurveto
            10 -8 5 -6 -19 0 -44 -6 -68 47 -59 82 122 75 125 38 vhcurveto
            return
          </CharString>
          <CharString index="5">
            -66 callgsubr
            -65 -28 55 63 31 6 31 7 30 hvcurveto
            62 hlineto
            43 197 0 125 54 -51 34 -70 -112 -159 -90 -176 -105 62 -80 108 159 77 94 13 hvcurveto
            -62 257 rmoveto
            -98 -160 0 -39 vhcurveto
            -47 hlineto
            155 45 116 2 12 hhcurveto
            42 31 -23 -36 hvcurveto
            return
          </CharString>
          <CharString index="6">
            rmoveto
            -65 callgsubr
            -3 -18 -5 vhcurveto
            -48 -13 -33 -69 -51 hhcurveto
            -24 0 24 10 24 17 43 13 32 hvcurveto
            66 173 rlineto
            6 17 0 3 13 vvcurveto
            45 -35 39 -55 -98 -46 -135 -18 -13 13 0 8 12 6 0 13 3 vhcurveto
            116 33 48 9 18 hhcurveto
            12 13 -3 -31 -22 -8 -20 -8 -21 hvcurveto
            -27 -69 -35 -93 rlineto
            -10 -26 -14 -36 -18 vvcurveto
            -46 36 -38 53 100 45 137 16 vhcurveto
            return
          </CharString>
          <CharString index="7">
            969 724 rmoveto
            2 7 1 8 7 vvcurveto
            28 -16 24 -29 -41 -29 -35 -34 -26 17 -20 31 vhcurveto
            4 hlineto
            -18 -21 -25 -15 -26 -6 6 25 rcurveline
            3 vlineto
            7 -4 5 -6 2 vhcurveto
            hintmask 01000000
            -1 -2 -4 -1 0 vvcurveto
            hintmask 10100000
            -33 -33 1 2 -32 hvcurveto
            -4 hlineto
            -6 -5 -4 -6 -2 hvcurveto
            -2 -8 rlineto
            -4 vlineto
            -6 4 -6 6 -1 vhcurveto
            3 -1 rlineto
            1 hlineto
            27 18 -4 -10 11 hvcurveto
            6 -6 2 -8 -11 vvcurveto
            -6 0 -6 -2 -7 vhcurveto
            -90 -358 -14 -57 -34 -56 -49 -40 rlinecurve
            -40 -47 -58 -22 -54 hhcurveto
            -49 -41 21 37 -21 hvcurveto
            -12 21 -6 24 29 vvcurveto
            23 4 26 7 27 vhcurveto
            96 387 5 16 5 10 8 4 rlinecurve
            5 13 24 1 38 hhcurveto
            7 6 5 6 1 hvcurveto
            2 8 rlineto
            3 vlineto
            7 -4 5 -6 2 vhcurveto
            -2 hlineto
            hintmask 01000000
            -122 -3 rlineto
            hintmask 10100000
            -123 3 rlineto
            -4 hlineto
            -6 -6 -4 -6 -1 hvcurveto
            -2 -8 -1 -4 rlineto
            -6 5 -6 6 -1 vhcurveto
            3 -1 rlineto
            1 hlineto
            38 23 -1 -5 9 hvcurveto
            0 2 -2 -5 vvcurveto
            -4 -1 -6 -2 -7 vhcurveto
            -97 -386 rlineto
            -4 -19 -3 -19 -19 vvcurveto
            -45 14 -42 27 -33 vhcurveto
            -48 38 60 -26 69 hhcurveto
            63 65 27 45 55 hvcurveto
            55 46 39 62 16 64 95 379 rcurveline
            64 8 60 50 15 63 rrcurveto
            return
          </CharString>
          <CharString index="8">
            979 669 rmoveto
            5 -5 9 -10 vhcurveto
            -23 -30 -4 -25 21 callgsubr
            -9 8 -4 8 -1 hvcurveto
            11 -1 16 -2 -13 vvcurveto
            -7 -5 -12 -11 -13 vhcurveto
            -4 -3 0 -2 -3 -3 -4 -5 0 -2 -4 -4 -241 -257 rcurveline
            -125 291 rlineto
            -6 12 0 3 0 vvcurveto
            18 41 0 9 119 callgsubr
            4 -3 10 -13 vhcurveto
            -38 -44 -4 -39 -34 -38 4 -32 hhcurveto
            -5 -15 0 -21 -15 11 0 16 47 10 -8 -19 8 hvcurveto
            149 -346 -43 -172 -16 -64 -1 -1 -71 -1 rlinecurve
            120 callgsubr
            21 callsubr
            hvcurveto
            57 callgsubr
            39 43 -4 38 hhcurveto
            6 15 -31 callsubr
            -18 -30 -26 0 15 7 13 50 7 28 hvcurveto
            30 124 3 11 1 4 8 8 rlinecurve
            263 281 39 42 49 36 57 5 rlinecurve
            10 1 12 1 20 vvcurveto
            return
          </CharString>
          <CharString index="9">
            878 469 rmoveto
            26 179 rlineto
            1 9 40 callgsubr
            71 callsubr
            vhcurveto
            -587 hlineto
            -22 -3 0 -18 -6 hvcurveto
            -65 -183 rlineto
            -2 -4 -2 -6 -5 vvcurveto
            -14 15 0 6 16 1 1 26 9 vhcurveto
            114 42 24 53 127 hhcurveto
            74 hlineto
            9 10 0 -2 9 hvcurveto
            -9 -1 -8 -3 -13 vhcurveto
            76 callgsubr
            -38 -9 -6 -10 -91 hhcurveto
            -16 -34 callgsubr
            -11 9 -3 8 hvcurveto
            51 54 4 52 52 56 -4 52 hhcurveto
            8 14 46 callsubr
            -15 hlineto
            -16 -31 2 -3 hhcurveto
            -31 3 0 4 12 vvcurveto
            4 0 2 4 15 vhcurveto
            132 529 7 30 7 1 14 1 rlinecurve
            1 6 31 0 19 hhcurveto
            108 39 -5 -78 -10 -2 -28 -5 -39 hvcurveto
            -3 -16 110 callgsubr
            -15 14 0 7 14 6 1 22 3 vhcurveto
            return
          </CharString>
          <CharString index="10">
            rmoveto
            28 -21 19 -27 -38 -32 -35 -33 -25 19 -22 29 36 34 33 35 vhcurveto
            return
          </CharString>
          <CharString index="11">
            649 140 rmoveto
            3 vlineto
            6 -4 5 -5 1 vhcurveto
            -3 hlineto
            -18 hlineto
            -5 -5 -4 -5 -1 hvcurveto
            -86 -22 -17 -42 -34 hhcurveto
            -21 -10 16 30 13 2 14 3 14 hvcurveto
            63 248 62 13 57 46 15 59 rlinecurve
            2 7 1 8 7 vvcurveto
            29 -16 23 -30 1 vhcurveto
            -40 -1 -29 -35 -34 vvcurveto
            -26 17 -20 31 vhcurveto
            2 hlineto
            -17 -17 -22 -13 -24 -7 rrcurveto
            1 2 0 3 3 vvcurveto
            19 -14 10 -17 -19 -18 -12 -21 -6 vhcurveto
            -71 -286 rlineto
            -58 -31 -40 -35 -50 hhcurveto
            -27 -21 14 22 -8 hvcurveto
            -5 13 -3 15 16 vvcurveto
            21 4 24 7 27 vhcurveto
            9 37 16 43 27 69 rrcurveto
            4 12 3 13 12 vvcurveto
            49 -38 35 -52 -67 -56 -70 -80 -20 vhcurveto
            -1 -3 rlineto
            -5 4 -5 5 -2 vhcurveto
            3 hlineto
            18 hlineto
            5 5 4 5 2 hvcurveto
            73 18 37 56 46 hhcurveto
            16 7 -11 -22 -15 -4 -19 -7 -19 hvcurveto
            -27 -69 -16 -44 -10 -38 rrcurveto
            -5 -22 -3 -21 -20 vvcurveto
            -27 6 -25 13 -21 vhcurveto
            -34 23 43 -16 48 hhcurveto
            48 41 24 39 34 hvcurveto
            -38 13 37 -25 46 hhcurveto
            61 32 65 85 22 hvcurveto
            return
          </CharString>
          <CharString index="12">
            -97 callsubr
            endchar
          </CharString>
          <CharString index="13">
            560 372 rmoveto
            51 -62 18 -59 -27 -54 -2 -66 -57 vhcurveto
            55 -16 -52 13 -28 -94 callgsubr
            22 13 16 8 4 vhcurveto
            3 7 9 36 5 21 27 108 rcurveline
            5 22 6 21 5 22 6 24 11 43 44 50 rrcurveto
            23 20 29 22 44 hhcurveto
            11 34 -1 -16 23 hvcurveto
            -21 -10 -9 -18 -17 vvcurveto
            -28 22 -6 13 19 31 14 41 vhcurveto
            return
          </CharString>
          <CharString index="14">
            21 -17 12 -15 -14 -11 -9 -4 -4 vhcurveto
            -165 -143 rlineto
            -10 -9 -2 -1 -6 vvcurveto
            -6 9 -18 12 3 3 0 7 10 vhcurveto
            175 119 rlineto
            14 9 12 9 19 vvcurveto
            endchar
          </CharString>
          <CharString index="15">
            579 269 rmoveto
            97 -68 75 -103 -143 -135 -139 -140 -102 72 -70 99 143 135 140 139 vhcurveto
            -79 34 rmoveto
            -34 -15 -96 -43 -68 vhcurveto
            -48 -31 -56 -39 -53 hhcurveto
            -28 -65 14 96 44 20 105 48 62 hvcurveto
            47 35 51 27 44 hhcurveto
            35 58 -21 -89 hvcurveto
            return
          </CharString>
          <CharString index="16">
            rmoveto
            25 1 -19 17 -25 hhcurveto
            -34 -29 -32 -29 1 hvcurveto
            -23 -1 17 -20 27 hhcurveto
            32 30 30 32 hvcurveto
            226 hmoveto
            25 1 -19 17 -25 hhcurveto
            -34 -29 -32 -29 1 hvcurveto
            -23 -1 17 -20 27 hhcurveto
            32 30 30 32 hvcurveto
            return
          </CharString>
          <CharString index="17">
            882 338 rmoveto
            8 31 4 31 30 vvcurveto
            62 -17 57 -33 47 vhcurveto
            -5 8 -6 7 -7 7 47 14 40 44 13 51 rrcurveto
            1 7 1 6 7 vvcurveto
            28 -17 23 -29 -40 -30 -35 -34 -26 18 -20 30 vhcurveto
            3 hlineto
            -21 -19 -25 -14 -25 hhcurveto
            35 -46 -59 20 -66 hhcurveto
            -94 -99 -39 -68 -82 hvcurveto
            -84 -69 -60 -93 -24 -96 rrcurveto
            -7 -30 -4 -30 -28 vvcurveto
            -62 17 -57 34 -46 vhcurveto
            -67 49 79 -38 94 hhcurveto
            93 99 38 67 82 hvcurveto
            83 67 60 91 23 95 rrcurveto
            -92 17 rmoveto
            -22 -87 -39 -87 -69 -70 rrcurveto
            -59 -59 -77 -39 -74 hhcurveto
            -73 -58 39 59 -30 hvcurveto
            -17 36 -7 40 43 vvcurveto
            40 6 43 11 42 vhcurveto
            20 81 38 81 67 63 rrcurveto
            57 59 76 35 73 hhcurveto
            72 59 -35 -57 31 hvcurveto
            19 -34 8 -40 -42 vvcurveto
            -35 -5 -37 -9 -37 vhcurveto
            return
          </CharString>
          <CharString index="18">
            rmoveto
            2 5 0 4 -1 7 -27 136 rcurveline
            13 -3 -8 9 -15 hhcurveto
            -19 -21 -13 -18 -9 hvcurveto
            -7 -15 2 -5 7 -16 18 -39 rcurveline
            11 -29 18 -39 9 -17 rrcurveto
            -1 2 4 -2 3 hhcurveto
            6 22 9 11 6 hvcurveto
            -176 hmoveto
            2 5 0 4 -1 7 -27 136 rcurveline
            13 -3 -8 9 -15 hhcurveto
            -19 -21 -13 -18 -9 hvcurveto
            -7 -15 2 -5 7 -16 18 -39 rcurveline
            11 -29 18 -39 9 -17 rrcurveto
            -1 2 4 -2 3 hhcurveto
            6 22 9 11 6 hvcurveto
            endchar
          </CharString>
          <CharString index="19">
            -65 callgsubr
            -2 -25 -6 vhcurveto
            -52 -14 -17 -59 -37 hhcurveto
            -28 -4 30 17 17 return
          </CharString>
          <CharString index="20">
            hlineto
            -18 -13 -49 callgsubr
            17 34 22 -9 callgsubr
            return
          </CharString>
          <CharString index="21">
            -48 callgsubr
            75 299 rlineto
            38 callgsubr
            -142 -567 rlineto
            -4 -14 0 -2 -5 vvcurveto
            -19 14 -11 18 33 8 31 9 2 vhcurveto
            22 90 34 134 3 10 26 64 48 45 rlinecurve
            24 27 37 16 38 hhcurveto
            44 12 -35 -33 -59 -47 -122 -17 -45 -46 callgsubr
            return
          </CharString>
          <CharString index="22">
            rmoveto
            25 -19 17 -25 -34 -29 -32 -29 1 vhcurveto
            -23 -1 17 -20 27 hhcurveto
            32 31 30 32 hvcurveto
            191 hmoveto
            25 -19 17 -25 -34 -29 -32 -29 1 vhcurveto
            -23 -1 17 -20 27 hhcurveto
            32 31 30 32 hvcurveto
            return
          </CharString>
          <CharString index="23">
            793 364 rmoveto
            75 -40 3 -7 -26 -26 -26 -25 -14 8 -7 5 -6 vhcurveto
            20 -20 9 -26 -29 vvcurveto
            -38 -29 -95 -18 -42 vhcurveto
            -64 -28 -36 -32 -46 hhcurveto
            -30 -47 12 74 26 5 21 12 49 hvcurveto
            29 112 0 2 2 9 rrcurveto
            7 26 12 48 4 93 callgsubr
            -9 -29 -14 -4 vhcurveto
            -53 -215 rlineto
            -6 -26 -1 -15 -11 vvcurveto
            -1 -22 -19 -32 -13 -16 rrcurveto
            -33 -25 -26 0 -10 hhcurveto
            -60 -24 38 52 50 23 64 35 90 hvcurveto
            6 15 4 11 19 vvcurveto
            50 -40 34 -49 -99 -46 -136 -17 -13 13 0 8 12 6 0 13 3 vhcurveto
            109 31 45 16 24 hhcurveto
            17 8 -11 -22 -23 -7 -16 -18 -48 hvcurveto
            -35 -92 -12 -45 -35 vvcurveto
            -104 84 -27 69 20 48 1 63 41 vhcurveto
            -58 32 67 -6 32 hhcurveto
            74 46 55 67 32 hvcurveto
            31 66 34 130 56 vvcurveto
            return
          </CharString>
          <CharString index="24">
            rlineto
            -33 -8 -5 -8 -67 hhcurveto
            -18 -12 -75 callsubr
            return
          </CharString>
          <CharString index="25">
            415 144 81 callgsubr
            -16 -1 -2 -14 -6 vhcurveto
            -106 -47 -52 -16 -27 hhcurveto
            -34 0 37 10 58 callsubr
            72 289 rlineto
            99 hlineto
            18 12 46 callsubr
            -92 hlineto
            36 144 rlineto
            4 14 0 2 4 vvcurveto
            18 -14 12 -18 -34 -8 -33 -9 -2 vhcurveto
            -38 -152 rlineto
            -99 -34 callgsubr
            -14 12 0 16 hvcurveto
            92 10 callgsubr
            return
          </CharString>
          <CharString index="26">
            3 5 0 4 -2 7 -27 136 rcurveline
            13 -2 -9 9 -15 hhcurveto
            -19 -20 -13 -18 -9 hvcurveto
            -8 -15 3 -5 7 -16 3 -9 11 -21 3 -9 12 -29 17 -39 10 -17 rrcurveto
            0 5 -3 3 6 23 9 11 5 vhcurveto
            return
          </CharString>
          <CharString index="27">
            rmoveto
            2 6 -2 1 -7 7 -132 112 rcurveline
            3 -2 -7 6 -11 hhcurveto
            -22 -22 -17 -22 -7 hvcurveto
            -7 -19 10 -6 13 -7 149 -87 rcurveline
            -5 9 3 1 3 hhcurveto
            12 2 16 20 2 5 rrcurveto
            endchar
          </CharString>
          <CharString index="28">
            694 259 rmoveto
            71 callgsubr
            -16 -1 -1 -27 -9 vhcurveto
            -136 -45 -52 -69 -165 hhcurveto
            -176 hlineto
            568 605 rlineto
            7 7 6 7 13 vvcurveto
            11 -9 0 -16 vhcurveto
            -447 hlineto
            -24 -1 -1 -19 -6 hvcurveto
            -56 -178 rlineto
            -2 -5 -2 -7 -6 28 callgsubr
            8 17 1 3 16 5 vhcurveto
            111 39 53 64 153 hhcurveto
            167 hlineto
            -568 -604 rlineto
            -6 -7 -10 -10 -15 vvcurveto
            -11 9 0 16 vhcurveto
            462 hlineto
            22 3 0 18 6 hvcurveto
            73 228 rlineto
            4 10 0 3 0 vvcurveto
            return
          </CharString>
          <CharString index="29">
            rmoveto
            -8 -5 -29 -15 -18 vhcurveto
            -18 -17 -31 0 -9 hhcurveto
            -18 -31 2 30 10 5 29 15 16 hvcurveto
            19 16 31 0 9 hhcurveto
            37 13 -11 -22 hvcurveto
            48 -3 rmoveto
            39 -34 32 -56 -69 -63 -52 -53 -42 36 -29 53 71 62 53 52 vhcurveto
            return
          </CharString>
          <CharString index="30">
            454 156 rmoveto
            30 -13 28 -24 21 vhcurveto
            -29 24 -25 5 -54 10 rrcurveto
            -30 6 -44 8 41 vvcurveto
            18 17 66 95 23 43 -5 -36 16 vhcurveto
            -5 -2 -26 -14 -26 vvcurveto
            -13 7 -17 25 12 32 6 48 64 -68 23 -58 -143 -33 -108 -39 -81 79 -15 37 -7 vhcurveto
            47 -9 56 -10 -51 vvcurveto
            -27 -25 -76 -120 -31 -58 6 43 -21 vhcurveto
            35 9 6 29 11 vvcurveto
            19 -14 14 -21 -27 -25 -20 -42 return
          </CharString>
          <CharString index="31">
            rmoveto
            -94 144 -3 4 -7 0 -5 -4 rlinecurve
            -166 -144 -10 -10 9 -14 12 8 rlinecurve
            149 99 97 -99 8 -8 18 14 -8 10 rlinecurve
            return
          </CharString>
          <CharString index="32">
            -18 callsubr
            42 4 39 39 44 -4 38 hhcurveto
            7 14 -27 callsubr
            -27 -30 0 14 return
          </CharString>
          <CharString index="33">
            rmoveto
            12 7 -5 16 -13 -5 -140 -55 rcurveline
            -112 55 -10 5 -13 -16 8 -7 rlinecurve
            106 -98 3 -2 5 0 4 2 rlinecurve
            endchar
          </CharString>
          <CharString index="34">
            621 16 callsubr
            140 559 -73 callgsubr
            -3 0 -2 -4 -14 vhcurveto
            -56 -227 rlineto
            35 -23 -34 21 -42 hhcurveto
            -122 -127 -141 -146 -107 68 -57 74 64 53 47 21 20 hvcurveto
            -48 13 47 -20 36 hhcurveto
            31 26 15 36 22 hvcurveto
            24 39 14 60 3 vvcurveto
            -165 159 rmoveto
            -42 -166 -8 -31 -22 -24 -23 -22 rlinecurve
            -36 -41 -31 -5 -15 hhcurveto
            -46 -23 43 52 42 25 110 28 54 hvcurveto
            59 32 48 35 40 hhcurveto
            68 13 -87 -10 -3 -1 -4 -17 callsubr
            return
          </CharString>
          <CharString index="35">
            3 6 -1 1 -6 9 -93 143 rcurveline
            4 -2 -7 9 -14 hhcurveto
            -15 -23 -12 -21 -10 hvcurveto
            -10 -19 8 -9 9 -9 116 -119 rcurveline
            -7 6 3 0 3 hhcurveto
            12 18 18 6 3 hvcurveto
            endchar
          </CharString>
          <CharString index="36">
            7 callsubr
            hintmask 00110001
            -79 callgsubr
            hintmask 11100010
            -64 callgsubr
            hintmask 00001100
            return
          </CharString>
          <CharString index="37">
            -60 callgsubr
            hintmask 00110000
            return
          </CharString>
          <CharString index="38">
            852 -20 79 callsubr
            hintmask 00101110
            -84 callgsubr
            hintmask 01010100
            -70 callgsubr
            hintmask 10011010
            -61 callgsubr
            return
          </CharString>
          <CharString index="39">
            -67 callsubr
            hintmask 00110000
            return
          </CharString>
          <CharString index="40">
            34 callsubr
            hintmask 11001100
            386 143 -101 callsubr
            return
          </CharString>
          <CharString index="41">
            rmoveto
            12 -12 0 -9 -14 -1 -1 -14 -12 vhcurveto
            -32 -25 -51 -65 -55 hhcurveto
            -24 -4 19 32 -7 hvcurveto
            40 -10 -13 21 -36 hhcurveto
            -35 -55 -13 -46 -56 hvcurveto
            8 16 13 28 3 vvcurveto
            94 callsubr
            -15 -1 -1 -14 -8 vhcurveto
            -103 -202 rlineto
            -2 -4 -4 -7 -5 vvcurveto
            -12 11 0 10 10 6 0 8 4 vhcurveto
            140 76 109 21 39 hhcurveto
            21 8 -10 -18 15 hvcurveto
            -25 22 14 -11 26 hhcurveto
            24 7 3 6 16 hvcurveto
            -61 -91 -44 -67 -42 -81 rrcurveto
            -83 -163 -22 -106 -9 vvcurveto
            -21 16 -15 22 42 10 38 12 3 vhcurveto
            56 214 89 205 131 178 rrcurveto
            16 20 40 callgsubr
            endchar
          </CharString>
          <CharString index="42">
            rmoveto
            10 10 -9 14 -12 -8 -149 -99 rcurveline
            -97 99 -8 8 -18 -14 8 -10 rlinecurve
            94 -144 3 -4 7 0 5 4 rlinecurve
            endchar
          </CharString>
          <CharString index="43">
            1112 669 rmoveto
            14 -11 0 -17 vhcurveto
            -128 hlineto
            -26 -3 -2 -17 -11 hvcurveto
            -373 -575 -84 569 rlineto
            25 -4 -6 0 -23 hhcurveto
            -135 -87 callsubr
            -125 -500 -16 -63 -42 -7 -42 -2 rlinecurve
            -12 -1 -6 -6 -15 vvcurveto
            -7 4 -7 10 vhcurveto
            32 36 4 33 33 37 81 callsubr
            15 0 22 13 -13 1 -5 hvcurveto
            -43 1 -17 12 27 vvcurveto
            8 2 11 1 3 vhcurveto
            130 524 1 -1 89 -596 rlineto
            -18 3 3 -7 17 hhcurveto
            19 5 8 14 9 hvcurveto
            395 609 rlineto
            1 hlineto
            -138 -554 49 callgsubr
            36 41 4 37 38 41 -4 37 hhcurveto
            5 15 6 callgsubr
            134 537 -8 callsubr
            return
          </CharString>
          <CharString index="44">
            -102 callgsubr
            endchar
          </CharString>
          <CharString index="45">
            hlineto
            23 1 1 16 7 hvcurveto
            94 215 rlineto
            6 12 40 callgsubr
            return
          </CharString>
          <CharString index="46">
            562 -46 callsubr
            -17 -5 vhcurveto
            -49 -12 -23 -69 -45 hhcurveto
            -21 -13 13 37 4 0 17 6 24 hvcurveto
            3 15 2 12 6 vvcurveto
            76 -88 22 -62 8 vhcurveto
            3 2 30 19 52 52 rrcurveto
            45 46 47 43 50 hhcurveto
            17 8 -8 -6 3 hvcurveto
            -21 -6 -17 -18 -24 vvcurveto
            -28 22 -6 13 26 25 21 36 35 -26 32 -48 -49 -46 -30 -58 -58 vhcurveto
            -58 -57 -26 -19 -28 -12 100 400 rcurveline
            38 callgsubr
            -142 -567 rlineto
            -4 -14 0 -2 -5 vvcurveto
            -19 14 -11 18 33 7 29 19 5 vhcurveto
            47 188 rlineto
            53 -5 68 -20 -57 vvcurveto
            -6 0 -4 -3 -15 vhcurveto
            -4 -15 0 -3 -10 vvcurveto
            -54 39 -47 62 96 32 150 3 vhcurveto
            return
          </CharString>
          <CharString index="47">
            -83 callsubr
            4 3 13 0 hvcurveto
            return
          </CharString>
          <CharString index="48">
            262 rmoveto
            58 -40 105 -124 -83 -52 -59 -32 -26 vhcurveto
            19 73 25 76 56 64 rrcurveto
            49 44 62 39 61 hhcurveto
            34 26 -9 -27 11 hvcurveto
            -42 -9 -1 -40 0 vvcurveto
            -10 6 -23 30 32 20 26 39 51 -42 31 -72 -92 -93 -54 -82 -71 vhcurveto
            -115 -133 -12 -167 -54 vvcurveto
            -31 0 -163 161 138 140 131 151 vhcurveto
            -80 39 rmoveto
            -15 -18 -140 -51 -66 vhcurveto
            -21 -16 -43 -47 -68 hhcurveto
            -54 -36 37 67 14 3 106 54 78 hvcurveto
            44 32 50 39 57 hhcurveto
            81 9 -68 -28 hvcurveto
            endchar
          </CharString>
          <CharString index="49">
            878 426 rmoveto
            159 -107 98 -140 vhcurveto
            -343 -2 callgsubr
            337 hlineto
            204 213 199 227 hvcurveto
            -87 31 rmoveto
            -72 -31 -145 -67 -83 vhcurveto
            -96 -78 -100 -25 -70 hhcurveto
            -136 hlineto
            -9 -10 0 2 -9 hvcurveto
            10 0 2 4 15 vhcurveto
            136 547 rlineto
            35 9 6 0 33 hhcurveto
            128 hlineto
            83 111 -39 -151 hvcurveto
            return
          </CharString>
          <CharString index="50">
            203 rmoveto
            73 -44 32 -32 23 vhcurveto
            -37 27 rlineto
            41 18 129 56 111 vvcurveto
            82 -81 39 -78 -121 -112 -93 -103 -64 33 -24 56 -41 vhcurveto
            -108 -38 -97 -82 -99 vvcurveto
            -89 85 -51 98 137 131 104 119 vhcurveto
            3 341 rmoveto
            -40 -26 -71 -117 -55 vhcurveto
            -79 56 rlineto
            -33 24 -20 14 37 vvcurveto
            67 83 59 84 63 45 -36 -55 vhcurveto
            -72 -378 rmoveto
            -81 -96 -73 -100 -70 -55 41 66 67 58 86 113 47 vhcurveto
            94 -67 rlineto
            29 -20 27 -20 -46 vvcurveto
            endchar
          </CharString>
          <CharString index="51">
            -66 callgsubr
            -50 -46 29 81 47 22 106 46 58 hvcurveto
            51 40 48 23 43 hhcurveto
            17 43 -5 -31 17 hvcurveto
            -29 -8 -10 -24 -17 vvcurveto
            -16 11 -17 25 17 33 11 48 65 -70 22 -55 -140 -137 -137 -142 return
          </CharString>
          <CharString index="52">
            -85 callsubr
            endchar
          </CharString>
          <CharString index="53">
            685 669 rmoveto
            4 -3 10 -11 vhcurveto
            -31 -36 -4 -32 -46 -51 4 -45 hhcurveto
            -8 -14 11 callsubr
            11 hlineto
            17 11 0 -2 18 hvcurveto
            27 -3 1 -3 -12 vvcurveto
            -4 0 -2 -4 -15 vhcurveto
            -114 -457 rlineto
            -81 -20 -64 -60 -56 hhcurveto
            -37 -40 18 40 -12 hvcurveto
            44 5 11 36 16 vvcurveto
            11 -6 27 -35 -27 -32 -19 -53 -63 55 -46 81 103 94 77 81 20 vhcurveto
            117 470 rlineto
            34 8 5 5 48 hhcurveto
            12 13 0 22 hvcurveto
            return
          </CharString>
          <CharString index="54">
            -52 callsubr
            hintmask 00100000
            return
          </CharString>
          <CharString index="55">
            2 callgsubr
            hintmask 11011000
            -105 callgsubr
            return
          </CharString>
          <CharString index="56">
            -60 callsubr
            134 return
          </CharString>
          <CharString index="57">
            683 342 rmoveto
            188 -153 153 -188 -189 -153 -153 -188 -189 153 -153 189 188 153 153 189 vhcurveto
            -48 hmoveto
            -163 -131 -131 -162 -163 -131 131 163 162 131 131 163 162 131 -131 -162 vhcurveto
            return
          </CharString>
          <CharString index="58">
            1146 -20 28 -8 36 -28 28 301 36 274 36 -8 28 hstemhm
            183 94 hintmask 01011000
            1140 249 rmoveto
            14 -13 0 -8 -6 -5 0 -3 -4 vhcurveto
            -3 -2 -9 -19 -5 -12 rrcurveto
            -134 -60 -42 -57 -153 hhcurveto
            -136 hlineto
            -9 -10 0 2 -9 hvcurveto
            10 0 2 4 15 vhcurveto
            68 272 rlineto
            123 hlineto
            81 10 -15 -32 -14 -5 -24 -1 -4 hvcurveto
            -2 -8 -1 -6 0 vvcurveto
            -14 14 0 7 16 2 3 18 5 vhcurveto
            55 220 rlineto
            -7 callsubr
            71 callgsubr
            -18 0 -3 -19 -5 vhcurveto
            -77 -21 -27 -18 -89 hhcurveto
            -117 hlineto
            59 239 rlineto
            35 9 6 0 33 hhcurveto
            135 hlineto
            118 19 -34 -73 hvcurveto
            -30 -5 -33 -7 113 callsubr
            19 180 rlineto
            26 3 -8 0 -22 hhcurveto
            -367 hlineto
            -16 -14 0 10 -51 hvcurveto
            hintmask 10000110
            8 -35 -17 2 -23 hhcurveto
            -227 -225 -228 -225 -164 119 -106 152 26 23 4 6 32 hvcurveto
            hintmask 01000000
            10 54 18 0 13 hhcurveto
            389 -62 callsubr
            -516 -70 rmoveto
            hintmask 00100110
            -152 -38 -47 -19 -74 hhcurveto
            -122 -66 109 127 229 183 202 171 85 4 -37 -32 -40 -5 -19 -7 -29 hvcurveto
            endchar
          </CharString>
          <CharString index="59">
            rlineto
            -33 -8 -5 -8 -20 callsubr
            return
          </CharString>
          <CharString index="60">
            vvcurveto
            -13 13 -1 6 vhcurveto
            35 -3 21 -12 -20 vvcurveto
            -58 -117 0 -32 vhcurveto
            -16 hlineto
            -16 -12 0 -14 -7 5 -6 9 -1 hvcurveto
            30 hlineto
            96 126 6 81 return
          </CharString>
          <CharString index="61">
            143 rmoveto
            -65 callgsubr
            -3 return
          </CharString>
          <CharString index="62">
            974 31 callgsubr
            -77 -53 -43 -53 -41 vhcurveto
            83 -9 -68 13 -46 hhcurveto
            -89 -51 -60 -26 -23 hvcurveto
            63 -6 -54 23 -39 -94 callgsubr
            34 7 30 15 4 vhcurveto
            23 89 33 135 rlineto
            0 33 77 45 38 vhcurveto
            11 14 34 28 53 hhcurveto
            47 10 -37 -32 -23 -7 -27 -6 -26 hvcurveto
            -24 -96 -21 -84 rlineto
            -6 -22 -10 -40 -6 2 callsubr
            return
          </CharString>
          <CharString index="63">
            603 -50 callgsubr
            return
          </CharString>
          <CharString index="64">
            rmoveto
            3 -6 9 -7 -2 -2 0 -2 -5 vhcurveto
            -7 -26 -21 0 -5 hhcurveto
            -8 -2 0 1 -4 hvcurveto
            26 103 rlineto
            3 8 -1 1 3 vvcurveto
            15 -16 3 -7 -25 -3 -18 -9 -3 vhcurveto
            -6 -23 10 37 -29 -111 rrcurveto
            21 -71 -18 0 -18 hhcurveto
            -26 hlineto
            40 30 39 34 41 48 rrcurveto
            93 112 20 111 3 vvcurveto
            10 -9 8 -14 -24 -5 -18 -7 -2 vhcurveto
            -21 -82 -36 -79 -55 -69 -54 -66 -58 -39 -11 -4 rrcurveto
            -23 -9 -5 -9 -4 vvcurveto
            -2 1 6 -10 6 hhcurveto
            3 2 0 7 11 hvcurveto
            10 16 5 3 51 hhcurveto
            25 17 0 -21 69 hvcurveto
            -21 -85 rlineto
            -3 -9 1 -1 -2 vvcurveto
            -14 12 -4 11 25 3 13 29 7 vhcurveto
            16 64 rlineto
            -1 5 6 0 5 hhcurveto
            14 15 1 4 16 hvcurveto
            21 4 11 3 7 vvcurveto
            106 655 -5 callsubr
            7 8 4 6 6 hvcurveto
            644 107 callsubr
            1 5 rlinecurve
            endchar
          </CharString>
          <CharString index="65">
            -20 hstemhm
            hintmask 11100000
            -107 callsubr
            534 -62 callsubr
            return
          </CharString>
          <CharString index="66">
            -71 callgsubr
            endchar
          </CharString>
          <CharString index="67">
            rmoveto
            0 8 30 4 vvcurveto
            71 callsubr
            vhcurveto
            -223 hlineto
            -22 -3 0 -16 -4 hvcurveto
            -1 -2 -8 -29 -4 58 callgsubr
            225 hlineto
            22 2 0 17 4 hvcurveto
            endchar
          </CharString>
          <CharString index="68">
            409 -38 callsubr
            return
          </CharString>
          <CharString index="69">
            608 -85 callsubr
            return
          </CharString>
          <CharString index="70">
            -6 callgsubr
            206 hmoveto
            -51 callgsubr
            endchar
          </CharString>
          <CharString index="71">
            7 rmoveto
            9 -10 11 -9 1 vhcurveto
            -9 -9 -3 -2 -9 hvcurveto
            -2 -17 -18 -2 -17 hhcurveto
            -8 -7 0 1 -8 hvcurveto
            7 21 4 22 5 21 25 98 rcurveline
            2 10 4 11 10 vvcurveto
            16 -13 14 -19 -32 -10 -30 -25 -6 vhcurveto
            -29 -118 -4 -13 -4 -14 -2 -13 rlinecurve
            -107 20 -73 3 123 78 115 107 45 142 rlinecurve
            4 11 4 12 2 12 rrcurveto
            5 vlineto
            18 -14 13 -19 vhcurveto
            -2 hlineto
            -40 -3 -2 -49 -13 -31 -47 -132 -102 -113 -121 -67 rrcurveto
            -19 -8 -34 -10 -16 vvcurveto
            -1 vlineto
            -10 9 -9 10 vhcurveto
            4 hlineto
            14 37 27 1 35 hhcurveto
            14 hlineto
            43 40 -8 -8 42 hvcurveto
            10 -2 10 -3 10 -1 -26 -103 rcurveline
            -8 -32 rlineto
            -2 -8 -2 -8 -8 vvcurveto
            -18 15 -11 15 35 9 29 28 6 vhcurveto
            26 105 rlineto
            5 1 2 9 6 hhcurveto
            24 hlineto
            33 68 8 16 hvcurveto
            endchar
          </CharString>
          <CharString index="72">
            547 3 callgsubr
            39 28 40 24 rrcurveto
            -5 12 13 -2 11 hhcurveto
            31 26 15 36 22 hvcurveto
            24 39 14 60 3 vvcurveto
            0 callsubr
            6 -22 13 -16 17 -11 -54 -33 -52 -45 33 callgsubr
            -101 417 rmoveto
            -42 -166 -8 -31 -22 -24 -23 -22 rlinecurve
            -36 -41 -31 -5 -15 hhcurveto
            -46 -23 43 52 42 25 110 28 54 hvcurveto
            59 32 48 35 40 hhcurveto
            return
          </CharString>
          <CharString index="73">
            -46 callsubr
            -18 -5 vhcurveto
            return
          </CharString>
          <CharString index="74">
            881 0 36 288 36 287 32 callgsubr
            -62 -248 rlineto
            -97 41 callsubr
            97 hlineto
            -62 -247 82 callsubr
            337 hlineto
            204 213 199 227 hvcurveto
            -87 31 rmoveto
            -72 -31 -145 -67 -83 vhcurveto
            -96 -78 -100 -25 -70 hhcurveto
            -136 hlineto
            -9 -10 0 2 -9 hvcurveto
            10 0 2 4 15 vhcurveto
            64 259 rlineto
            173 30 callgsubr
            -173 hlineto
            63 252 73 callsubr
          </CharString>
          <CharString index="75">
            44 callsubr
            195 36 446 return
          </CharString>
          <CharString index="76">
            0 22 14 -12 0 return
          </CharString>
          <CharString index="77">
            823 0 36 305 28 278 36 hstem
            682 93 vstem
            775 215 rmoveto
            81 -75 52 -86 9 vhcurveto
            115 22 99 75 89 vvcurveto
            77 -76 63 -119 vhcurveto
            -344 -2 callgsubr
            366 hlineto
            155 129 113 102 hvcurveto
            -37 328 rmoveto
            -86 -95 -88 -124 vhcurveto
            -160 hlineto
            60 243 rlineto
            35 9 6 0 33 hhcurveto
            151 hlineto
            89 31 -57 -47 hvcurveto
            -56 -321 rmoveto
            -103 -105 -83 -110 vhcurveto
            -160 hlineto
            -9 -10 0 2 -9 hvcurveto
            10 0 2 4 15 vhcurveto
            69 276 rlineto
            206 hlineto
            80 44 -52 -67 hvcurveto
            endchar
          </CharString>
          <CharString index="78">
            -345 -10 callsubr
            return
          </CharString>
          <CharString index="79">
            793 0 36 -32 32 274 32 305 36 hstemhm
            729 94 hintmask 10010000
            823 529 rmoveto
            87 -82 67 -123 vhcurveto
            -330 hlineto
            -18 -13 -49 callgsubr
            17 34 22 0 -16 -4 0 -2 -4 -14 hvcurveto
            -132 -531 49 callsubr
            hintmask 01000000
            38 42 4 39 hhcurveto
            hintmask 10111000
            39 44 -4 38 hhcurveto
            7 14 6 callgsubr
            61 243 rlineto
            175 hlineto
            156 142 106 113 hvcurveto
            -94 19 rmoveto
            -45 -21 -78 -45 -36 vhcurveto
            -37 -47 -55 -10 -51 hhcurveto
            -156 hlineto
            65 callgsubr
            35 9 6 0 33 hhcurveto
            117 hlineto
            133 10 -64 -35 hvcurveto
            endchar
          </CharString>
          <CharString index="80">
            -31 callsubr
            -17 return
          </CharString>
          <CharString index="81">
            rmoveto
            18 callsubr
            2 hlineto
            100 45 137 16 -65 callgsubr
            -3 -18 -5 hvcurveto
            -48 -13 -33 -69 -51 hhcurveto
            -24 0 24 10 24 17 43 13 32 hvcurveto
            66 173 rlineto
            6 17 0 3 13 vvcurveto
            45 -35 39 -55 -98 -46 -135 -18 -13 13 0 8 12 6 0 13 3 vhcurveto
            116 33 48 9 18 hhcurveto
            12 13 -3 -31 -22 -8 -20 -8 -21 hvcurveto
            -27 -69 -35 -93 rlineto
            -10 -26 -14 -36 -18 vvcurveto
            -35 21 -31 34 -12 vhcurveto
            -46 -31 -41 -41 -10 -45 -40 callgsubr
            return
          </CharString>
          <CharString index="82">
            -20 hstemhm
            hintmask 11100000
            -106 callsubr
            return
          </CharString>
          <CharString index="83">
            2 -1 3 -2 2 vhcurveto
            -49 63 -30 76 -9 85 rrcurveto
            6 -1 -5 4 -6 hhcurveto
            -4 hlineto
            -6 -6 -5 -7 -80 14 -77 29 -70 hvcurveto
            -64 -69 -52 -77 -40 -81 rrcurveto
            -1 -1 -1 -2 -2 vvcurveto
            -7 6 -5 6 vhcurveto
            4 hlineto
            5 3 2 4 3 hvcurveto
            52 85 69 78 81 63 rrcurveto
            3 2 2 4 4 vvcurveto
            return
          </CharString>
          <CharString index="84">
            544 -9 callsubr
            return
          </CharString>
          <CharString index="85">
            -66 callgsubr
            -65 -28 55 63 31 6 31 7 30 hvcurveto
            62 hlineto
            43 197 0 125 54 -51 34 -70 -112 -159 -90 -176 -105 62 -80 108 14 14 1 1 13 hvcurveto
            -48 -31 -35 -34 -10 -48 -40 callgsubr
            -53 callgsubr
            9 40 46 34 40 24 rrcurveto
            94 26 46 58 10 vvcurveto
            -62 257 rmoveto
            -98 -160 0 -39 vhcurveto
            -47 hlineto
            155 45 116 2 12 hhcurveto
            42 31 -23 -36 hvcurveto
            return
          </CharString>
          <CharString index="86">
            22 rmoveto
            11 -10 5 -13 vhcurveto
            -6 -6 -1 -5 hhcurveto
            -15 hlineto
            -28 -37 1 17 -1 hvcurveto
            3 vlineto
            10 4 10 2 10 vhcurveto
            82 325 rlineto
            1 7 4 8 7 vvcurveto
            11 -8 5 -6 -11 -13 -9 -3 -6 vhcurveto
            -22 -45 -52 -9 -49 hhcurveto
            -11 hlineto
            -15 -3 -2 -17 -6 hvcurveto
            -6 vlineto
            -10 2 10 -1 10 hhcurveto
            11 hlineto
            35 35 5 8 34 hvcurveto
            -9 -26 -5 -28 -7 -27 -53 -211 rcurveline
            -8 -33 -7 -15 -35 -5 rrcurveto
            -2 -23 -22 -1 -23 hhcurveto
            -9 hlineto
            -11 -12 -3 -18 -9 7 -6 9 hvcurveto
            54 53 4 54 hhcurveto
            43 hlineto
            34 33 -4 33 hhcurveto
            9 11 4 17 hvcurveto
            endchar
          </CharString>
          <CharString index="87">
            -67 hhcurveto
            -36 callgsubr
            return
          </CharString>
          <CharString index="88">
            -115 -11 callgsubr
            return
          </CharString>
          <CharString index="89">
            0 -22 21 callsubr
            hvcurveto
            38 return
          </CharString>
          <CharString index="90">
            -2 -7 hvcurveto
            return
          </CharString>
          <CharString index="91">
            19 callgsubr
            167 -116 107 -156 -233 -221 -231 -222 -144 94 -109 145 -15 vhcurveto
            -38 -29 -31 -35 -8 -39 -13 callgsubr
            8 6 rcurveline
            224 1 226 216 232 vvcurveto
            -90 33 rmoveto
            -199 -151 -250 -203 -89 -97 58 159 231 160 210 190 86 104 -53 -156 vhcurveto
            return
          </CharString>
          <CharString index="92">
            86 -44 50 -58 -104 -104 -135 -127 -79 44 -62 70 97 99 139 128 vhcurveto
            return
          </CharString>
          <CharString index="93">
            216 rmoveto
            16 64 5 66 -32 46 rrcurveto
            45 -30 -57 15 -61 hhcurveto
            -61 -65 -15 -45 -52 hvcurveto
            -55 -46 -28 -66 -16 -64 -16 -64 -5 -66 32 -46 rrcurveto
            -45 30 57 -15 61 hhcurveto
            61 65 15 45 52 hvcurveto
            55 46 28 66 16 64 rrcurveto
            -85 hmoveto
            -13 -54 -18 -56 -41 -46 rrcurveto
            -33 -30 -43 -19 -40 hhcurveto
            -40 -33 19 33 -14 hvcurveto
            -17 46 9 56 14 54 13 54 18 56 41 46 rrcurveto
            33 30 43 19 40 hhcurveto
            40 33 -19 -33 14 hvcurveto
            17 -46 -9 -56 -14 -54 rrcurveto
            endchar
          </CharString>
          <CharString index="94">
            702 6 rmoveto
            16 13 -6 12 -8 9 -159 211 rcurveline
            261 208 11 9 23 18 -18 13 rlinecurve
            -19 13 -21 -17 -13 -10 -249 -199 rcurveline
            -150 199 -7 10 -2 1 -3 2 rlinecurve
            -12 9 -18 -5 -10 -7 -16 -14 8 -11 6 -8 159 -212 rcurveline
            -261 -209 -13 -11 -20 -15 19 -13 rlinecurve
            18 -13 21 17 12 9 250 200 rcurveline
            150 -200 8 -10 0 -1 3 -2 rlinecurve
            13 -10 19 7 8 7 rrcurveto
            return
          </CharString>
          <CharString index="95">
            375 542 -91 callsubr
            return
          </CharString>
          <CharString index="96">
            -10 callsubr
            endchar
          </CharString>
          <CharString index="97">
            126 -91 callsubr
            return
          </CharString>
          <CharString index="98">
            -10 -20 callgsubr
            return
          </CharString>
          <CharString index="99">
            rlineto
            36 9 7 callgsubr
            return
          </CharString>
          <CharString index="100">
            1 4 2 7 4 vvcurveto
            return
          </CharString>
          <CharString index="101">
            hvcurveto
            32 13 0 28 4 6 callsubr
            return
          </CharString>
          <CharString index="102">
            rmoveto
            14 3 -8 10 -13 hhcurveto
            -8 -8 -3 -6 -6 hvcurveto
            -643 -644 -4 -4 -3 -5 -1 -5 rlinecurve
            -13 -4 8 -11 14 hhcurveto
            return
          </CharString>
          <CharString index="103">
            0 -22 0 1 -14 14 hvcurveto
            return
          </CharString>
          <CharString index="104">
            482 rmoveto
            51 -9 131 -148 -54 -92 -21 -112 -73 vhcurveto
            -74 -114 -35 -189 -68 vvcurveto
            -93 36 -87 122 278 49 441 61 vhcurveto
            -163 -338 rmoveto
            -114 -45 -70 -22 -42 hhcurveto
            -22 -70 8 97 86 63 229 24 65 hvcurveto
            60 22 47 83 92 hhcurveto
            24 70 -9 -93 -81 -64 -237 -29 -72 hvcurveto
            endchar
          </CharString>
          <CharString index="105">
            rmoveto
            -9 17 rlineto
            -41 -60 -60 -30 -51 hhcurveto
            -40 -25 17 20 -30 hvcurveto
            17 -25 -26 17 -40 hhcurveto
            -25 -28 -8 -10 -25 hvcurveto
            -22 -10 -23 -11 -21 -14 -65 -44 rcurveline
            10 -17 rlineto
            41 59 61 30 51 hhcurveto
            40 25 -17 -20 30 hvcurveto
            -17 24 27 -17 40 hhcurveto
            25 28 8 10 25 hvcurveto
            22 10 23 11 20 14 rrcurveto
            endchar
          </CharString>
          <CharString index="106">
            -271 -21 146 86 return
          </CharString>
          <CharString index="107">
            -95 callgsubr
            66 264 -52 callgsubr
            -33 -10 -34 -3 -1 vhcurveto
            41 -25 -37 15 -36 hhcurveto
            -122 -127 -141 -146 -107 68 -57 74 64 53 47 21 20 hvcurveto
            return
          </CharString>
          <CharString index="108">
            897 -20 33 658 32 return
          </CharString>
          <CharString index="109">
            29 callsubr
            -59 -47 -121 -17 -46 -46 callgsubr
            return
          </CharString>
          <CharString index="110">
            574 -204 28 37 83 46 -42 callgsubr
            return
          </CharString>
          <CharString index="111">
            119 76 270 76 return
          </CharString>
          <CharString index="112">
            368 406 -21 194 115 hstem
            284 124 vstem
            408 27 callsubr
            endchar
          </CharString>
          <CharString index="113">
            55 callsubr
            -29 -22 -24 -31 return
          </CharString>
          <CharString index="114">
            hstemhm
            182 70 0 70 return
          </CharString>
          <CharString index="115">
            rlineto
            -9 -36 0 -23 -13 vvcurveto
            -106 65 -55 72 123 126 143 145 vhcurveto
            -76 41 rmoveto
            -46 -28 -112 -25 -47 vhcurveto
            -70 -37 -50 -26 -32 hhcurveto
            -42 -30 36 65 53 37 134 6 10 hvcurveto
            48 30 53 49 50 hhcurveto
            47 21 -46 -48 hvcurveto
            endchar
          </CharString>
          <CharString index="116">
            544 -204 28 176 28 385 28 return
          </CharString>
          <CharString index="117">
            hstemhm
            4 callgsubr
            return
          </CharString>
          <CharString index="118">
            -49 callgsubr
            15 hvcurveto
            return
          </CharString>
          <CharString index="119">
            hhcurveto
            5 16 0 22 return
          </CharString>
          <CharString index="120">
            -275 -95 callsubr
          </CharString>
          <CharString index="121">
            409 rmoveto
            -114 -83 -131 -71 -24 -29 18 64 45 21 89 28 52 vhcurveto
            46 24 39 33 33 hhcurveto
            49 13 -64 -38 hvcurveto
            return
          </CharString>
          <CharString index="122">
            48 callsubr
            143 575 rlineto
            12 -10 0 -16 vhcurveto
            -20 hlineto
            -23 -1 -1 -18 -5 hvcurveto
            -3 -13 -4 -13 -2 -9 rrcurveto
            -1 hlineto
            return
          </CharString>
          <CharString index="123">
            143 rmoveto
            -88 callsubr
            5 21 1 3 hvcurveto
            return
          </CharString>
          <CharString index="124">
            -115 -83 -130 -71 -29 -24 27 55 72 50 193 96 40 21 -46 -56 vhcurveto
            return
          </CharString>
          <CharString index="125">
            -53 callgsubr
            6 28 21 22 26 19 23 16 rcurveline
            return
          </CharString>
          <CharString index="126">
            -20 20 callgsubr
            return
          </CharString>
          <CharString index="127">
            10 callgsubr
            -66 55 -28 44 31 26 15 36 22 vhcurveto
            24 39 14 60 3 vvcurveto
            return
          </CharString>
          <CharString index="128">
            -4 2 -10 13 return
          </CharString>
          <CharString index="129">
            260 309 -103 callsubr
            return
          </CharString>
          <CharString index="130">
            -13 -3 -6 -24 24 hhcurveto
            25 5 23 14 4 hvcurveto
            return
          </CharString>
          <CharString index="131">
            hstemhm
            8 callgsubr
            return
          </CharString>
          <CharString index="132">
            1 callgsubr
            36 return
          </CharString>
          <CharString index="133">
            rmoveto
            2 9 rlineto
            2 6 3 10 8 vvcurveto
            11 -6 4 -15 vhcurveto
            -238 18 callgsubr
            242 hlineto
            14 5 7 11 2 hvcurveto
            return
          </CharString>
          <CharString index="134">
            625 -31 callgsubr
            return
          </CharString>
          <CharString index="135">
            -47 callsubr
            48 -57 8 -15 2 hvcurveto
            3 return
          </CharString>
          <CharString index="136">
            97 callgsubr
            3 15 10 38 3 15 rlinecurve
            3 10 13 50 1 7 2 6 30 66 41 38 rrcurveto
            27 30 35 17 40 hhcurveto
            46 11 -35 -33 return
          </CharString>
          <CharString index="137">
            36 611 36 return
          </CharString>
          <CharString index="138">
            17 callsubr
            endchar
          </CharString>
          <CharString index="139">
            89 callgsubr
            -9 hlineto
            -17 -8 0 2 -18 hvcurveto
            -21 2 -8 1 13 vvcurveto
            return
          </CharString>
          <CharString index="140">
            544 -10 28 277 80 38 28 return
          </CharString>
          <CharString index="141">
            hstemhm
            37 callgsubr
            return
          </CharString>
          <CharString index="142">
            -4 -47 callsubr
            return
          </CharString>
          <CharString index="143">
            -17 2 -11 3 -23 7 rrcurveto
            5 -19 -30 9 -23 hhcurveto
            -39 -10 -31 -7 -2 hvcurveto
            -13 -3 -1 -26 36 hhcurveto
            22 32 8 7 25 hvcurveto
            32 8 16 2 9 1 return
          </CharString>
          <CharString index="144">
            -66 503 -102 callgsubr
            return
          </CharString>
          <CharString index="145">
            vvcurveto
            34 -18 40 -53 -79 -48 -69 -26 -13 10 0 11 17 0 1 15 5 vhcurveto
            35 12 37 29 34 hhcurveto
            20 11 -11 -21 -22 -16 -21 -9 -7 hvcurveto
            return
          </CharString>
          <CharString index="146">
            rmoveto
            21 6 -13 16 -21 hhcurveto
            -21 -22 -16 -21 -3 hvcurveto
            -45 -244 rlineto
            42 hlineto
            return
          </CharString>
          <CharString index="147">
            878 426 rmoveto
            159 -107 98 -140 vhcurveto
            -343 -87 callsubr
            return
          </CharString>
          <CharString index="148">
            hlineto
            -9 -11 -8 -10 -2 hvcurveto
            -10 -3 7 -8 9 hhcurveto
            return
          </CharString>
          <CharString index="149">
            9 -7 5 -8 return
          </CharString>
          <CharString index="150">
            -83 -332 rlineto
            -20 -5 -3 -5 -40 hhcurveto
            -11 -7 0 -13 -2 1 -6 8 hvcurveto
            22 24 2 23 22 25 -2 22 hhcurveto
            3 9 0 13 return
          </CharString>
          <CharString index="151">
            866 0 36 return
          </CharString>
          <CharString index="152">
            -44 callsubr
            206 48 return
          </CharString>
          <CharString index="153">
            -31 callsubr
            -16 hvcurveto
            return
          </CharString>
          <CharString index="154">
            -23 -5 14 -19 23 hhcurveto
            23 24 19 23 5 hvcurveto
            return
          </CharString>
          <CharString index="155">
            143 rmoveto
            -95 callgsubr
            return
          </CharString>
          <CharString index="156">
            rlineto
            -36 -9 -5 -8 -65 hhcurveto
            -21 -11 0 -22 21 callsubr
            hvcurveto
            return
          </CharString>
          <CharString index="157">
            rmoveto
            14 -14 0 -15 vhcurveto
            -152 -34 callgsubr
            -15 10 0 18 hvcurveto
            152 hlineto
            18 13 0 23 hvcurveto
            endchar
          </CharString>
          <CharString index="158">
            hlineto
            -142 -265 rlineto
            -7 -13 0 -3 -4 vvcurveto
            -17 13 -8 11 14 5 8 12 6 vhcurveto
            155 290 rlineto
            return
          </CharString>
          <CharString index="159">
            36 655 32 hstemhm
            69 callsubr
            return
          </CharString>
          <CharString index="160">
            vvcurveto
            -29 24 -5 11 29 22 24 31 return
          </CharString>
          <CharString index="161">
            838 0 36 604 36 return
          </CharString>
          <CharString index="162">
            vvcurveto
            29 -24 5 -11 return
          </CharString>
          <CharString index="163">
            74 callgsubr
            hstemhm
            hintmask 00110000
            return
          </CharString>
          <CharString index="164">
            44 callsubr
            301 36 274 36 return
          </CharString>
          <CharString index="165">
            17 5 21 1 3 hvcurveto
            return
          </CharString>
          <CharString index="166">
            hlineto
            -10 -10 -8 -10 -2 hvcurveto
            -10 -3 101 callgsubr
            return
          </CharString>
          <CharString index="167">
            -50 callgsubr
            105 104 75 76 callsubr
            return
          </CharString>
          <CharString index="168">
            -403 112 callgsubr
            return
          </CharString>
          <CharString index="169">
            632 -10 28 395 27 return
          </CharString>
          <CharString index="170">
            838 -20 36 651 36 return
          </CharString>
          <CharString index="171">
            500 11 -21 423 28 return
          </CharString>
          <CharString index="172">
            hstem
            130 79 237 86 vstem
            541 97 rmoveto
            8 -14 16 -9 -5 -3 -3 -8 -7 vhcurveto
            return
          </CharString>
          <CharString index="173">
            16 -2 11 -3 24 -7 rrcurveto
            -5 18 30 -9 23 hhcurveto
            36 13 26 13 3 hvcurveto
            endchar
          </CharString>
          <CharString index="174">
            -211 47 154 -42 callgsubr
            return
          </CharString>
          <CharString index="175">
            -10 -2 101 callgsubr
            return
          </CharString>
          <CharString index="176">
            219 68 261 68 return
          </CharString>
          <CharString index="177">
            -21 162 -20 return
          </CharString>
          <CharString index="178">
            14 -13 0 -15 return
          </CharString>
          <CharString index="179">
            -21 196 -20 return
          </CharString>
          <CharString index="180">
            rlineto
            35 9 6 0 33 hhcurveto
            128 hlineto
            83 111 -39 -151 hvcurveto
            endchar
          </CharString>
          <CharString index="181">
            897 -43 -21 44 28 667 28 44 -20 return
          </CharString>
          <CharString index="182">
            486 -10 73 305 73 return
          </CharString>
          <CharString index="183">
            70 callsubr
            hstemhm
            return
          </CharString>
          <CharString index="184">
            -10 10 -4 10 19 4 10 14 vhcurveto
            endchar
          </CharString>
          <CharString index="185">
            17 callgsubr
            hstem
            return
          </CharString>
          <CharString index="186">
            28 -8 36 -28 28 292 28 291 36 48 callgsubr
            return
          </CharString>
          <CharString index="187">
            1028 0 36 274 36 301 36 return
          </CharString>
          <CharString index="188">
            -4 32 hhcurveto
            5 return
          </CharString>
          <CharString index="189">
            -48 callsubr
            -14 12 0 16 hvcurveto
            return
          </CharString>
          <CharString index="190">
            -17 0 -1 -15 -5 vhcurveto
            -35 -12 -37 -29 -34 hhcurveto
            -20 -11 11 21 return
          </CharString>
          <CharString index="191">
            86 209 28 79 115 hstemhm
            108 42 252 41 -15 42 return
          </CharString>
          <CharString index="192">
            -27 -45 hhcurveto
            -23 -32 4 4 -25 hvcurveto
            2 -13 -38 6 -28 hhcurveto
            return
          </CharString>
          <CharString index="193">
            rlineto
            -1 vlineto
            54 -357 rlineto
            -11 2 1 -4 11 hhcurveto
            11 3 return
          </CharString>
          <CharString index="194">
            -44 callsubr
            69 43 return
          </CharString>
          <CharString index="195">
            110 callsubr
            hintmask 00100000
            return
          </CharString>
          <CharString index="196">
            0 -22 -14 14 0 15 hvcurveto
            return
          </CharString>
          <CharString index="197">
            -1 callsubr
            40 return
          </CharString>
          <CharString index="198">
            -21 544 28 36 76 hstem
            return
          </CharString>
          <CharString index="199">
            -13 -3 8 -11 13 hhcurveto
            return
          </CharString>
          <CharString index="200">
            80 76 callsubr
            return
          </CharString>
          <CharString index="201">
            12 -12 0 -8 return
          </CharString>
          <CharString index="202">
            58 73 -4 hvcurveto
            -1 26 -16 36 -50 16 63 17 56 48 return
          </CharString>
          <CharString index="203">
            619 rmoveto
            50 -3 -51 34 -72 hhcurveto
            -98 -75 -58 -51 return
          </CharString>
          <CharString index="204">
            hlineto
            9 11 8 10 2 hvcurveto
            10 3 -7 8 -9 hhcurveto
            return
          </CharString>
          <CharString index="205">
            113 callsubr
            endchar
          </CharString>
          <CharString index="206">
            22 rmoveto
            14 -13 0 return
          </CharString>
          <CharString index="207">
            -21 134 43 hstem
            return
          </CharString>
          <CharString index="208">
            hstemhm
            235 81 return
          </CharString>
          <CharString index="209">
            rlineto
            15 -3 -3 0 -14 hhcurveto
            -81 hlineto
            -11 -8 0 return
          </CharString>
          <CharString index="210">
            -172 -21 197 -21 34 34 400 -20 hstem
            return
          </CharString>
          <CharString index="211">
            -173 -21 176 36 16 36 594 -20 hstem
            return
          </CharString>
          <CharString index="212">
            21 -21 483 -20 hstem
            return
          </CharString>
          <CharString index="213">
            -20 32 385 28 92 return
          </CharString>
          <CharString index="214">
            643 4 4 3 5 return
          </CharString>
          <CharString index="215">
            13 callgsubr
            hstemhm
            return
          </CharString>
          <CharString index="216">
            48 126 48 return
          </CharString>
          <CharString index="217">
            -20 21 -20 hstemhm
            return
          </CharString>
          <CharString index="218">
            -20 76 0 28 252 28 272 28 hstemhm
            return
          </CharString>
          <CharString index="219">
            rlineto
            -8 6 -6 8 6 6 4 6 1 vhcurveto
            return
          </CharString>
          <CharString index="220">
            vvcurveto
            -17 11 0 10 19 1 7 17 2 vhcurveto
            return
          </CharString>
          <CharString index="221">
            662 -20 36 655 32 return
          </CharString>
          <CharString index="222">
            94 callgsubr
            hstemhm
            return
          </CharString>
          <CharString index="223">
            603 510 43 return
          </CharString>
          <CharString index="224">
            118 callgsubr
            hstemhm
            return
          </CharString>
          <CharString index="225">
            42 25 42 hstem
            return
          </CharString>
          <CharString index="226">
            62 207 41 return
          </CharString>
          <CharString index="227">
            28 15 callgsubr
            130 79 return
          </CharString>
          <CharString index="228">
            -42 callgsubr
            7 callsubr
            return
          </CharString>
          <CharString index="229">
            hlineto
            -15 -13 0 -14 -14 13 0 15 hvcurveto
            return
          </CharString>
        <CharString name=".notdef">
          280 endchar
        </CharString>
        <CharString name="A">
          -23 callgsubr
          hstem
          -106 callsubr
          endchar
        </CharString>
        <CharString name="AE">
          80 callsubr
          hstem
          -77 callgsubr
          endchar
        </CharString>
        <CharString name="AE.dup">
          80 callsubr
          hstem
          -77 callgsubr
          endchar
        </CharString>
        <CharString name="AEacute">
          80 callsubr
          81 76 callsubr
          hintmask 11100000
          -77 callgsubr
          hintmask 00011000
          260 259 -104 callgsubr
        </CharString>
        <CharString name="Aacute">
          103 callgsubr
          162 -25 callsubr
          hintmask 00011000
          246 269 -104 callgsubr
        </CharString>
        <CharString name="Abreve">
          -23 callgsubr
          50 43 134 -25 callsubr
          hintmask 00011000
          22 callsubr
          endchar
        </CharString>
        <CharString name="Abreveacute">
          -23 callgsubr
          50 43 316 -25 callsubr
          hintmask 00011000
          22 callsubr
          -4 157 -104 callgsubr
        </CharString>
        <CharString name="Abrevedotbelow">
          -23 callgsubr
          50 43 134 -20 hstemhm
          -106 callsubr
          22 callsubr
          -364 -1038 -95 callsubr
        </CharString>
        <CharString name="Abrevegrave">
          -23 callgsubr
          50 43 134 -25 callsubr
          hintmask 00011000
          22 callsubr
          -27 61 rmoveto
          -2 -5 -16 -20 -12 -2 rrcurveto
          -3 -3 -1 5 -9 hvcurveto
          -149 87 -13 7 -10 6 7 19 rlinecurve
          22 7 22 17 22 hhcurveto
          11 7 -6 -3 2 hvcurveto
          132 -112 7 -7 2 -1 -2 -6 rlinecurve
          endchar
        </CharString>
        <CharString name="Abrevehookabove">
          -23 callgsubr
          50 43 337 -25 callsubr
          hintmask 00011000
          22 callsubr
          -20 149 -107 callgsubr
        </CharString>
        <CharString name="Abrevetilde">
          -23 callgsubr
          50 43 174 42 25 42 hstemhm
          hintmask 11100000
          -106 callsubr
          hintmask 00011100
          22 callsubr
          52 149 rmoveto
          -106 callgsubr
        </CharString>
        <CharString name="Acaron">
          -23 callgsubr
          hstemhm
          -106 callsubr
          218 236 -74 callsubr
        </CharString>
        <CharString name="Acircumflex">
          -23 callgsubr
          hstemhm
          -106 callsubr
          198 155 -63 callsubr
        </CharString>
        <CharString name="Acircumflexacute">
          -23 callgsubr
          341 -20 -25 callgsubr
          198 155 -102 callgsubr
          41 243 -104 callgsubr
        </CharString>
        <CharString name="Acircumflexdotbelow">
          -23 callgsubr
          hstemhm
          -106 callsubr
          198 155 -102 callgsubr
          -302 -884 -95 callsubr
        </CharString>
        <CharString name="Acircumflexgrave">
          -23 callgsubr
          hstemhm
          -106 callsubr
          198 155 -78 callgsubr
        </CharString>
        <CharString name="Acircumflexhookabove">
          -23 callgsubr
          362 -20 -25 callgsubr
          198 155 -102 callgsubr
          129 235 -107 callgsubr
        </CharString>
        <CharString name="Acircumflextilde">
          -23 callgsubr
          199 42 25 42 hstemhm
          hintmask 11100000
          -106 callsubr
          hintmask 00011000
          198 155 -102 callgsubr
          97 235 rmoveto
          -106 callgsubr
        </CharString>
        <CharString name="Adblgrave">
          103 callgsubr
          194 -25 callsubr
          hintmask 00011000
          170 166 rmoveto
          -81 callsubr
          -176 hmoveto
          -81 callsubr
          endchar
        </CharString>
        <CharString name="Adieresis">
          -23 callgsubr
          40 104 -25 callgsubr
          10 198 -72 callgsubr
        </CharString>
        <CharString name="Adotbelow">
          -23 callgsubr
          hstemhm
          -106 callsubr
          -104 -729 -95 callsubr
        </CharString>
        <CharString name="Agrave">
          103 callgsubr
          162 -25 callsubr
          hintmask 00011000
          144 173 -80 callsubr
        </CharString>
        <CharString name="Ahookabove">
          -23 callgsubr
          81 -21 203 -25 callsubr
          hintmask 00011000
          199 291 -107 callgsubr
        </CharString>
        <CharString name="Alpha">
          -23 callgsubr
          hstem
          -106 callsubr
          endchar
        </CharString>
        <CharString name="Amacron">
          -23 callgsubr
          60 37 -25 callgsubr
          258 179 -81 callgsubr
        </CharString>
        <CharString name="Aogonek">
          113 callgsubr
          hstem
          76 216 247 258 vstem
          -37 callgsubr
          endchar
        </CharString>
        <CharString name="Aogonekacute">
          113 callgsubr
          497 76 callsubr
          76 216 247 258 hintmask 11100110
          -37 callgsubr
          hintmask 00011000
          246 269 -104 callgsubr
        </CharString>
        <CharString name="Aring">
          -32 callsubr
          35 106 35 hstemhm
          522 109 callsubr
          hintmask 11100000
          -106 callsubr
          hintmask 00111100
          136 224 -78 callsubr
          endchar
        </CharString>
        <CharString name="Aringacute">
          -32 callsubr
          106 callgsubr
          hstemhm
          522 109 callsubr
          hintmask 11100000
          -106 callsubr
          hintmask 00111110
          136 224 -78 callsubr
          64 214 -104 callgsubr
        </CharString>
        <CharString name="Atilde">
          -23 callgsubr
          40 42 25 42 hstemhm
          hintmask 11100000
          -106 callsubr
          hintmask 00011000
          255 231 rmoveto
          -106 callgsubr
        </CharString>
        <CharString name="B">
          -30 callsubr
        </CharString>
        <CharString name="Beta">
          -30 callsubr
        </CharString>
        <CharString name="C">
          63 callsubr
          hstem
          171 92 vstem
          -74 callgsubr
          endchar
        </CharString>
        <CharString name="Cacute">
          63 callsubr
          107 callgsubr
          171 92 hintmask 11001000
          -74 callgsubr
          hintmask 00110000
          -16 429 -104 callgsubr
        </CharString>
        <CharString name="Ccaron">
          63 callsubr
          123 callgsubr
          vstemhm
          -74 callgsubr
          -44 396 -74 callsubr
        </CharString>
        <CharString name="Ccedilla">
          63 callsubr
          hstem
          171 92 vstem
          850 437 rmoveto
          60 241 rlineto
          1 6 1 4 3 vvcurveto
          0 0 12 -14 -8 -2 -3 -7 -7 vhcurveto
          -61 -69 -9 -9 rlineto
          0 -1 1 -8 10 vhcurveto
          51 -41 -59 26 -71 hhcurveto
          -228 -232 -214 -231 -141 86 -99 122 -29 hvcurveto
          -4 -18 -6 -23 -5 callgsubr
          2 7 2 9 3 9 rrcurveto
          6 hlineto
          92 82 41 43 53 hvcurveto
          101 84 14 92 0 vvcurveto
          13 -10 0 -11 -12 -6 0 -12 -3 vhcurveto
          -151 -45 -137 -74 -103 hhcurveto
          -94 -116 52 160 52 16 137 93 116 hvcurveto
          75 61 104 59 103 hhcurveto
          119 50 -97 -95 hvcurveto
          -14 -4 -19 -12 vvcurveto
          -13 12 0 9 16 3 0 20 5 vhcurveto
          endchar
        </CharString>
        <CharString name="Ccircumflex">
          63 callsubr
          123 callgsubr
          vstemhm
          -74 callgsubr
          -64 315 -63 callsubr
        </CharString>
        <CharString name="Cdotaccent">
          63 callsubr
          50 115 123 callgsubr
          hintmask 11010000
          -74 callgsubr
          hintmask 00100000
          -128 384 -95 callsubr
        </CharString>
        <CharString name="Chi">
          -45 callgsubr
        </CharString>
        <CharString name="D">
          881 0 36 611 36 hstem
          791 87 vstem
          -58 callsubr
          endchar
        </CharString>
        <CharString name="Dcaron">
          881 108 callsubr
          791 87 vstemhm
          -58 callsubr
          -75 376 -74 callsubr
        </CharString>
        <CharString name="Dcroat">
          -33 callsubr
        </CharString>
        <CharString name="Ddotbelow">
          881 108 callsubr
          791 87 vstemhm
          -58 callsubr
          -397 -589 -95 callsubr
        </CharString>
        <CharString name="Delta">
          956 0 74 639 -20 hstem
          869 13 rmoveto
          4 -2 6 -1 4 vhcurveto
          -181 663 rlineto
          17 -5 -1 6 -24 hhcurveto
          -15 -9 0 -20 -15 hvcurveto
          -518 -672 rlineto
          -8 -10 110 callgsubr
          -8 6 0 16 vhcurveto
          730 hlineto
          16 11 0 13 hvcurveto
          -112 61 rmoveto
          -571 hlineto
          422 547 rlineto
          endchar
        </CharString>
        <CharString name="Dlinebelow">
          881 -160 37 123 30 callsubr
          hstemhm
          791 87 hintmask 01110000
          -58 callsubr
          hintmask 10000000
          -264 -594 -81 callgsubr
        </CharString>
        <CharString name="E">
          -18 callgsubr
          hstem
          -107 callsubr
          534 -62 callsubr
          endchar
        </CharString>
        <CharString name="Eacute">
          -18 callgsubr
          85 -21 162 -42 callsubr
          hintmask 00011000
          -18 617 -104 callgsubr
        </CharString>
        <CharString name="Ebreve">
          -18 callgsubr
          64 43 134 -42 callsubr
          hintmask 00011000
          -4 657 -88 callgsubr
        </CharString>
        <CharString name="Ecaron">
          -18 callgsubr
          hstemhm
          -107 callsubr
          534 -62 callsubr
          -46 584 -74 callsubr
        </CharString>
        <CharString name="Ecircumflex">
          -47 callgsubr
          endchar
        </CharString>
        <CharString name="Ecircumflexacute">
          -18 callgsubr
          355 -20 -67 callgsubr
          37 callsubr
          41 243 -104 callgsubr
        </CharString>
        <CharString name="Ecircumflexdotbelow">
          -47 callgsubr
          -301 -884 -95 callsubr
        </CharString>
        <CharString name="Ecircumflexgrave">
          -47 callgsubr
          17 147 rmoveto
          -2 -5 -16 -20 -12 -2 rrcurveto
          -3 -3 -1 5 -9 hvcurveto
          -149 87 -13 7 -10 6 7 19 rlinecurve
          22 7 22 17 22 hhcurveto
          11 7 -6 -3 2 hvcurveto
          132 -112 7 -7 2 -1 -2 -6 rlinecurve
          endchar
        </CharString>
        <CharString name="Ecircumflexhookabove">
          -18 callgsubr
          376 -20 -67 callgsubr
          37 callsubr
          129 235 -107 callgsubr
        </CharString>
        <CharString name="Ecircumflextilde">
          -18 callgsubr
          213 42 25 42 hstemhm
          hintmask 11100000
          -107 callsubr
          534 -62 callsubr
          hintmask 00011000
          37 callsubr
          97 235 rmoveto
          -106 callgsubr
        </CharString>
        <CharString name="Edblgrave">
          -18 callgsubr
          85 -21 194 -42 callsubr
          hintmask 00011000
          -64 514 rmoveto
          -81 callsubr
          -176 hmoveto
          -81 callsubr
          endchar
        </CharString>
        <CharString name="Edieresis">
          -18 callgsubr
          54 104 -67 callgsubr
          -254 546 -72 callgsubr
        </CharString>
        <CharString name="Edotaccent">
          -18 callgsubr
          74 115 -67 callgsubr
          -129 572 -95 callsubr
        </CharString>
        <CharString name="Edotbelow">
          -18 callgsubr
          hstemhm
          -107 callsubr
          534 -62 callsubr
          -367 -381 -95 callsubr
        </CharString>
        <CharString name="Egrave">
          -18 callgsubr
          85 -21 162 -42 callsubr
          hintmask 00011000
          -120 521 -80 callsubr
        </CharString>
        <CharString name="Ehookabove">
          -18 callgsubr
          95 -21 203 -42 callsubr
          hintmask 00011000
          -65 639 -107 callgsubr
        </CharString>
        <CharString name="Emacron">
          -18 callgsubr
          74 37 -67 callgsubr
          -6 527 -81 callgsubr
        </CharString>
        <CharString name="Eng">
          866 914 342 rmoveto
          198 50 -116 163 -196 hhcurveto
          -81 -84 -33 -55 -64 hvcurveto
          17 68 rlineto
          -3 -15 -14 -1 -15 -41 -44 4 -40 hhcurveto
          -6 -16 -49 callgsubr
          17 35 26 -9 callgsubr
          -133 -531 rlineto
          -33 -8 -6 -8 -68 hhcurveto
          -22 -11 -4 callsubr
          40 44 4 40 41 45 -4 40 hhcurveto
          6 15 -27 callsubr
          hvcurveto
          0 -21 0 -17 2 vhcurveto
          -23 2 0 3 10 vvcurveto
          4 0 2 4 14 vhcurveto
          118 474 rlineto
          69 56 91 45 89 hhcurveto
          154 62 -153 -166 -42 hvcurveto
          -33 -135 -55 -146 -102 -32 rrcurveto
          20 2 -14 15 -21 hhcurveto
          -23 -23 -19 -23 -6 hvcurveto
          -23 -6 14 -19 23 hhcurveto
          164 133 179 183 45 hvcurveto
          endchar
        </CharString>
        <CharString name="Eogonek">
          793 -211 47 164 36 299 36 272 36 hstem
          -107 callsubr
          414 hlineto
          -56 -28 -42 -41 33 callgsubr
          -53 callgsubr
          9 40 41 29 45 26 rrcurveto
          81 -62 callsubr
          endchar
        </CharString>
        <CharString name="Eogonekacute">
          793 -211 47 164 36 299 36 272 36 85 76 callsubr
          hintmask 11110000
          -107 callsubr
          414 hlineto
          -56 -28 -42 -41 33 callgsubr
          -53 callgsubr
          9 40 41 29 45 26 rrcurveto
          81 -62 callsubr
          hintmask 00001100
          -18 617 -104 callgsubr
        </CharString>
        <CharString name="Epsilon">
          -18 callgsubr
          hstem
          -107 callsubr
          534 -62 callsubr
          endchar
        </CharString>
        <CharString name="Ereversed">
          -18 callgsubr
          hstem
          888 657 rmoveto
          22 11 -13 0 -18 hhcurveto
          -519 hlineto
          -22 -8 0 -26 -10 hvcurveto
          -71 -180 rlineto
          -17 -6 -3 -7 19 hhcurveto
          10 11 0 17 9 hvcurveto
          0 19 48 9 19 vhcurveto
          83 42 46 27 118 hhcurveto
          153 hlineto
          33 6 0 -35 -8 hvcurveto
          -60 -237 rlineto
          -99 hlineto
          -86 -13 19 74 17 hvcurveto
          21 5 1 3 -17 hhcurveto
          -7 -14 0 -14 -7 hvcurveto
          -2 -3 -2 -7 -1 -3 -55 -223 rcurveline
          -16 -4 0 -4 17 hhcurveto
          6 15 0 14 7 hvcurveto
          0 1 3 2 9 vhcurveto
          7 29 7 13 2 5 rrcurveto
          28 14 14 16 77 hhcurveto
          106 hlineto
          -68 -270 -3 -15 -1 -2 -5 -10 rlinecurve
          -2 -10 -10 0 -9 hhcurveto
          -161 hlineto
          -157 -16 58 133 6 hvcurveto
          1 12 1 19 -2 2 rrcurveto
          3 -3 -5 0 -6 hhcurveto
          -8 -13 0 -14 -7 hvcurveto
          -1 -3 -1 -2 -12 vvcurveto
          -14 -215 rlineto
          -16 -1 1 -1 23 hhcurveto
          534 hlineto
          16 12 0 14 7 hvcurveto
          22 11 -11 0 -21 hhcurveto
          -65 -1 8 36 9 hvcurveto
          131 524 1 7 2 8 4 8 rlinecurve
          16 8 22 0 34 hhcurveto
          17 13 0 14 7 hvcurveto
          endchar
        </CharString>
        <CharString name="Eta">
          57 callsubr
          hstem
          -98 callgsubr
          endchar
        </CharString>
        <CharString name="Eth">
          -33 callsubr
        </CharString>
        <CharString name="Etilde">
          -18 callgsubr
          54 42 25 42 hstemhm
          hintmask 11100000
          -107 callsubr
          534 -62 callsubr
          hintmask 00011000
          -9 579 rmoveto
          -106 callgsubr
        </CharString>
        <CharString name="Euro">
          662 -20 36 248 36 84 36 247 36 hstem
          601 -8 rmoveto
          37 149 rlineto
          7 2 -4 5 -7 hhcurveto
          -18 hlineto
          -6 -6 -4 -6 -2 hvcurveto
          -70 -26 -68 -57 -69 hhcurveto
          -65 -49 38 54 -22 hvcurveto
          -20 47 0 53 8 56 rrcurveto
          269 hlineto
          5 6 3 5 3 hvcurveto
          8 16 rlineto
          6 3 -5 6 -7 hhcurveto
          -276 hlineto
          9 42 12 42 rlineto
          309 hlineto
          5 6 3 5 2 hvcurveto
          8 16 rlineto
          6 3 -4 6 -8 hhcurveto
          -309 hlineto
          19 55 28 54 43 46 rrcurveto
          54 49 67 38 65 hhcurveto
          69 41 -56 -70 -10 hvcurveto
          -6 -1 4 -5 7 hhcurveto
          18 hlineto
          6 7 5 7 2 hvcurveto
          37 149 rlineto
          7 1 -4 5 -6 hhcurveto
          -6 hlineto
          -3 -4 -1 -3 -3 hvcurveto
          -46 -41 rlineto
          29 -26 -39 16 -47 hhcurveto
          -83 -87 -42 -64 -69 hvcurveto
          -55 -52 -42 -61 -27 -64 rrcurveto
          -52 82 callgsubr
          51 hlineto
          -5 -14 -4 -14 -4 -14 -3 -14 -3 -14 -2 -14 rrcurveto
          -47 82 callgsubr
          56 hlineto
          -5 -65 11 -61 29 -51 rrcurveto
          -65 37 66 -42 83 hhcurveto
          47 48 17 28 40 hvcurveto
          26 -41 rlineto
          -3 1 3 -1 4 hhcurveto
          5 hlineto
          7 6 5 7 2 hvcurveto
          endchar
        </CharString>
        <CharString name="F">
          764 0 36 286 36 285 36 hstem
          798 473 rmoveto
          19 180 rlineto
          26 3 -8 0 -22 hhcurveto
          -505 0 callgsubr
          0 0 4 4 14 vhcurveto
          62 250 rlineto
          102 hlineto
          74 7 -16 -27 -14 -4 -19 -3 -14 hvcurveto
          -2 -5 -1 -4 -3 vvcurveto
          -15 12 0 9 16 3 3 17 4 vhcurveto
          54 217 rlineto
          3 13 1 2 3 vvcurveto
          15 -12 0 -9 -18 -1 -4 -19 -4 vhcurveto
          -76 -20 -25 -18 -82 hhcurveto
          -95 hlineto
          62 250 rlineto
          35 9 6 0 33 hhcurveto
          145 hlineto
          118 27 -30 -79 hvcurveto
          -23 -5 -41 -4 98 callsubr
        </CharString>
        <CharString name="G">
          36 callgsubr
          hstem
          171 92 vstem
          -101 callgsubr
          endchar
        </CharString>
        <CharString name="Gacute">
          36 callgsubr
          107 callgsubr
          171 92 hintmask 11100100
          -101 callgsubr
          hintmask 00011000
          -56 604 -104 callgsubr
        </CharString>
        <CharString name="Gamma">
          735 0 36 607 36 hstem
          769 473 rmoveto
          19 180 rlineto
          26 3 -8 0 -22 hhcurveto
          -476 0 callgsubr
          5 0 2 4 14 vhcurveto
          133 533 rlineto
          35 9 6 0 33 hhcurveto
          127 hlineto
          117 17 -36 -70 hvcurveto
          -32 -5 -32 -7 98 callsubr
        </CharString>
        <CharString name="Gbreve">
          36 callgsubr
          40 43 134 -20 123 callgsubr
          hintmask 11100100
          -101 callgsubr
          hintmask 00011000
          -42 644 -88 callgsubr
        </CharString>
        <CharString name="Gcaron">
          36 callgsubr
          123 callgsubr
          vstemhm
          -101 callgsubr
          -84 571 -74 callsubr
        </CharString>
        <CharString name="Gcedilla">
          904 90 callsubr
          36 224 36 391 36 hstem
          171 92 vstem
          -101 callgsubr
          -412 -371 rmoveto
          -92 callgsubr
        </CharString>
        <CharString name="Gcircumflex">
          36 callgsubr
          123 callgsubr
          vstemhm
          -101 callgsubr
          -104 490 -63 callsubr
        </CharString>
        <CharString name="Gcommaaccent">
          904 90 callsubr
          36 224 36 391 36 123 callgsubr
          hintmask 00111100
          -101 callgsubr
          hintmask 11000000
          -412 -371 rmoveto
          -92 callgsubr
        </CharString>
        <CharString name="Gdotaccent">
          36 callgsubr
          50 115 123 callgsubr
          hintmask 11101000
          -101 callgsubr
          hintmask 00010000
          -167 559 -95 callsubr
        </CharString>
        <CharString name="H">
          57 callsubr
          hstem
          -98 callgsubr
          endchar
        </CharString>
        <CharString name="H_uni0303">
          57 callsubr
          50 42 25 42 hstemhm
          hintmask 11100000
          -98 callgsubr
          hintmask 00011000
          -126 159 rmoveto
          -106 callgsubr
        </CharString>
        <CharString name="Hbar">
          44 callsubr
          301 36 122 36 116 36 hstem
          941 669 rmoveto
          42 callsubr
          vhcurveto
          -38 -42 -4 -39 -40 -43 4 -39 hhcurveto
          -5 -16 -49 callgsubr
          17 34 22 0 -16 -4 0 -2 -4 -14 hvcurveto
          -20 -80 rlineto
          -323 hlineto
          19 76 rlineto
          33 8 6 7 65 hhcurveto
          20 11 0 22 42 callsubr
          hvcurveto
          -38 -42 -4 -39 -40 -43 4 -39 hhcurveto
          -5 -16 -49 callgsubr
          17 34 22 -9 callgsubr
          -19 -77 rlineto
          -75 hlineto
          -10 -10 -9 -9 -3 hvcurveto
          68 callsubr
          75 hlineto
          -105 -418 -60 callsubr
          68 270 rlineto
          323 hlineto
          -65 -260 -60 callsubr
          107 428 rlineto
          75 61 callgsubr
          -75 hlineto
          18 73 -8 callsubr
          -254 -296 rmoveto
          -323 hlineto
          30 122 rlineto
          323 hlineto
          endchar
        </CharString>
        <CharString name="Hbrevebelow">
          866 108 callgsubr
          73 36 301 36 274 36 hstemhm
          hintmask 00111000
          -98 callgsubr
          hintmask 11000000
          -365 -736 -88 callgsubr
        </CharString>
        <CharString name="Hcircumflex">
          57 callsubr
          hstemhm
          -98 callgsubr
          -183 83 -63 callsubr
        </CharString>
        <CharString name="Hdieresis">
          57 callsubr
          50 104 hstemhm
          hintmask 11100000
          -98 callgsubr
          hintmask 00010000
          -371 -11 callsubr
        </CharString>
        <CharString name="Hdotbelow">
          57 callsubr
          hstemhm
          -98 callgsubr
          -485 -801 -95 callsubr
        </CharString>
        <CharString name="I">
          46 callgsubr
          hstem
          -103 callgsubr
          endchar
        </CharString>
        <CharString name="I_J">
          1026 -20 28 -8 36 -28 28 28 97 486 36 hstemhm
          538 100 hintmask 01001000
          -103 callgsubr
          558 1 rmoveto
          4 -3 10 -11 vhcurveto
          -31 -36 -4 -32 -46 -51 4 -45 hhcurveto
          -8 -14 11 callsubr
          11 hlineto
          17 11 0 -2 18 hvcurveto
          27 -3 1 -3 -12 vvcurveto
          -4 0 -2 -4 -15 vhcurveto
          -114 -457 rlineto
          hintmask 00110100
          -81 -20 -64 -60 -56 hhcurveto
          -37 -40 18 40 -12 hvcurveto
          44 5 11 36 16 vvcurveto
          11 -6 27 -35 -27 -32 -19 -53 vhcurveto
          hintmask 10001000
          -63 55 -46 81 103 94 77 81 20 vhcurveto
          117 470 rlineto
          34 8 5 5 48 hhcurveto
          12 13 0 22 hvcurveto
          endchar
        </CharString>
        <CharString name="Iacute">
          46 callgsubr
          81 76 callsubr
          hintmask 11000000
          -103 callgsubr
          hintmask 00110000
          64 198 -104 callgsubr
        </CharString>
        <CharString name="Ibreve">
          46 callgsubr
          60 43 134 -20 hstemhm
          hintmask 11000000
          -103 callgsubr
          hintmask 00110000
          78 238 -88 callgsubr
        </CharString>
        <CharString name="Icaron">
          46 callgsubr
          hstemhm
          -103 callgsubr
          36 165 -74 callsubr
        </CharString>
        <CharString name="Icircumflex">
          46 callgsubr
          hstemhm
          -103 callgsubr
          16 84 -63 callsubr
        </CharString>
        <CharString name="Idblgrave">
          46 callgsubr
          92 callgsubr
          hintmask 11000000
          -103 callgsubr
          hintmask 00110000
          18 95 rmoveto
          -81 callsubr
          -176 hmoveto
          -81 callsubr
          endchar
        </CharString>
        <CharString name="Idieresis">
          46 callgsubr
          50 104 hstemhm
          hintmask 11000000
          -103 callgsubr
          hintmask 00100000
          -172 127 -72 callgsubr
        </CharString>
        <CharString name="Idieresisacute">
          46 callgsubr
          50 104 93 callsubr
          hintmask 11000000
          -103 callgsubr
          hintmask 00111000
          -172 127 -91 callsubr
          48 224 -104 callgsubr
        </CharString>
        <CharString name="Idotaccent">
          46 callgsubr
          70 115 hstemhm
          hintmask 11000000
          -103 callgsubr
          hintmask 00100000
          -48 153 -95 callsubr
        </CharString>
        <CharString name="Idotbelow">
          46 callgsubr
          hstemhm
          -103 callgsubr
          -286 -800 -95 callsubr
        </CharString>
        <CharString name="Igrave">
          46 callgsubr
          81 76 callsubr
          hintmask 11000000
          -103 callgsubr
          hintmask 00110000
          -38 102 -80 callsubr
        </CharString>
        <CharString name="Ihookabove">
          46 callgsubr
          91 117 callsubr
          hintmask 11000000
          -103 callgsubr
          hintmask 00110000
          17 220 -107 callgsubr
        </CharString>
        <CharString name="Imacron">
          46 callgsubr
          70 37 hstemhm
          hintmask 11000000
          -103 callgsubr
          hintmask 00100000
          76 108 -81 callgsubr
        </CharString>
        <CharString name="Imacron.alt">
          46 callgsubr
          70 37 hstemhm
          hintmask 11000000
          -103 callgsubr
          hintmask 00100000
          -10 108 50 callsubr
        </CharString>
        <CharString name="Iogonek">
          455 -211 47 164 30 callsubr
          hstem
          -30 callgsubr
          endchar
        </CharString>
        <CharString name="Iogonekacute">
          455 -211 47 164 30 callsubr
          81 76 callsubr
          hintmask 11100000
          -30 callgsubr
          hintmask 00011000
          259 981 -104 callgsubr
        </CharString>
        <CharString name="Iota">
          46 callgsubr
          hstem
          -103 callgsubr
          endchar
        </CharString>
        <CharString name="Itilde">
          46 callgsubr
          50 42 25 42 hstemhm
          hintmask 11000000
          -103 callgsubr
          hintmask 00110000
          73 160 rmoveto
          -106 callgsubr
        </CharString>
        <CharString name="J">
          88 callgsubr
          hstem
          129 100 vstem
          -54 callsubr
          endchar
        </CharString>
        <CharString name="J_uni030C.cap">
          617.07143 -20 28 56 97 311 -21 146 86 -36 36 hstemhm
          129 100 hintmask 11001100
          -54 callsubr
          122 -35 122 callgsubr
          hintmask 00110000
          -23 15 -11 21 18 6 5 5 6 vhcurveto
          -12 -52 -31 -44 -45 -36 rrcurveto
          -10 -8 -1 -1 -3 vvcurveto
          -6 6 -6 5 15 98 90 93 vhcurveto
          endchar
        </CharString>
        <CharString name="Jacute">
          88 callgsubr
          81 76 callsubr
          129 100 hintmask 11100100
          -54 callsubr
          hintmask 00011000
          68 197 -104 callgsubr
        </CharString>
        <CharString name="Jcircumflex">
          88 callgsubr
          hstemhm
          129 100 vstemhm
          -54 callsubr
          20 83 -63 callsubr
        </CharString>
        <CharString name="K">
          895 13 callgsubr
          hstem
          -82 callgsubr
          endchar
        </CharString>
        <CharString name="Kappa">
          895 13 callgsubr
          hstem
          -82 callgsubr
          endchar
        </CharString>
        <CharString name="Kcedilla">
          895 74 callgsubr
          hstem
          -82 callgsubr
          -353 -131 rmoveto
          -92 callgsubr
        </CharString>
        <CharString name="Kcommaaccent">
          895 56 callsubr
          -82 callgsubr
          hintmask 11000000
          -353 -131 rmoveto
          -92 callgsubr
        </CharString>
        <CharString name="L">
          735 13 callgsubr
          hstem
          -93 callgsubr
          endchar
        </CharString>
        <CharString name="L_uni0303">
          735 13 callgsubr
          50 42 25 42 hstemhm
          hintmask 11000000
          -93 callgsubr
          hintmask 00110000
          -103 580 rmoveto
          -106 callgsubr
        </CharString>
        <CharString name="Lacute">
          735 13 callgsubr
          81 76 callsubr
          hintmask 11000000
          -93 callgsubr
          hintmask 00110000
          -112 618 -104 callgsubr
        </CharString>
        <CharString name="Lambda">
          807 0 36 677 -20 hstem
          738 22 rmoveto
          14 -11 0 -15 -43 -2 8 23 -2 vhcurveto
          -59 619 rlineto
          25 -2 -5 2 -18 hhcurveto
          -22 -4 -6 -14 -8 hvcurveto
          -343 -574 -41 -68 -32 -12 -34 -3 rlinecurve
          -11 -1 -10 -1 -20 vvcurveto
          -10 8 -4 6 vhcurveto
          22 28 4 23 32 36 -4 31 hhcurveto
          5 15 0 21 14 -11 1 -6 hvcurveto
          -7 1 -33 2 27 vvcurveto
          13 12 21 2 3 vhcurveto
          287 480 48 -505 2 -13 rlineto
          -14 -15 -15 -50 -11 -14 0 -22 -4 3 -10 13 vhcurveto
          38 42 4 39 31 36 -4 30 hhcurveto
          6 14 0 22 hvcurveto
          endchar
        </CharString>
        <CharString name="Lcaron">
          735 0 36 436 -21 146 86 -36 36 hstemhm
          hintmask 10010000
          -93 callgsubr
          -16 386 122 callgsubr
          hintmask 01100000
          -23 15 -11 21 18 6 5 5 6 vhcurveto
          -12 -52 -31 -44 -45 -36 rrcurveto
          -10 -8 -1 -1 -3 vvcurveto
          -6 6 -6 5 15 98 90 93 vhcurveto
          endchar
        </CharString>
        <CharString name="Lcedilla">
          735 74 callgsubr
          hstem
          -93 callgsubr
          -330 -357 rmoveto
          -92 callgsubr
        </CharString>
        <CharString name="Lcommaaccent">
          735 56 callsubr
          -93 callgsubr
          hintmask 11000000
          -330 -357 rmoveto
          -92 callgsubr
        </CharString>
        <CharString name="Ldot">
          735 0 36 312 115 184 36 hstem
          -93 callgsubr
          42 168 -95 callsubr
        </CharString>
        <CharString name="Ldotbelow">
          735 108 callsubr
          -93 callgsubr
          -324 -380 -95 callsubr
        </CharString>
        <CharString name="Ldotbelowmacron">
          735 13 callgsubr
          70 37 hstemhm
          hintmask 11000000
          -93 callgsubr
          -324 -380 72 callgsubr
          234 908 -81 callgsubr
        </CharString>
        <CharString name="Lslash">
          735 13 callgsubr
          hstem
          255 301 vstem
          714 248 rmoveto
          15 -14 0 -7 -5 -6 0 -3 -3 vhcurveto
          -3 -3 -1 -1 -10 -25 rrcurveto
          -84 -33 -47 -111 -168 hhcurveto
          -106 hlineto
          -9 -10 0 2 -9 hvcurveto
          10 0 2 4 15 vhcurveto
          79 315 164 131 -20 26 -131 -103 42 169 rlineto
          34 8 6 10 81 hhcurveto
          10 hlineto
          17 13 25 callgsubr
          -45 -50 -4 -46 -40 -44 4 -39 hhcurveto
          -5 -16 -49 callgsubr
          17 34 22 -9 callgsubr
          -65 -260 -99 -78 22 -25 64 52 -55 -220 rlineto
          -32 -8 -5 -9 -20 callsubr
          -14 12 0 16 hvcurveto
          476 hlineto
          23 1 1 17 7 hvcurveto
          80 213 rlineto
          2 5 3 7 5 vvcurveto
          endchar
        </CharString>
        <CharString name="M">
          1042 13 callgsubr
          hstem
          -64 callsubr
          endchar
        </CharString>
        <CharString name="Mdotbelow">
          1042 108 callsubr
          -64 callsubr
          -568 -801 -95 callsubr
        </CharString>
        <CharString name="Mu">
          1042 13 callgsubr
          hstem
          -64 callsubr
          endchar
        </CharString>
        <CharString name="N">
          78 callsubr
          -99 callgsubr
          endchar
        </CharString>
        <CharString name="Nacute">
          17 callgsubr
          81 76 callsubr
          hintmask 11000000
          -99 callgsubr
          hintmask 00110000
          -135 197 -104 callgsubr
        </CharString>
        <CharString name="Ncaron">
          17 callgsubr
          hstemhm
          -99 callgsubr
          -163 164 -74 callsubr
        </CharString>
        <CharString name="Ncedilla">
          866 74 callgsubr
          hstem
          -99 callgsubr
          -492 -778 rmoveto
          -92 callgsubr
        </CharString>
        <CharString name="Ncommaaccent">
          866 56 callsubr
          -99 callgsubr
          hintmask 11000000
          -492 -778 rmoveto
          -92 callgsubr
        </CharString>
        <CharString name="Ndotaccent">
          17 callgsubr
          50 115 hstemhm
          hintmask 11000000
          -99 callgsubr
          hintmask 00100000
          -252 132 -95 callsubr
        </CharString>
        <CharString name="Ndotbelow">
          17 callgsubr
          hstemhm
          -99 callgsubr
          -485 -801 -95 callsubr
        </CharString>
        <CharString name="Ntilde">
          17 callgsubr
          50 42 25 42 hstemhm
          hintmask 11000000
          -99 callgsubr
          hintmask 00110000
          -126 159 rmoveto
          -106 callgsubr
        </CharString>
        <CharString name="Nu">
          78 callsubr
          -99 callgsubr
          endchar
        </CharString>
        <CharString name="O">
          1 callsubr
          hstem
          169 96 540 90 vstem
          -96 callgsubr
          endchar
        </CharString>
        <CharString name="OE">
          -49 callsubr
        </CharString>
        <CharString name="OE.dup">
          -49 callsubr
        </CharString>
        <CharString name="Oacute">
          1 callsubr
          61 -21 162 -20 10 callsubr
          hintmask 11001100
          -96 callgsubr
          hintmask 00110000
          16 404 -104 callgsubr
        </CharString>
        <CharString name="Obreve">
          1 callsubr
          40 43 134 -20 10 callsubr
          hintmask 11001100
          -96 callgsubr
          hintmask 00110000
          30 444 -88 callgsubr
        </CharString>
        <CharString name="Ocaron">
          1 callsubr
          10 callsubr
          vstemhm
          -96 callgsubr
          -12 371 -74 callsubr
        </CharString>
        <CharString name="Ocircumflex">
          1 callsubr
          10 callsubr
          vstemhm
          -96 callgsubr
          -32 290 -63 callsubr
        </CharString>
        <CharString name="Ocircumflexacute">
          1 callsubr
          331 -20 10 callsubr
          hintmask 11011000
          -96 callgsubr
          hintmask 00100000
          -32 290 -102 callgsubr
          41 243 -104 callgsubr
        </CharString>
        <CharString name="Ocircumflexdotbelow">
          1 callsubr
          10 callsubr
          vstemhm
          -96 callgsubr
          -32 290 -102 callgsubr
          -302 -884 -95 callsubr
        </CharString>
        <CharString name="Ocircumflexgrave">
          1 callsubr
          10 callsubr
          vstemhm
          -96 callgsubr
          -32 290 -78 callgsubr
        </CharString>
        <CharString name="Ocircumflexhookabove">
          1 callsubr
          352 -20 10 callsubr
          hintmask 11011000
          -96 callgsubr
          hintmask 00101000
          -32 290 -102 callgsubr
          129 235 -107 callgsubr
        </CharString>
        <CharString name="Ocircumflextilde">
          1 callsubr
          189 42 25 42 10 callsubr
          hintmask 11001100
          -96 callgsubr
          hintmask 00110000
          -32 290 -102 callgsubr
          97 235 rmoveto
          -106 callgsubr
        </CharString>
        <CharString name="Odblgrave">
          1 callsubr
          61 -21 194 -20 10 callsubr
          hintmask 11001100
          -96 callgsubr
          hintmask 00110000
          -30 301 rmoveto
          -81 callsubr
          -176 hmoveto
          -81 callsubr
          endchar
        </CharString>
        <CharString name="Odieresis">
          1 callsubr
          30 104 10 callsubr
          hintmask 11011000
          -96 callgsubr
          hintmask 00100000
          -220 333 -72 callgsubr
        </CharString>
        <CharString name="Odotbelow">
          1 callsubr
          10 callsubr
          vstemhm
          -96 callgsubr
          -334 -594 -95 callsubr
        </CharString>
        <CharString name="Ograve">
          1 callsubr
          61 -21 162 -20 10 callsubr
          hintmask 11001100
          -96 callgsubr
          hintmask 00110000
          -86 308 -80 callsubr
        </CharString>
        <CharString name="Ohookabove">
          1 callsubr
          71 -21 203 -20 10 callsubr
          hintmask 11001100
          -96 callgsubr
          hintmask 00110000
          -31 426 -107 callgsubr
        </CharString>
        <CharString name="Ohorn">
          64 callgsubr
          95 -20 hstem
          169 96 539 90 vstem
          -90 callsubr
          endchar
        </CharString>
        <CharString name="Ohornacute">
          64 callgsubr
          61 -21 55 -20 127 -20 hstemhm
          169 96 539 90 hintmask 11010110
          -90 callsubr
          hintmask 00101000
          2 511 -104 callgsubr
        </CharString>
        <CharString name="Ohorndotbelow">
          64 callgsubr
          95 -20 hstemhm
          169 96 539 90 vstemhm
          -90 callsubr
          -319 -487 -95 callsubr
        </CharString>
        <CharString name="Ohorngrave">
          64 callgsubr
          61 -21 55 -20 127 -20 hstemhm
          169 96 539 90 hintmask 11010110
          -90 callsubr
          hintmask 00101000
          -71 415 -80 callsubr
        </CharString>
        <CharString name="Ohornhookabove">
          64 callgsubr
          71 -21 45 -20 178 -20 hstemhm
          169 96 539 90 hintmask 11010110
          -90 callsubr
          hintmask 00101000
          -16 533 -107 callgsubr
        </CharString>
        <CharString name="Ohorntilde">
          64 callgsubr
          30 42 23 -20 22 42 hstemhm
          169 96 539 90 hintmask 11010110
          -90 callsubr
          hintmask 00101000
          40 473 rmoveto
          -106 callgsubr
        </CharString>
        <CharString name="Ohungarumlaut">
          1 callsubr
          61 -21 194 -20 10 callsubr
          hintmask 11001100
          -96 callgsubr
          hintmask 00110000
          -130 444 -83 callgsubr
        </CharString>
        <CharString name="Omacron">
          1 callsubr
          50 37 10 callsubr
          hintmask 11011000
          -96 callgsubr
          hintmask 00100000
          28 314 -81 callgsubr
        </CharString>
        <CharString name="Omega">
          -41 callgsubr
        </CharString>
        <CharString name="Omicron">
          1 callsubr
          hstem
          169 96 540 90 vstem
          -96 callgsubr
          endchar
        </CharString>
        <CharString name="Oogonek">
          897 671 32 hstem
          169 96 540 90 vstem
          -16 callsubr
          endchar
        </CharString>
        <CharString name="Oogonekacute">
          897 671 32 61 -21 162 -20 10 callsubr
          hintmask 10011000
          -16 callsubr
          hintmask 01100000
          16 404 -104 callgsubr
        </CharString>
        <CharString name="Orogate">
          897 67 callgsubr
          162 -109 105 -149 7 vhcurveto
          40 161 rlineto
          8 -6 6 -8 -7 -5 -5 -6 -2 vhcurveto
          -41 -164 rlineto
          -227 -10 -212 -226 -217 vvcurveto
          -150 102 -113 157 -7 vhcurveto
          -40 -160 112 callsubr
          42 164 rlineto
          220 9 218 212 228 vvcurveto
          -90 33 rmoveto
          -199 -151 -250 -203 -89 -97 58 159 231 160 210 190 86 104 -53 -156 vhcurveto
          endchar
        </CharString>
        <CharString name="Oslash">
          74 callsubr
          hstem
          169 79 568 79 vstem
          -59 callgsubr
          endchar
        </CharString>
        <CharString name="Oslash.dup">
          74 callsubr
          hstem
          169 79 568 79 vstem
          -59 callgsubr
          endchar
        </CharString>
        <CharString name="Oslashacute">
          74 callsubr
          37 76 callsubr
          169 79 568 79 hintmask 11110011
          -59 callgsubr
          hintmask 00001100
          5 402 rmoveto
          22 4 -14 17 -22 hhcurveto
          -11 -10 -6 -3 -3 hvcurveto
          -188 -112 -11 -7 -2 -1 -1 -6 rlinecurve
          -1 -5 6 -20 11 -2 rrcurveto
          hintmask 00010000
          3 3 -1 5 11 hvcurveto
          193 87 16 7 13 6 3 19 rlinecurve
          endchar
        </CharString>
        <CharString name="Otilde">
          1 callsubr
          30 42 25 42 10 callsubr
          hintmask 11001100
          -96 callgsubr
          hintmask 00110000
          25 366 rmoveto
          -106 callgsubr
        </CharString>
        <CharString name="P">
          -28 callsubr
        </CharString>
        <CharString name="Phi">
          838 0 36 102 30 348 29 102 36 hstem
          177 91 470 91 vstem
          829 373 rmoveto
          92 -99 69 -139 10 vhcurveto
          7 29 11 49 7 8 rrcurveto
          17 13 43 0 28 hhcurveto
          10 hlineto
          17 13 25 callgsubr
          -45 -49 -4 -45 -46 -50 4 -45 hhcurveto
          -6 -16 89 callsubr
          9 hlineto
          17 8 0 -2 18 hvcurveto
          22 -2 6 -1 -13 vvcurveto
          -4 -1 -4 -1 -6 vhcurveto
          -17 -72 rlineto
          -183 -13 -152 -109 -111 vvcurveto
          -82 86 -77 148 -11 14 callgsubr
          4 6 24 4 14 vhcurveto
          10 43 rlineto
          191 14 149 108 112 vvcurveto
          -325 142 rmoveto
          -87 -347 rlineto
          -57 5 -92 23 99 vvcurveto
          20 6 176 230 24 vhcurveto
          234 -127 rmoveto
          -52 -30 -152 -212 -17 vhcurveto
          87 349 rlineto
          73 -6 82 -28 -94 vvcurveto
          endchar
        </CharString>
        <CharString name="Pi">
          44 callsubr
          607 36 hstem
          940 665 rmoveto
          14 -11 0 -17 vhcurveto
          -627 -87 callsubr
          -131 -524 rlineto
          -36 -9 -5 -8 -65 hhcurveto
          -21 -11 -75 callsubr
          4 3 13 0 hvcurveto
          144 576 rlineto
          323 hlineto
          -141 -566 -51 callsubr
          536 rlineto
          33 8 7 callgsubr
          endchar
        </CharString>
        <CharString name="Psi">
          897 0 36 105 29 355 27 95 36 hstem
          265 75 vstem
          933 538 rmoveto
          71 callsubr
          vhcurveto
          -27 hlineto
          -55 -48 -30 -116 -31 hvcurveto
          -34 -125 -70 -91 -114 -20 108 433 rcurveline
          34 8 6 10 81 hhcurveto
          10 hlineto
          17 13 25 callgsubr
          -45 -49 -4 -45 -46 -50 4 -45 hhcurveto
          -6 -16 89 callsubr
          9 hlineto
          17 8 0 -2 18 hvcurveto
          22 -2 6 -1 -13 vvcurveto
          -4 -1 -5 -1 -5 vhcurveto
          -111 -446 rlineto
          -94 16 -13 79 46 vvcurveto
          13 3 37 9 39 vhcurveto
          4 17 6 23 26 vvcurveto
          87 -56 0 -20 vhcurveto
          -27 hlineto
          -15 -13 0 -14 -12 9 -1 9 -1 hvcurveto
          20 -3 15 -13 -43 vvcurveto
          -23 -6 -24 -4 -15 vhcurveto
          -7 -30 -2 -31 -16 vvcurveto
          -137 98 -41 77 -8 14 callgsubr
          8 10 38 11 40 vhcurveto
          149 12 110 91 42 152 12 42 21 78 64 9 rrcurveto
          6 1 10 1 12 vvcurveto
          endchar
        </CharString>
        <CharString name="Q">
          897 -194 97 77 32 111 28 520 32 hstem
          169 89 117 28 403 89 vstem
          805 hmoveto
          8 -7 6 -7 -10 -3 -8 -5 -1 vhcurveto
          -79 -27 -63 -19 -32 hhcurveto
          -43 -17 25 79 -12 hvcurveto
          183 70 129 179 173 vvcurveto
          167 -116 107 -156 -233 -221 -231 -222 -155 109 -115 165 23 35 2 12 42 vhcurveto
          -1 -20 -1 -22 -20 vvcurveto
          -45 3 -81 87 122 52 178 16 vhcurveto
          1 454 rmoveto
          -103 -49 -212 -179 -94 vhcurveto
          55 -11 -20 51 -65 hhcurveto
          -52 -55 -45 -56 -5 0 -11 4 -9 hvcurveto
          -110 42 -11 110 49 vvcurveto
          203 153 242 204 89 102 -56 -161 vhcurveto
          -262 -424 rmoveto
          -9 -24 -34 -9 -35 hhcurveto
          -16 -32 0 39 35 38 37 42 48 13 -35 -58 hvcurveto
          endchar
        </CharString>
        <CharString name="R">
          -69 callsubr
          endchar
        </CharString>
        <CharString name="Racute">
          -4 callgsubr
          81 -21 162 -20 48 callgsubr
          hintmask 0010100110000000
          -84 callgsubr
          hintmask 0101000100000000
          -70 callgsubr
          hintmask 1001100010000000
          -61 callgsubr
          hintmask 0000011000000000
          84 321 -104 callgsubr
        </CharString>
        <CharString name="Rcaron">
          -69 callsubr
          hintmask 00000000
          56 288 -74 callsubr
        </CharString>
        <CharString name="Rcedilla">
          852 90 callsubr
          79 callsubr
          hintmask 0000101110000000
          -84 callgsubr
          hintmask 0001010100000000
          -70 callgsubr
          hintmask 1110011010000000
          -61 callgsubr
          -273 -654 rmoveto
          -92 callgsubr
        </CharString>
        <CharString name="Rcommaaccent">
          852 90 callsubr
          79 callsubr
          hintmask 0000101110000000
          -84 callgsubr
          hintmask 0001010100000000
          -70 callgsubr
          hintmask 0010011010000000
          -61 callgsubr
          hintmask 1100000000000000
          -273 -654 rmoveto
          -92 callgsubr
        </CharString>
        <CharString name="Rdblgrave">
          -4 callgsubr
          81 -21 194 -20 48 callgsubr
          hintmask 0010100110000000
          -84 callgsubr
          hintmask 0101000100000000
          -70 callgsubr
          hintmask 1001100010000000
          -61 callgsubr
          hintmask 0000011000000000
          8 218 rmoveto
          -81 callsubr
          -176 hmoveto
          -81 callsubr
          endchar
        </CharString>
        <CharString name="Rdotaccent">
          -4 callgsubr
          70 115 48 callgsubr
          hintmask 00101011
          -84 callgsubr
          hintmask 01010010
          -70 callgsubr
          hintmask 10011001
          -61 callgsubr
          hintmask 00000100
          -28 276 -95 callsubr
        </CharString>
        <CharString name="Rdotbelow">
          -69 callsubr
          hintmask 00000000
          -266 -677 -95 callsubr
        </CharString>
        <CharString name="Rdotbelowmacron">
          -4 callgsubr
          70 37 48 callgsubr
          hintmask 00101011
          -84 callgsubr
          hintmask 01010010
          -70 callgsubr
          hintmask 10011001
          -61 callgsubr
          -266 -677 -97 callsubr
          hintmask 00000100
          362 908 -81 callgsubr
        </CharString>
        <CharString name="Rho">
          -28 callsubr
        </CharString>
        <CharString name="S">
          114 callsubr
          hstem
          69 callsubr
          vstem
          616 228 rmoveto
          -100 callgsubr
          rlineto
          -21 18 44 -49 117 hhcurveto
          145 117 130 118 hvcurveto
          endchar
        </CharString>
        <CharString name="S_S">
          1324 -20 36 655 32 hstem
          69 callsubr
          265 68 261 68 vstem
          616 228 rmoveto
          -100 callgsubr
          rlineto
          -21 18 44 -49 117 hhcurveto
          145 117 130 118 hvcurveto
          662 hmoveto
          -100 callgsubr
          rlineto
          -21 18 44 -49 117 hhcurveto
          145 117 130 118 hvcurveto
          endchar
        </CharString>
        <CharString name="Sacute">
          114 callsubr
          107 callgsubr
          69 callsubr
          hintmask 11001100
          616 228 rmoveto
          -100 callgsubr
          rlineto
          -21 18 44 -49 117 hhcurveto
          145 117 130 118 hvcurveto
          hintmask 00110000
          88 638 -104 callgsubr
        </CharString>
        <CharString name="Scaron">
          662 -20 52 callsubr
          vstemhm
          616 228 rmoveto
          -100 callgsubr
          rlineto
          -21 18 44 -49 117 hhcurveto
          145 117 130 118 hvcurveto
          60 605 -74 callsubr
        </CharString>
        <CharString name="Scedilla">
          114 callsubr
          hstem
          69 callsubr
          vstem
          616 228 rmoveto
          -100 callgsubr
          14 -17 31 -34 70 -13 rlinecurve
          -4 -18 -5 -20 -5 callgsubr
          2 7 2 9 3 9 rrcurveto
          140 6 112 127 115 vvcurveto
          endchar
        </CharString>
        <CharString name="Scircumflex">
          662 -20 52 callsubr
          vstemhm
          616 228 rmoveto
          -100 callgsubr
          rlineto
          -21 18 44 -49 117 hhcurveto
          145 117 130 118 hvcurveto
          40 524 -63 callsubr
        </CharString>
        <CharString name="Sdotbelow">
          662 -20 52 callsubr
          vstemhm
          616 228 rmoveto
          -100 callgsubr
          rlineto
          -21 18 44 -49 117 hhcurveto
          145 117 130 118 hvcurveto
          -262 -360 -95 callsubr
        </CharString>
        <CharString name="Sigma">
          838 0 46 601 36 hstem
          796 226 rmoveto
          14 -14 0 -7 -16 0 -1 -22 -9 vhcurveto
          -147 -61 -68 -24 -162 hhcurveto
          -270 hlineto
          315 279 rlineto
          10 9 0 5 3 vvcurveto
          0 0 5 -6 12 vhcurveto
          -140 288 rlineto
          252 hlineto
          151 47 -22 -109 -8 -3 -38 0 hvcurveto
          -17 11 0 10 19 1 7 17 2 vhcurveto
          19 180 rlineto
          26 3 -8 0 -22 hhcurveto
          -558 -34 callgsubr
          0 0 -4 5 -10 hvcurveto
          161 -334 -316 -282 rlineto
          -11 -10 -1 -1 -6 vvcurveto
          -14 11 0 17 vhcurveto
          558 hlineto
          23 1 1 17 7 hvcurveto
          75 194 rlineto
          4 9 40 callgsubr
          endchar
        </CharString>
        <CharString name="T">
          54 callsubr
          hstem
          -98 callsubr
          endchar
        </CharString>
        <CharString name="T_uni0303">
          54 callsubr
          57 42 25 42 hstemhm
          hintmask 11000000
          -98 callsubr
          hintmask 00110000
          -77 359 rmoveto
          -106 callgsubr
        </CharString>
        <CharString name="T_uni0308">
          54 callsubr
          57 104 hstemhm
          hintmask 11000000
          -98 callsubr
          hintmask 00100000
          -322 326 -72 callgsubr
        </CharString>
        <CharString name="Tau">
          54 callsubr
          hstem
          -98 callsubr
          endchar
        </CharString>
        <CharString name="Tcaron">
          54 callsubr
          hstemhm
          -98 callsubr
          -114 364 -74 callsubr
        </CharString>
        <CharString name="Tcedilla">
          54 callsubr
          hstem
          878 469 rmoveto
          26 179 rlineto
          1 9 40 callgsubr
          71 callsubr
          vhcurveto
          -587 hlineto
          -22 -3 0 -18 -6 hvcurveto
          -65 -183 rlineto
          -2 -4 -2 -6 -5 vvcurveto
          -14 15 0 6 16 1 1 26 9 vhcurveto
          114 42 24 53 127 hhcurveto
          74 hlineto
          9 10 0 -2 9 hvcurveto
          -9 -1 -8 -3 -13 vhcurveto
          76 callgsubr
          -38 -9 -6 -10 -91 hhcurveto
          -16 -34 callgsubr
          -11 9 -3 8 39 41 2 1 41 hvcurveto
          -4 -15 -10 -39 -4 28 callsubr
          12 5 19 3 17 rrcurveto
          -1 41 42 -2 40 hhcurveto
          8 14 46 callsubr
          -15 hlineto
          -16 -31 2 -3 hhcurveto
          -31 3 0 4 12 vvcurveto
          4 0 2 4 15 vhcurveto
          132 529 7 30 7 1 14 1 rlinecurve
          1 6 31 0 19 hhcurveto
          108 39 -5 -78 -10 -2 -28 -5 -39 hvcurveto
          -3 -16 110 callgsubr
          -15 14 0 7 14 6 1 22 3 vhcurveto
          endchar
        </CharString>
        <CharString name="Tdotbelow">
          54 callsubr
          hstemhm
          -98 callsubr
          -436 -601 -95 callsubr
        </CharString>
        <CharString name="Theta">
          897 -20 30 295 75 295 28 hstem
          169 86 554 86 vstem
          19 callgsubr
          167 -116 107 -156 -233 -221 -231 -222 -155 109 -115 165 225 227 216 233 vhcurveto
          -86 26 rmoveto
          -222 -162 -223 -197 -109 -86 76 140 207 157 242 204 94 99 -62 -158 vhcurveto
          -86 -162 rmoveto
          22 89 rlineto
          4 14 0 3 0 vvcurveto
          15 -16 0 -5 -7 -9 0 -10 -4 vhcurveto
          -1 -3 -5 -18 -3 vvcurveto
          -318 hlineto
          4 14 40 callgsubr
          15 -16 0 -5 -17 -2 -5 -15 -4 vhcurveto
          -24 -95 rlineto
          -1 -3 -1 -8 -3 vvcurveto
          -13 15 -1 5 7 9 0 10 4 vhcurveto
          7 24 rlineto
          318 hlineto
          -2 -6 -2 -9 -4 vvcurveto
          -15 16 0 4 16 4 4 18 4 vhcurveto
          endchar
        </CharString>
        <CharString name="Thorn">
          735 178 36 305 36 hstem
          636 93 vstem
          729 405 rmoveto
          66 -45 84 -140 vhcurveto
          -142 hlineto
          6 26 11 43 4 7 rrcurveto
          9 6 6 7 62 hhcurveto
          15 13 0 22 6 -5 8 -10 -1 hvcurveto
          -116 -3 -118 3 rlineto
          -8 1 -12 -3 -19 28 callgsubr
          16 vhcurveto
          0 20 0 14 -2 vhcurveto
          21 -2 1 -1 -4 -33 -133 -530 rcurveline
          -36 -9 -2 -7 -69 hhcurveto
          -17 -13 0 -21 -11 9 -4 6 1 hvcurveto
          116 3 117 -3 rlineto
          5 -1 16 0 21 vvcurveto
          15 -12 0 -17 -28 -29 0 14 5 9 37 6 20 vhcurveto
          16 66 rlineto
          153 hlineto
          139 129 113 114 hvcurveto
          -93 1 rmoveto
          -95 -90 -97 -111 vhcurveto
          -118 hlineto
          76 305 rlineto
          124 hlineto
          98 21 -65 -48 hvcurveto
          endchar
        </CharString>
        <CharString name="Tlinebelow">
          838 -160 37 123 36 604 36 hstemhm
          hintmask 01100000
          -98 callsubr
          hintmask 10000000
          -303 -606 -81 callgsubr
        </CharString>
        <CharString name="U">
          25 callsubr
          hstem
          235 81 vstem
          -105 callsubr
          endchar
        </CharString>
        <CharString name="U_uni032F">
          866 -209 -21 134 43 33 36 631 36 101 callsubr
          hintmask 00111000
          -105 callsubr
          hintmask 11000000
          -371 -849 -54 callgsubr
        </CharString>
        <CharString name="Uacute">
          25 callsubr
          81 76 callsubr
          235 81 hintmask 11001000
          -105 callsubr
          hintmask 00110000
          -109 197 -104 callgsubr
        </CharString>
        <CharString name="Ubreve">
          25 callsubr
          60 43 134 -20 101 callsubr
          hintmask 11001000
          -105 callsubr
          hintmask 00110000
          -95 237 -88 callgsubr
        </CharString>
        <CharString name="Ucaron">
          25 callsubr
          101 callsubr
          vstemhm
          -105 callsubr
          -137 164 -74 callsubr
        </CharString>
        <CharString name="Ucircumflex">
          25 callsubr
          101 callsubr
          vstemhm
          -105 callsubr
          -157 83 -63 callsubr
        </CharString>
        <CharString name="Udblgrave">
          25 callsubr
          92 callgsubr
          235 81 hintmask 11001000
          -105 callsubr
          hintmask 00110000
          -155 94 rmoveto
          -81 callsubr
          -176 hmoveto
          -81 callsubr
          endchar
        </CharString>
        <CharString name="Udieresis">
          25 callsubr
          50 104 101 callsubr
          hintmask 11010000
          -105 callsubr
          hintmask 00100000
          -29 callsubr
          endchar
        </CharString>
        <CharString name="Udieresisacute">
          25 callsubr
          50 104 93 callsubr
          235 81 hintmask 11000100
          -105 callsubr
          hintmask 00111000
          -29 callsubr
          48 224 -104 callgsubr
        </CharString>
        <CharString name="Udieresiscaron">
          25 callsubr
          50 104 101 callsubr
          hintmask 11010000
          -105 callsubr
          hintmask 00100000
          -29 callsubr
          20 191 -74 callsubr
        </CharString>
        <CharString name="Udieresisgrave">
          25 callsubr
          50 104 93 callsubr
          235 81 hintmask 11000100
          -105 callsubr
          hintmask 00111000
          -29 callsubr
          -54 128 -80 callsubr
        </CharString>
        <CharString name="Udotbelow">
          25 callsubr
          101 callsubr
          vstemhm
          -105 callsubr
          -459 -801 -95 callsubr
        </CharString>
        <CharString name="Ugrave">
          25 callsubr
          81 76 callsubr
          235 81 hintmask 11001000
          -105 callsubr
          hintmask 00110000
          -211 101 -80 callsubr
        </CharString>
        <CharString name="Uhookabove">
          25 callsubr
          91 117 callsubr
          235 81 hintmask 11001000
          -105 callsubr
          hintmask 00110000
          -156 219 -107 callgsubr
        </CharString>
        <CharString name="Uhorn">
          1 callgsubr
          33 -33 36 115 -20 hstemhm
          hintmask 00110000
          -100 callsubr
          endchar
        </CharString>
        <CharString name="Uhornacute">
          1 callgsubr
          33 -33 36 81 -21 55 -20 127 -20 hstemhm
          hintmask 00101000
          -100 callsubr
          hintmask 00010100
          -167 142 -104 callgsubr
        </CharString>
        <CharString name="Uhorndotbelow">
          1 callgsubr
          33 -33 36 115 -20 hstemhm
          hintmask 00110000
          -100 callsubr
          hintmask 00000000
          -513 -856 -95 callsubr
        </CharString>
        <CharString name="Uhorngrave">
          1 callgsubr
          33 -33 36 81 -21 55 -20 127 -20 hstemhm
          hintmask 00101000
          -100 callsubr
          hintmask 00010100
          -239 46 -80 callsubr
        </CharString>
        <CharString name="Uhornhookabove">
          1 callgsubr
          33 -33 36 91 -21 45 -20 178 -20 hstemhm
          hintmask 00101000
          -100 callsubr
          hintmask 00010100
          -184 164 -107 callgsubr
        </CharString>
        <CharString name="Uhorntilde">
          1 callgsubr
          33 -33 36 50 42 23 -20 22 42 hstemhm
          hintmask 00101000
          -100 callsubr
          hintmask 00010100
          -128 104 rmoveto
          -106 callgsubr
        </CharString>
        <CharString name="Uhungarumlaut">
          25 callsubr
          92 callgsubr
          235 81 hintmask 11001000
          -105 callsubr
          hintmask 00110000
          -255 237 -83 callgsubr
        </CharString>
        <CharString name="Umacron">
          25 callsubr
          70 37 101 callsubr
          hintmask 11010000
          -105 callsubr
          hintmask 00100000
          -97 107 -81 callgsubr
        </CharString>
        <CharString name="Uogonek">
          866 -211 47 811 36 hstem
          235 81 vstem
          941 669 rmoveto
          9 -6 5 -9 vhcurveto
          -30 -36 -4 -32 21 callgsubr
          -13 14 -1 5 hvcurveto
          52 -2 8 -17 -21 vvcurveto
          -4 0 -6 -4 -16 vhcurveto
          -88 -352 rlineto
          -118 -29 -110 -95 -111 hhcurveto
          -54 -74 28 104 26 5 29 4 15 hvcurveto
          97 389 rlineto
          33 8 6 7 65 hhcurveto
          20 11 0 22 42 callsubr
          hvcurveto
          -38 -42 -4 -39 -40 -43 4 -39 hhcurveto
          -5 -16 -49 callgsubr
          17 34 22 -9 callgsubr
          -95 -379 rlineto
          -7 -27 0 -19 -9 vvcurveto
          -107 74 -72 99 -13 vhcurveto
          -38 -29 -31 -35 -9 -39 -40 callgsubr
          -53 callgsubr
          7 28 21 22 25 19 9 6 rcurveline
          146 3 117 130 26 104 88 355 rcurveline
          14 58 31 15 56 2 rrcurveto
          11 1 7 6 15 vvcurveto
          endchar
        </CharString>
        <CharString name="Upsilon">
          897 0 36 594 73 hstem
          509 54 333 45 vstem
          941 587 rmoveto
          57 -34 59 -78 -122 -89 -116 -129 -56 vhcurveto
          -1 hlineto
          2 14 0 12 17 vvcurveto
          35 0 167 -146 -118 -67 -127 -33 -11 13 0 5 19 3 8 11 4 vhcurveto
          52 18 55 27 49 hhcurveto
          102 9 -102 -52 -56 -10 -40 -11 -45 hvcurveto
          -63 -254 rlineto
          -35 -9 -5 -10 -81 hhcurveto
          -10 117 callgsubr
          0 0 -14 16 hvcurveto
          46 50 4 46 47 51 -4 46 hhcurveto
          8 14 32 callsubr
          0 0 4 4 14 vhcurveto
          63 253 13 52 21 86 55 76 rlinecurve
          46 34 49 45 68 hhcurveto
          56 28 -32 -34 -9 -3 -11 0 hvcurveto
          -12 12 0 6 13 17 0 55 vhcurveto
          endchar
        </CharString>
        <CharString name="Uring">
          25 callsubr
          30 35 106 35 101 callsubr
          232 109 callsubr
          hintmask 11001000
          -105 callsubr
          hintmask 00110110
          -219 152 -78 callsubr
          endchar
        </CharString>
        <CharString name="Utilde">
          25 callsubr
          50 42 25 42 101 callsubr
          hintmask 11001000
          -105 callsubr
          hintmask 00110000
          -100 159 rmoveto
          -106 callgsubr
        </CharString>
        <CharString name="V">
          866 1 -21 667 36 hstem
          973 669 rmoveto
          5 -5 9 -10 vhcurveto
          -23 -30 -4 -24 -32 -37 4 -31 hhcurveto
          -9 -11 -3 -19 -13 16 -1 0 8 30 -3 -24 -9 -5 -10 -3 -5 hvcurveto
          -2 -4 0 -1 -1 -2 rrcurveto
          0 -6 -9 -1 -2 vhcurveto
          -322 -490 -81 519 rlineto
          3 -2 10 0 vhcurveto
          24 43 3 15 15 13 0 22 7 -6 7 -10 vhcurveto
          -37 -42 -4 -38 -33 -37 4 -31 hhcurveto
          -5 -15 0 -21 -15 11 0 16 48 1 -7 -25 4 hvcurveto
          96 -610 rlineto
          -22 3 5 -3 19 hhcurveto
          22 4 6 15 10 hvcurveto
          371 563 42 64 32 15 43 4 rlinecurve
          10 1 12 1 20 vvcurveto
          endchar
        </CharString>
        <CharString name="W">
          100 callgsubr
          667 36 hstem
          -86 callgsubr
          endchar
        </CharString>
        <CharString name="Wacute">
          100 callgsubr
          667 36 81 76 callsubr
          hintmask 11000000
          -86 callgsubr
          hintmask 00110000
          -316 197 -104 callgsubr
        </CharString>
        <CharString name="Wcircumflex">
          100 callgsubr
          667 36 hstemhm
          -86 callgsubr
          -364 83 -63 callsubr
        </CharString>
        <CharString name="Wdieresis">
          100 callgsubr
          667 36 50 104 hstemhm
          hintmask 11000000
          -86 callgsubr
          hintmask 00100000
          -552 -11 callsubr
        </CharString>
        <CharString name="Wgrave">
          100 callgsubr
          667 36 81 76 callsubr
          hintmask 11000000
          -86 callgsubr
          hintmask 00110000
          -418 101 -80 callsubr
        </CharString>
        <CharString name="X">
          -45 callgsubr
        </CharString>
        <CharString name="Xi">
          779 0 68 97 -20 173 68 157 -21 86 68 hstem
          826 545 rmoveto
          20 117 rlineto
          71 callsubr
          vhcurveto
          -528 hlineto
          -21 -4 0 -18 -6 hvcurveto
          -34 -107 rlineto
          -4 -11 0 -4 0 vvcurveto
          -14 15 0 6 17 1 2 24 8 vhcurveto
          5 16 10 29 9 9 rrcurveto
          6 5 57 0 10 hhcurveto
          360 hlineto
          14 31 0 -2 13 hvcurveto
          7 -2 1 -1 -8 vvcurveto
          -6 -2 -21 -3 -16 vhcurveto
          -3 -15 rlineto
          -15 14 0 7 17 3 4 19 3 vhcurveto
          -92 -394 rmoveto
          71 callgsubr
          -17 -1 -3 -16 -5 vhcurveto
          -8 -23 -11 -32 -9 -14 rrcurveto
          -9 -6 -59 0 -14 hhcurveto
          -362 hlineto
          -17 -27 1 2 -16 hvcurveto
          -9 1 -1 0 10 vvcurveto
          12 6 35 1 6 vhcurveto
          1 3 2 10 3 vvcurveto
          71 callgsubr
          -13 -5 -1 -14 -4 vhcurveto
          -3 -13 -21 -114 -7 vvcurveto
          -16 9 0 19 vhcurveto
          540 hlineto
          22 2 0 15 5 hvcurveto
          7 19 36 106 11 vvcurveto
          -68 139 rmoveto
          29 116 rlineto
          1 6 2 4 3 vvcurveto
          15 -16 0 -5 -17 -2 -6 -11 -3 vhcurveto
          -1 -3 -3 -11 -4 -17 rrcurveto
          -324 hlineto
          2 7 6 21 5 vvcurveto
          15 -16 0 -5 -16 -3 -5 -15 -4 vhcurveto
          -29 -117 rlineto
          -2 -7 -1 -3 -3 vvcurveto
          -14 16 0 5 17 2 6 11 3 vhcurveto
          1 3 3 11 4 17 rrcurveto
          324 hlineto
          -2 -7 -6 -21 -5 vvcurveto
          -15 16 0 5 18 2 6 14 3 vhcurveto
          endchar
        </CharString>
        <CharString name="Y">
          78 callsubr
          -99 callsubr
          endchar
        </CharString>
        <CharString name="Yacute">
          17 callgsubr
          81 76 callsubr
          hintmask 11000000
          -99 callsubr
          hintmask 00110000
          -173 197 -104 callgsubr
        </CharString>
        <CharString name="Ycircumflex">
          17 callgsubr
          hstemhm
          -99 callsubr
          -221 83 -63 callsubr
        </CharString>
        <CharString name="Ydieresis">
          17 callgsubr
          50 104 hstemhm
          hintmask 11000000
          -99 callsubr
          hintmask 00100000
          -409 -11 callsubr
        </CharString>
        <CharString name="Ydotbelow">
          17 callgsubr
          hstemhm
          -99 callsubr
          -523 -801 -95 callsubr
        </CharString>
        <CharString name="Ygrave">
          17 callgsubr
          81 76 callsubr
          hintmask 11000000
          -99 callsubr
          hintmask 00110000
          -275 101 -80 callsubr
        </CharString>
        <CharString name="Yhookabove">
          17 callgsubr
          91 117 callsubr
          hintmask 11000000
          -99 callsubr
          hintmask 00110000
          -220 219 -107 callgsubr
        </CharString>
        <CharString name="Ytilde">
          17 callgsubr
          50 42 25 42 hstemhm
          hintmask 11000000
          -99 callsubr
          hintmask 00110000
          -164 159 rmoveto
          -106 callgsubr
        </CharString>
        <CharString name="Z">
          63 callgsubr
          hstem
          -79 callsubr
          endchar
        </CharString>
        <CharString name="Zacute">
          63 callgsubr
          81 76 callsubr
          hintmask 11000000
          -79 callsubr
          hintmask 00110000
          39 607 -104 callgsubr
        </CharString>
        <CharString name="Zcaron">
          63 callgsubr
          hstemhm
          -79 callsubr
          11 574 -74 callsubr
        </CharString>
        <CharString name="Zdotaccent">
          63 callgsubr
          70 115 hstemhm
          hintmask 11000000
          -79 callsubr
          hintmask 00100000
          -73 562 -95 callsubr
        </CharString>
        <CharString name="Zdotbelow">
          63 callgsubr
          hstemhm
          -79 callsubr
          -311 -391 -95 callsubr
        </CharString>
        <CharString name="Zeta">
          63 callgsubr
          hstem
          -79 callsubr
          endchar
        </CharString>
        <CharString name="a">
          -44 callsubr
          hstem
          4 callsubr
          vstem
          -105 callgsubr
          endchar
        </CharString>
        <CharString name="aacute">
          -44 callsubr
          80 -21 196 -20 2 callgsubr
          hintmask 11001100
          -105 callgsubr
          hintmask 00110000
          157 361 rmoveto
          -93 callsubr
        </CharString>
        <CharString name="abreve">
          87 callsubr
          134 -20 2 callgsubr
          hintmask 11001100
          -105 callgsubr
          hintmask 00110000
          22 callgsubr
          endchar
        </CharString>
        <CharString name="abreveacute">
          87 callsubr
          316 -20 2 callgsubr
          hintmask 11001100
          -105 callgsubr
          hintmask 00110000
          22 callgsubr
          -4 157 -104 callgsubr
        </CharString>
        <CharString name="abrevedotbelow">
          87 callsubr
          134 -20 2 callgsubr
          vstemhm
          -105 callgsubr
          22 callgsubr
          -306 -805 -95 callsubr
        </CharString>
        <CharString name="abrevegrave">
          87 callsubr
          134 -20 2 callgsubr
          hintmask 11001100
          -105 callgsubr
          hintmask 00110000
          22 callgsubr
          -27 61 rmoveto
          -2 -5 -16 -20 -12 -2 rrcurveto
          -3 -3 -1 5 -9 hvcurveto
          -149 87 -13 7 -10 6 7 19 rlinecurve
          22 7 22 17 22 hhcurveto
          11 7 -6 -3 2 hvcurveto
          132 -112 7 -7 2 -1 -2 -6 rlinecurve
          endchar
        </CharString>
        <CharString name="abrevehookabove">
          87 callsubr
          337 -20 2 callgsubr
          hintmask 11001100
          -105 callgsubr
          hintmask 00110000
          22 callgsubr
          -20 149 -107 callgsubr
        </CharString>
        <CharString name="abrevetilde">
          87 callsubr
          174 42 25 42 2 callgsubr
          hintmask 11000110
          -105 callgsubr
          hintmask 00111000
          22 callgsubr
          52 149 rmoveto
          -106 callgsubr
        </CharString>
        <CharString name="acaron">
          -44 callsubr
          2 callgsubr
          vstemhm
          -105 callgsubr
          160 360 -65 callsubr
        </CharString>
        <CharString name="acircumflex">
          -44 callsubr
          2 callgsubr
          vstemhm
          -105 callgsubr
          126 232 -76 callsubr
          endchar
        </CharString>
        <CharString name="acircumflexacute">
          -44 callsubr
          375 -20 -53 callsubr
          126 232 -102 callgsubr
          41 243 -104 callgsubr
        </CharString>
        <CharString name="acircumflexdotbelow">
          -44 callsubr
          2 callgsubr
          vstemhm
          -105 callgsubr
          126 232 -76 callsubr
          -248 -666 -95 callsubr
        </CharString>
        <CharString name="acircumflexgrave">
          -44 callsubr
          2 callgsubr
          vstemhm
          -105 callgsubr
          126 232 -78 callgsubr
        </CharString>
        <CharString name="acircumflexhookabove">
          -44 callsubr
          396 -20 -52 callsubr
          hintmask 00101000
          126 232 -102 callgsubr
          129 235 -107 callgsubr
        </CharString>
        <CharString name="acircumflextilde">
          -44 callsubr
          233 42 25 42 2 callgsubr
          hintmask 11001100
          -105 callgsubr
          hintmask 00110000
          126 232 -102 callgsubr
          97 235 rmoveto
          -106 callgsubr
        </CharString>
        <CharString name="acute">
          603 521 72 callsubr
          hstem
          603 663 rmoveto
          -93 callsubr
        </CharString>
        <CharString name="acute.cap">
          603 511 70 callsubr
          hstem
          611 613 -104 callgsubr
        </CharString>
        <CharString name="acute.dup">
          603 521 72 callsubr
          hstem
          603 663 rmoveto
          -93 callsubr
        </CharString>
        <CharString name="acute.ts1">
          603 521 -21 196 88 callsubr
          614 664 rmoveto
          16 -12 17 -20 vhcurveto
          hintmask 11000000
          -6 -1 -13 -2 -9 -8 -10 -8 rlinecurve
          -28 -25 -119 -104 rlineto
          -8 -6 -12 -9 -10 vvcurveto
          -9 10 -15 10 13 24 22 11 17 vhcurveto
          102 69 rlineto
          26 17 35 17 28 vvcurveto
          endchar
        </CharString>
        <CharString name="adblgrave">
          -44 callsubr
          81 -21 194 -20 2 callgsubr
          hintmask 11001100
          -105 callgsubr
          hintmask 00110000
          123 219 -89 callsubr
        </CharString>
        <CharString name="adieresis">
          -44 callsubr
          105 104 -53 callsubr
          -37 306 -55 callsubr
        </CharString>
        <CharString name="adotbelow">
          -44 callsubr
          2 callgsubr
          vstemhm
          -105 callgsubr
          -122 -434 -95 callsubr
        </CharString>
        <CharString name="ae">
          838 -9 callsubr
          hstem
          112 81 580 48 vstem
          -57 callgsubr
          endchar
        </CharString>
        <CharString name="ae.dup">
          838 -9 callsubr
          hstem
          112 81 580 48 vstem
          -57 callgsubr
          endchar
        </CharString>
        <CharString name="aeacute">
          838 -9 callsubr
          15 callgsubr
          112 81 580 48 hintmask 11100110
          -57 callgsubr
          hintmask 00011000
          240 283 rmoveto
          -93 callsubr
        </CharString>
        <CharString name="agrave">
          -44 callsubr
          80 -21 196 -20 2 callgsubr
          hintmask 11001100
          -105 callgsubr
          hintmask 00110000
          54 222 rmoveto
          -72 callsubr
        </CharString>
        <CharString name="ahookabove">
          -44 callsubr
          77 -21 203 -20 2 callgsubr
          hintmask 11001100
          -105 callgsubr
          hintmask 00110000
          117 330 -107 callgsubr
        </CharString>
        <CharString name="amacron">
          -44 callsubr
          139 37 -53 callsubr
          197 301 -81 callgsubr
        </CharString>
        <CharString name="ampersand">
          897 -20 28 296 28 101 28 60 84 81 28 hstem
          146 84 215 41 73 41 195 43 vstem
          838 298 rmoveto
          71 -36 52 -31 44 vhcurveto
          110 76 24 104 15 vvcurveto
          23 -18 11 -18 -27 -24 -22 -29 -18 10 -11 18 -4 vhcurveto
          -40 -83 -63 -35 -60 -33 rrcurveto
          -46 -26 -78 -43 -72 vvcurveto
          -52 43 -24 38 33 19 27 23 26 -18 9 -18 -21 -20 -14 -23 -8 vhcurveto
          -4 8 -3 8 10 vvcurveto
          57 63 32 71 35 vhcurveto
          42 -57 19 -38 -51 vvcurveto
          -49 -38 -237 -308 -110 -109 44 117 50 25 75 26 45 vhcurveto
          -22 25 36 -13 36 hhcurveto
          60 48 46 46 40 -31 25 -44 -40 -38 -13 -21 -34 hvcurveto
          105 63 154 104 41 39 -25 -57 5 vhcurveto
          -31 -4 -15 -24 -21 vvcurveto
          -28 22 -6 13 44 9 46 28 65 -48 54 -79 -117 -118 -127 -128 -31 7 -24 8 -18 vhcurveto
          -70 -67 -30 -90 -46 vvcurveto
          -102 104 -101 197 323 68 233 85 vhcurveto
          -393 104 rmoveto
          -31 -22 -39 -43 -28 -29 14 32 -14 vhcurveto
          27 25 39 28 38 hhcurveto
          34 0 -24 -7 hvcurveto
          endchar
        </CharString>
        <CharString name="anglearc">
          897 -80 -21 704 -20 hstem
          920 478 rmoveto
          4 16 -13 12 -17 -5 -149 -48 rcurveline
          -8 51 -15 47 -24 43 rrcurveto
          5 -3 -6 4 -7 hhcurveto
          -13 -14 -11 -13 -3 hvcurveto
          -2 -6 1 -5 2 -4 21 -39 14 -42 7 -45 -515 -164 rcurveline
          -11 -4 -9 -8 -2 -11 -3 -11 5 -8 8 -4 434 -164 rcurveline
          -29 -45 -36 -42 -40 -39 -4 -4 -4 -5 -1 -6 rrcurveto
          92 callsubr
          7 8 4 5 6 hvcurveto
          45 43 39 47 33 51 125 -48 rcurveline
          14 -5 19 12 4 16 3 11 -4 8 -9 4 -125 47 rcurveline
          27 51 21 52 14 54 13 54 5 52 -2 51 149 47 rcurveline
          10 4 9 8 3 11 rrcurveto
          -235 -227 rmoveto
          -12 -48 -19 -48 -25 -45 -374 141 rcurveline
          445 141 2 -45 -5 -48 -12 -48 rlinecurve
          endchar
        </CharString>
        <CharString name="angleleft">
          486 -229 -21 1000 88 callsubr
          569 726 rmoveto
          13 -10 12 -14 vhcurveto
          hintmask 11000000
          -5 -1 -11 -2 -5 -8 -6 -9 rlinecurve
          -15 -24 -269 -420 rlineto
          -7 -12 -12 -11 -15 vvcurveto
          -6 2 -7 1 -6 vhcurveto
          6 -45 22 -151 11 -74 8 -74 12 -74 rlinecurve
          4 -30 rlineto
          -18 3 5 -14 17 hhcurveto
          18 7 15 13 9 -3 10 -1 9 hvcurveto
          -32 230 -21 145 -6 43 rlineto
          4 -2 7 5 vvcurveto
          10 14 17 8 13 vhcurveto
          204 318 49 77 rlineto
          10 15 18 20 16 vvcurveto
          endchar
        </CharString>
        <CharString name="angleright">
          486 -229 -21 1001 -20 hstem
          393 253 rmoveto
          7 -2 7 -1 6 vhcurveto
          -6 49 -24 165 -32 233 rlineto
          14 -3 -4 17 -18 hhcurveto
          0 -4 0 -2 -1 vhcurveto
          -10 -2 -8 -8 -1 -11 rrcurveto
          -5 vlineto
          -13 4 -12 1 -13 vhcurveto
          50 -358 7 -48 rlineto
          1 -5 2 -7 -6 vvcurveto
          -6 -4 -5 -3 -6 vhcurveto
          -13 -20 -252 -393 rlineto
          -10 -17 -21 -23 -17 vvcurveto
          -13 9 -12 15 13 8 11 10 6 vhcurveto
          97 152 185 288 rlineto
          9 13 11 13 16 vvcurveto
          endchar
        </CharString>
        <CharString name="aogonek">
          603 67 callsubr
          hstemhm
          119 76 254 92 -76 76 hintmask 11110100
          -35 callsubr
          hintmask 00001000
          68 13 -87 -10 -3 -1 -4 -17 callsubr
          endchar
        </CharString>
        <CharString name="aogonekacute">
          603 67 callsubr
          15 callgsubr
          119 76 254 92 -76 76 hintmask 11100101
          -35 callsubr
          hintmask 00000010
          68 13 -87 -10 -3 -1 -4 -17 callsubr
          hintmask 00011000
          157 361 rmoveto
          -93 callsubr
        </CharString>
        <CharString name="aring">
          -44 callsubr
          85 35 106 35 hstemhm
          119 76 149 48 73 76 -23 48 hintmask 11001010
          -105 callgsubr
          hintmask 00110101
          72 332 -78 callsubr
          endchar
        </CharString>
        <CharString name="aringacute">
          -44 callsubr
          85 106 callgsubr
          hstemhm
          119 76 150 48 72 76 -22 48 hintmask 1100010100000000
          -105 callgsubr
          hintmask 0011101010000000
          73 332 -78 callsubr
          64 214 -104 callgsubr
        </CharString>
        <CharString name="asciicircum">
          556 583 -21 hstem
          707 584 rmoveto
          -243 160 -323 -160 6 -22 301 123 242 -123 rlineto
          endchar
        </CharString>
        <CharString name="asciitilde">
          556 193 43 28 43 hstem
          627 290 -2 callsubr
        </CharString>
        <CharString name="asciitilde.low">
          556 0 43 28 43 hstem
          579 97 -2 callsubr
        </CharString>
        <CharString name="asterisk">
          603 340 -21 431 -20 hstem
          215 438 vstem
          607 449 rmoveto
          4 0 9 -18 9 vhcurveto
          -126 63 160 66 rlineto
          12 5 18 7 22 vvcurveto
          16 -12 8 -11 -7 -20 -12 -8 -13 vhcurveto
          -135 -79 51 152 rlineto
          5 13 40 callgsubr
          13 -11 8 -13 -7 -24 -2 -36 -6 vhcurveto
          -24 -153 -108 89 rlineto
          8 -10 -2 2 -7 hhcurveto
          -16 -21 -17 -20 -9 2 -6 14 -7 hvcurveto
          127 -64 -160 -66 rlineto
          -10 -4 -20 -8 -22 vvcurveto
          -12 9 -12 14 8 6 4 3 5 vhcurveto
          157 92 -52 -153 rlineto
          -5 -13 0 -4 0 vvcurveto
          -13 10 -8 14 3 28 0 37 6 vhcurveto
          24 154 108 -89 rlineto
          -7 9 3 -3 7 hhcurveto
          18 20 19 19 hvcurveto
          endchar
        </CharString>
        <CharString name="asterisk.math">
          603 57 -21 430 -20 hstem
          535 167 rmoveto
          12 -10 6 -8 3 vhcurveto
          -24 12 -64 33 -12 6 -14 5 -10 8 rlinecurve
          23 5 24 14 23 8 rrcurveto
          42 17 76 16 40 vvcurveto
          11 -9 11 -13 -14 -15 -11 -7 -11 vhcurveto
          -135 -80 13 44 17 43 15 44 rlinecurve
          3 12 8 13 13 vvcurveto
          13 -12 8 -11 -44 2 -58 -30 -4 vhcurveto
          -5 -34 -7 -34 -4 -34 -27 21 -26 24 -27 22 -23 19 rcurveline
          6 -7 -5 6 -11 hhcurveto
          -20 -18 -20 -19 -12 10 -6 8 -3 hvcurveto
          24 -12 64 -33 12 -6 14 -5 10 -8 rlinecurve
          -23 -5 -24 -14 -23 -8 rrcurveto
          -42 -17 -76 -16 -40 vvcurveto
          -11 9 -11 13 14 15 11 7 11 vhcurveto
          135 80 -13 -44 -17 -43 -15 -44 rlinecurve
          -3 -12 -8 -13 -13 vvcurveto
          -12 12 -9 11 44 -2 58 30 4 vhcurveto
          5 34 7 34 4 34 27 -21 26 -24 27 -22 23 -19 rcurveline
          -6 7 5 -6 11 hhcurveto
          20 18 20 19 hvcurveto
          endchar
        </CharString>
        <CharString name="at">
          897 -10 28 109 28 384 28 109 28 hstem
          172 42 103 71 387 42 38 42 vstem
          817 72 rmoveto
          12 -10 0 -18 -17 -2 0 -2 -5 vhcurveto
          -17 -42 -123 -47 -145 hhcurveto
          -156 -85 107 135 214 206 202 199 140 96 -99 -143 -32 -31 -247 -99 -17 -1 13 14 6 0 7 4 16 hvcurveto
          62 246 2 13 rlineto
          13 -11 0 -17 vhcurveto
          -27 hlineto
          28 -12 -39 56 -84 hhcurveto
          -134 -134 -134 -138 -101 71 -67 94 44 54 16 48 55 hvcurveto
          -45 5 41 -19 39 hhcurveto
          133 44 243 62 152 -108 120 -169 -226 -222 -216 -226 -143 95 -129 187 178 157 63 8 20 hvcurveto
          4 2 4 4 5 vvcurveto
          -163 206 rmoveto
          -41 -10 -81 -82 -79 hhcurveto
          -63 -33 58 68 125 102 133 96 84 23 -86 -17 -3 -1 -3 -2 -8 hvcurveto
          endchar
        </CharString>
        <CharString name="atilde">
          -44 callsubr
          103 42 25 42 2 callgsubr
          hintmask 11001100
          -105 callgsubr
          hintmask 00110000
          190 337 rmoveto
          -106 callgsubr
        </CharString>
        <CharString name="b">
          544 -50 callgsubr
          206 48 hstem
          135 66 244 76 vstem
          521 278 rmoveto
          100 -63 63 -79 -54 -42 -33 -18 -23 vhcurveto
          69 275 -73 callgsubr
          -6 0 -2 -4 -14 vhcurveto
          -97 -386 8 callsubr
        </CharString>
        <CharString name="backslash">
          585 750 -20 hstem
          450 -225 rmoveto
          0 1 6 -2 12 vhcurveto
          -139 932 rlineto
          13 -1 -2 12 -17 hhcurveto
          -10 -16 -8 -17 -5 hvcurveto
          0 -1 -6 2 -12 vhcurveto
          139 -932 rlineto
          -13 2 2 -12 17 hhcurveto
          10 16 8 17 4 hvcurveto
          endchar
        </CharString>
        <CharString name="baht">
          823 0 36 305 28 278 36 hstem
          682 93 vstem
          775 215 rmoveto
          81 -75 52 -86 9 vhcurveto
          115 22 99 75 89 vvcurveto
          77 -76 63 -119 vhcurveto
          -41 hlineto
          9 36 rlineto
          10 3 -6 8 -10 hhcurveto
          -10 -10 -8 -10 -3 hvcurveto
          -9 -36 rlineto
          -267 -2 callgsubr
          260 hlineto
          -9 -36 rlineto
          68 callsubr
          10 10 8 10 2 hvcurveto
          9 36 rlineto
          70 hlineto
          155 129 113 102 hvcurveto
          -37 328 rmoveto
          -86 -95 -88 -124 vhcurveto
          -5 hlineto
          69 278 rlineto
          35 hlineto
          89 31 -57 -47 hvcurveto
          -260 -174 rmoveto
          -119 hlineto
          60 243 rlineto
          35 9 6 0 33 hhcurveto
          80 hlineto
          135 -425 rmoveto
          -103 -105 -83 -110 vhcurveto
          -37 hlineto
          77 305 rlineto
          51 hlineto
          80 44 -52 -67 hvcurveto
          -211 119 rmoveto
          -77 -305 rlineto
          -87 hlineto
          -9 -10 0 2 -9 hvcurveto
          10 0 2 4 15 vhcurveto
          69 276 rlineto
          endchar
        </CharString>
        <CharString name="bar">
          339 750 -20 hstem
          141 -213 rmoveto
          5 callgsubr
          endchar
        </CharString>
        <CharString name="bigcircle">
          683 0 48 587 48 hstem
          -50 callsubr
          endchar
        </CharString>
        <CharString name="blanksymbol">
          544 -50 callgsubr
          206 48 hstem
          135 66 244 76 vstem
          521 278 rmoveto
          100 -63 63 -79 -54 -42 -33 -18 -23 vhcurveto
          40 161 110 81 4 3 4 5 1 5 rlinecurve
          10 2 -6 8 -10 hhcurveto
          -4 -5 -1 -3 -4 hvcurveto
          -79 -59 16 65 -73 callgsubr
          -6 0 -2 -4 -14 vhcurveto
          -19 -77 -96 -71 -5 -3 -3 -5 -1 -5 rlinecurve
          -10 -3 101 callgsubr
          5 4 2 3 4 hvcurveto
          67 49 -66 -261 8 callsubr
        </CharString>
        <CharString name="braceleft">
          585 -250 28 hstem
          431 -236 rmoveto
          13 3 -9 1 -5 hhcurveto
          -119 6 -6 67 5 26 65 257 rcurveline
          10 46 -23 46 -76 24 126 35 16 63 12 48 45 180 rcurveline
          15 59 6 25 44 28 33 21 38 11 39 2 13 1 8 0 3 13 rrcurveto
          14 4 -10 0 -14 hhcurveto
          -114 -109 -48 -78 -21 hvcurveto
          -58 -234 -6 -23 -9 -35 -34 -25 rlinecurve
          -47 -33 -41 -8 -34 -2 -13 -1 -8 0 -3 -13 rrcurveto
          -13 -4 10 -1 5 hhcurveto
          109 -6 12 -59 -20 vvcurveto
          -12 -1 -2 -8 -35 vhcurveto
          -51 -204 -9 -35 -10 -39 50 -38 rlinecurve
          -26 35 68 -10 41 hhcurveto
          14 10 0 14 3 hvcurveto
          endchar
        </CharString>
        <CharString name="braceright">
          585 722 28 hstem
          553 250 rmoveto
          13 3 -10 1 -5 hhcurveto
          -115 6 -9 70 6 27 55 222 rcurveline
          13 52 9 35 -49 38 rrcurveto
          27 -36 -70 9 -38 hhcurveto
          -15 -10 0 -14 -4 hvcurveto
          -13 -3 10 -1 5 hhcurveto
          122 -6 2 -71 -4 -22 -64 -257 rcurveline
          -11 -48 27 -45 73 -23 -127 -34 -16 -65 -12 -47 -45 -180 rcurveline
          -16 -63 -4 -18 -44 -30 -23 -16 -40 -16 -48 -3 -14 -1 -8 0 -3 -13 rrcurveto
          -14 -3 10 0 15 hhcurveto
          111 111 46 80 21 hvcurveto
          59 234 7 31 22 87 150 8 rlinecurve
          0 11 1 4 13 vhcurveto
          endchar
        </CharString>
        <CharString name="bracketleft">
          368 -250 49 902 49 hstem
          252 -216 rmoveto
          15 -11 0 -17 vhcurveto
          -67 hlineto
          226 902 rlineto
          73 hlineto
          17 5 0 7 5 hvcurveto
          2 4 5 19 5 vvcurveto
          71 callsubr
          vhcurveto
          -92 hlineto
          -23 -2 0 -20 -5 hvcurveto
          -238 -951 rlineto
          -1 -4 -2 -7 -4 58 callgsubr
          92 hlineto
          16 6 0 8 4 hvcurveto
          3 4 4 18 4 vvcurveto
          endchar
        </CharString>
        <CharString name="bracketright">
          368 -250 49 902 49 hstem
          389 721 rmoveto
          -7 callsubr
          71 callsubr
          vhcurveto
          -92 hlineto
          -16 -6 0 -8 -4 hvcurveto
          -3 -4 -4 -18 -4 vvcurveto
          -15 11 0 17 vhcurveto
          67 hlineto
          -225 -902 rlineto
          -74 hlineto
          -17 -5 0 -7 -5 hvcurveto
          -2 -4 -5 -19 -5 58 callgsubr
          92 hlineto
          23 2 0 20 5 hvcurveto
          endchar
        </CharString>
        <CharString name="breve">
          116 callsubr
          134 19 callsubr
          endchar
        </CharString>
        <CharString name="breve.cap">
          603 490 43 134 -20 hstem
          625 653 -88 callgsubr
        </CharString>
        <CharString name="breve.ts1">
          720 517 43 134 110 callsubr
          306 29 hintmask 10110000
          746 671 rmoveto
          1 3 0 3 3 vvcurveto
          8 -3 7 -10 -14 -2 -18 -10 -4 vhcurveto
          -76 -34 -102 -31 -82 hhcurveto
          -51 -110 14 82 hvcurveto
          7 vlineto
          1 5 2 5 5 vvcurveto
          hintmask 11010000
          9 -6 7 -8 vhcurveto
          -3 hlineto
          -13 -3 -1 -19 -1 -11 rrcurveto
          -10 vlineto
          -93 100 -41 85 99 127 48 106 29 vhcurveto
          endchar
        </CharString>
        <CharString name="brokenbar">
          339 750 -20 hstem
          280 343 rmoveto
          92 370 rlineto
          13 4 6 24 -24 hhcurveto
          -25 -6 -23 -14 -4 hvcurveto
          -92 -370 rlineto
          -12 -3 10 -6 13 hhcurveto
          12 14 6 12 3 hvcurveto
          -139 -556 rmoveto
          92 370 rlineto
          12 3 -10 6 -13 hhcurveto
          -12 -14 -6 -12 -3 hvcurveto
          -92 -370 rlineto
          23 callsubr
          endchar
        </CharString>
        <CharString name="bullet">
          897 70 302 hstem
          66 callgsubr
          endchar
        </CharString>
        <CharString name="c">
          33 callsubr
          hstem
          130 79 237 86 vstem
          -56 callsubr
          -94 63 -78 111 116 callgsubr
          vhcurveto
          endchar
        </CharString>
        <CharString name="cacute">
          544 -10 28 277 80 38 120 callsubr
          237 86 hintmask 11100110
          -56 callsubr
          -94 63 -78 111 116 callgsubr
          vhcurveto
          hintmask 00011000
          59 566 rmoveto
          -93 callsubr
        </CharString>
        <CharString name="caron">
          603 606 662 -65 callsubr
        </CharString>
        <CharString name="caron.cap">
          603 583 580 -74 callsubr
        </CharString>
        <CharString name="caron.ts1">
          720 556 -21 165 88 callsubr
          735 675 rmoveto
          12 -9 14 -10 -8 -23 -14 -8 -15 vhcurveto
          -153 -78 rlineto
          -2 -4 -4 -3 -4 hhcurveto
          -1 hlineto
          -11 2 -14 14 -11 7 -110 76 rcurveline
          2 -4 -5 4 -5 hhcurveto
          hintmask 11000000
          -3 -1 rlineto
          -8 -2 -13 -13 -10 vvcurveto
          -11 11 -4 7 -6 vhcurveto
          114 -89 rlineto
          -11 14 18 -19 14 hhcurveto
          8 1 8 7 7 3 50 30 50 26 50 29 rrcurveto
          22 13 42 15 16 vvcurveto
          endchar
        </CharString>
        <CharString name="ccaron">
          33 callsubr
          115 callgsubr
          vstemhm
          -56 callsubr
          -94 63 -78 111 116 callgsubr
          vhcurveto
          62 565 -65 callsubr
        </CharString>
        <CharString name="ccedilla">
          33 callsubr
          hstem
          130 79 237 86 vstem
          -56 callsubr
          -73 38 -63 68 -25 vhcurveto
          -5 -16 -9 -36 -4 26 callgsubr
          13 3 13 rrcurveto
          159 1 75 93 13 vvcurveto
          endchar
        </CharString>
        <CharString name="ccircumflex">
          33 callsubr
          115 callgsubr
          vstemhm
          -56 callsubr
          -94 63 -78 111 116 callgsubr
          vhcurveto
          28 437 -76 callsubr
          endchar
        </CharString>
        <CharString name="cdotaccent">
          33 callsubr
          100 115 115 callgsubr
          hintmask 11101100
          -56 callsubr
          -94 63 -78 111 116 callgsubr
          vhcurveto
          hintmask 00010000
          -34 512 -95 callsubr
        </CharString>
        <CharString name="cedilla">
          -3 callgsubr
        </CharString>
        <CharString name="cedilla.dup">
          -3 callgsubr
        </CharString>
        <CharString name="cent">
          544 -10 28 277 80 65 callsubr
          -55 -65 -75 -22 -51 -4 99 393 rcurveline
          20 -2 30 -8 14 -25 rrcurveto
          -29 -8 -10 -24 -17 vvcurveto
          -16 11 -17 25 17 33 11 48 57 -54 24 -51 5 vhcurveto
          7 27 rlineto
          9 3 -6 9 -10 hhcurveto
          -10 -10 -9 -9 -3 hvcurveto
          -6 -27 rlineto
          -135 -9 -127 -132 -137 vvcurveto
          -87 54 -73 95 -11 vhcurveto
          -7 -27 rlineto
          68 callsubr
          10 10 8 10 2 hvcurveto
          7 26 rlineto
          153 4 73 90 13 vvcurveto
          -255 -78 rmoveto
          -42 7 -35 31 71 vvcurveto
          47 22 106 46 58 vhcurveto
          33 42 38 23 36 7 rrcurveto
          endchar
        </CharString>
        <CharString name="cent.oldstyle">
          33 callsubr
          65 callsubr
          -73 -61 -87 -19 -50 hhcurveto
          -16 -16 3 7 -14 hvcurveto
          190 378 14 -6 14 -8 8 -15 rlinecurve
          -29 -8 -10 -24 -17 vvcurveto
          -16 11 -17 25 17 33 11 48 44 -32 24 -37 11 vhcurveto
          15 29 rlineto
          12 5 -5 11 -12 hhcurveto
          -9 -8 -6 -8 -4 hvcurveto
          -16 -31 rlineto
          1 -7 -8 0 -7 hhcurveto
          -140 -137 -137 -142 -64 30 -57 54 -30 hvcurveto
          -22 -43 rlineto
          -11 -5 6 -11 11 hhcurveto
          9 8 6 8 4 hvcurveto
          20 38 rlineto
          -5 18 19 -3 22 hhcurveto
          116 callgsubr
          hvcurveto
          -125 316 rmoveto
          -183 -364 rlineto
          -15 17 -9 26 36 vvcurveto
          47 22 106 46 58 vhcurveto
          51 40 48 23 43 hhcurveto
          endchar
        </CharString>
        <CharString name="centigrade">
          1073 -19 36 433 49 136 49 -16 36 hstemhm
          405 93 hintmask 10011000
          1084 435 rmoveto
          53 212 rlineto
          3 13 7 19 12 vvcurveto
          8 -5 5 -8 -21 -49 -70 -21 -18 vhcurveto
          61 -26 -88 30 -66 hhcurveto
          -229 -232 -212 -233 -152 117 -126 170 149 146 102 143 44 hvcurveto
          2 5 2 6 5 vvcurveto
          2 vlineto
          10 -1 -9 1 -8 hhcurveto
          -4 hlineto
          -20 1 -12 -15 -5 hvcurveto
          -119 -48 -107 -92 -128 hhcurveto
          -111 -97 77 137 181 111 186 176 55 hvcurveto
          9 29 31 6 30 hhcurveto
          112 52 -83 -88 10 hvcurveto
          -14 vlineto
          -19 -3 -15 -18 vvcurveto
          -10 7 -4 10 17 1 7 11 3 vhcurveto
          -668 155 rmoveto
          hintmask 01100000
          60 -48 34 -50 vhcurveto
          -10 hlineto
          -68 -8 -64 -59 -73 vvcurveto
          -58 46 -36 51 vhcurveto
          10 hlineto
          70 7 63 61 72 vvcurveto
          -50 -8 rmoveto
          -42 -5 -42 -41 -44 hhcurveto
          -27 -23 16 36 hvcurveto
          43 6 43 41 44 hhcurveto
          23 26 -14 -31 -3 -1 -5 0 hvcurveto
          endchar
        </CharString>
        <CharString name="circumflex">
          603 572 534 -76 callsubr
          endchar
        </CharString>
        <CharString name="circumflex.cap">
          603 563 499 -63 callsubr
        </CharString>
        <CharString name="circumflex.dup">
          603 572 534 -76 callsubr
          endchar
        </CharString>
        <CharString name="colon">
          368 0 115 201 115 hstem
          336 384 -8 callgsubr
          -79 -316 -8 callgsubr
          endchar
        </CharString>
        <CharString name="colonmonetary">
          838 171 92 vstem
          850 437 rmoveto
          60 241 rlineto
          1 6 1 4 3 vvcurveto
          0 0 12 -14 -8 -2 -3 -7 -7 vhcurveto
          -61 -69 -9 -9 rlineto
          0 -1 1 -8 10 vhcurveto
          -36 45 -51 26 -61 5 5 17 rcurveline
          10 2 -6 8 -10 hhcurveto
          -10 -10 -8 -10 -2 hvcurveto
          -4 -16 rlineto
          -224 -8 -224 -210 -227 vvcurveto
          -163 115 -106 152 -8 vhcurveto
          -4 -17 rlineto
          -10 -3 7 -8 9 hhcurveto
          10 10 8 10 3 hvcurveto
          4 16 86 5 75 39 50 40 rlinecurve
          101 84 14 92 0 vvcurveto
          13 -10 0 -11 -12 -6 0 -12 -3 vhcurveto
          -44 -146 -129 -74 -102 -5 163 651 rcurveline
          115 -3 48 -96 -93 -14 -4 -19 -12 vvcurveto
          -13 12 0 9 16 3 0 20 5 vhcurveto
          -403 -420 rmoveto
          -88 9 -96 56 146 vvcurveto
          52 16 137 93 116 vhcurveto
          55 68 90 54 92 10 rrcurveto
          endchar
        </CharString>
        <CharString name="comma">
          368 -173 -21 194 115 hstem
          139 122 vstem
          261 49 rmoveto
          38 -17 28 -35 -41 -29 -36 -33 -31 21 -15 27 24 9 7 6 8 vhcurveto
          -17 -69 -41 -59 -60 -48 rrcurveto
          -13 -10 -1 -1 -5 vvcurveto
          -7 7 -8 7 20 131 120 123 vhcurveto
          endchar
        </CharString>
        <CharString name="copyleft">
          683 0 48 587 48 hstem
          -50 callsubr
          -125 -44 rmoveto
          120 60 -65 111 -119 hhcurveto
          -36 -38 -13 -27 -34 hvcurveto
          -8 -5 -2 4 -14 36 rlineto
          4 -2 0 1 -4 hhcurveto
          -8 -3 -6 0 0 -1 -4 -1 -3 hvcurveto
          -31 -125 rlineto
          -10 -3 2 0 8 hhcurveto
          5 6 0 7 3 hvcurveto
          3 6 3 10 4 7 rrcurveto
          49 24 52 51 61 hhcurveto
          54 39 -31 -39 12 hvcurveto
          18 -60 -27 -71 -14 -27 rrcurveto
          -83 -41 -74 -27 -49 hhcurveto
          -53 -52 38 78 15 hvcurveto
          7 2 -3 0 -6 hhcurveto
          -6 -5 0 -7 -4 hvcurveto
          0 -16 -48 30 -43 vhcurveto
          -23 17 32 -21 48 hhcurveto
          84 93 56 88 44 hvcurveto
          endchar
        </CharString>
        <CharString name="copyright">
          683 0 48 587 48 hstem
          -50 callsubr
          -99 174 rmoveto
          3 1 2 2 vvcurveto
          0 0 6 -8 -4 -1 -1 -4 -4 vhcurveto
          -31 -36 -5 -4 -5 5 rlineto
          27 -21 -30 13 -37 hhcurveto
          -119 -120 -111 -120 -88 65 -56 84 48 42 21 23 28 hvcurveto
          52 43 7 48 0 vvcurveto
          7 -5 0 -5 -7 -3 0 -6 -1 vhcurveto
          -79 -24 -71 -38 -53 hhcurveto
          -49 -60 27 83 27 8 71 48 60 hvcurveto
          39 32 54 31 53 hhcurveto
          62 26 -51 -49 hvcurveto
          -7 -2 -10 -6 vvcurveto
          -7 6 0 5 8 2 0 10 2 vhcurveto
          endchar
        </CharString>
        <CharString name="copyright.alt">
          681 -125 48 585 48 hstem
          681 215 rmoveto
          209 -132 132 -209 -208 -132 -132 -209 -209 132 -131 208 209 132 131 209 vhcurveto
          -48 hmoveto
          -179 -113 -113 -180 -179 -113 113 179 180 113 113 179 180 113 -113 -180 vhcurveto
          -120 -64 rmoveto
          8 -6 0 -7 -8 -4 0 -7 -2 vhcurveto
          -95 -28 -86 -47 -65 hhcurveto
          -59 -73 33 101 32 10 87 58 73 hvcurveto
          47 39 65 37 65 hhcurveto
          75 32 -61 -60 hvcurveto
          -9 -3 -12 -7 vvcurveto
          -8 8 0 5 10 2 0 12 3 vhcurveto
          38 152 rlineto
          1 4 0 2 2 vvcurveto
          0 0 8 -8 -5 -2 -2 -4 -4 vhcurveto
          -39 -44 -5 -6 rlineto
          0 -1 1 -5 6 vhcurveto
          33 -26 -37 16 -45 hhcurveto
          -143 -146 -135 -145 -108 78 -68 102 58 52 26 27 33 hvcurveto
          64 53 9 58 0 vvcurveto
          endchar
        </CharString>
        <CharString name="currency">
          897 23 48 358 48 hstem
          702 6 rmoveto
          16 13 -6 12 -8 9 -51 68 rcurveline
          41 39 31 49 13 54 14 54 -7 50 -22 39 83 66 rcurveline
          11 9 23 18 -18 13 -19 13 -21 -17 -13 -10 -72 -57 rcurveline
          31 -31 -45 18 -53 hhcurveto
          -54 -54 -18 -32 -47 hvcurveto
          -43 58 -7 10 -2 1 -3 2 rlinecurve
          -12 9 -18 -5 -10 -7 -16 -14 8 -11 6 -8 52 -70 rcurveline
          -40 -39 -31 -49 -13 -54 -14 -54 6 -49 22 -39 -84 -67 rcurveline
          -13 -11 -20 -15 19 -13 18 -13 21 17 12 9 73 58 rcurveline
          -31 31 45 -19 54 hhcurveto
          54 54 18 31 46 hvcurveto
          43 -57 8 -10 0 -1 3 -2 rlinecurve
          13 -10 19 7 8 7 rrcurveto
          -12 244 rmoveto
          -99 -24 -101 -80 -99 hhcurveto
          -99 -60 80 99 25 hvcurveto
          99 24 101 80 99 hhcurveto
          99 60 -80 -99 -25 hvcurveto
          endchar
        </CharString>
        <CharString name="cwm">
          0 endchar
        </CharString>
        <CharString name="cwmascender">
          0 endchar
        </CharString>
        <CharString name="cwmcapital">
          0 endchar
        </CharString>
        <CharString name="d">
          45 callsubr
          hstem
          129 76 vstem
          -73 callsubr
          endchar
        </CharString>
        <CharString name="dagger">
          524 392 77 235 -20 hstem
          553 431 73 callgsubr
          4 14 9 29 25 60 20 46 16 42 6 24 rrcurveto
          9 2 9 37 -39 hhcurveto
          -38 -9 -38 -8 -2 hvcurveto
          -6 -23 -5 -40 -3 -49 -5 -60 -7 -29 -2 -14 36 callsubr
          -6 -17 -4 -13 -19 -41 -32 -68 -2 -7 -13 -53 -27 -109 -35 -167 -21 -141 rrcurveto
          -12 -2 2 -4 13 hhcurveto
          7 9 0 13 5 hvcurveto
          48 133 44 153 34 134 13 53 2 7 2 68 1 41 2 13 4 17 66 callsubr
        </CharString>
        <CharString name="daggerdbl">
          524 -16 77 378 76 189 -20 hstem
          564 477 rmoveto
          21 6 -11 17 -24 hhcurveto
          -23 -28 -6 -6 -23 hvcurveto
          -40 -11 -4 0 -20 -2 7 22 4 12 24 50 15 32 13 32 5 22 96 callgsubr
          -7 -28 -1 -38 -1 -19 -2 -53 -1 -7 -4 -25 -18 2 -6 1 -32 10 rrcurveto
          8 -29 -22 4 -19 hhcurveto
          -24 -19 -17 -21 -6 hvcurveto
          -20 -5 7 -18 32 hhcurveto
          20 24 5 7 25 hvcurveto
          39 10 8 1 18 2 -7 -22 -4 -12 -24 -50 -15 -32 -13 -32 -5 -22 rrcurveto
          -44 -11 33 0 5 hhcurveto
          15 25 6 38 10 hvcurveto
          7 28 1 38 1 19 2 53 1 7 4 25 18 -2 5 -1 33 -10 rrcurveto
          -11 38 16 -1 12 hhcurveto
          29 18 15 23 5 hvcurveto
          -113 -454 73 callgsubr
          8 26 3 6 18 41 15 32 18 38 6 27 96 callgsubr
          -6 -27 -2 -38 -1 -32 -2 -41 -1 -6 -4 -26 36 callsubr
          -9 -26 -2 -6 -19 -41 -15 -32 -17 -38 -7 -27 rrcurveto
          -44 -11 33 0 5 hhcurveto
          15 26 6 38 9 hvcurveto
          7 27 1 38 1 32 3 41 0 6 5 26 66 callsubr
        </CharString>
        <CharString name="dblbracketleft">
          500 -249 49 902 49 hstem
          622 736 rmoveto
          7 -5 6 -7 2 vhcurveto
          -247 hlineto
          -17 -3 -8 -18 -5 hvcurveto
          -227 -909 rlineto
          -4 -16 -7 -18 -17 vvcurveto
          -12 11 -2 8 vhcurveto
          241 hlineto
          19 5 18 16 10 -8 5 -14 hvcurveto
          -74 hlineto
          5 15 3 16 4 16 208 830 rcurveline
          11 2 1 14 14 hhcurveto
          72 hlineto
          22 3 22 12 hvcurveto
          -158 -36 rmoveto
          -211 -842 -17 -56 -22 -2 rlineto
          -57 hlineto
          211 844 17 56 rlineto
          endchar
        </CharString>
        <CharString name="dblbracketright">
          500 -249 49 902 49 hstem
          284 -227 rmoveto
          228 915 rlineto
          5 15 7 22 12 vvcurveto
          9 -10 5 -8 vhcurveto
          -241 hlineto
          -18 -7 -18 -16 -11 10 -5 12 hvcurveto
          5 5 1 4 hhcurveto
          59 hlineto
          -225 -902 rlineto
          -64 hlineto
          -5 -6 1 -6 hhcurveto
          -13 -14 -8 -27 -11 10 -4 9 hvcurveto
          242 hlineto
          15 2 10 12 4 hvcurveto
          -43 27 rmoveto
          -82 hlineto
          211 844 17 56 rlineto
          79 hlineto
          -216 -860 rlineto
          endchar
        </CharString>
        <CharString name="dblgrave.ts1">
          603 523 -21 195 -20 hstem
          392 522 rmoveto
          16 callgsubr
          176 hmoveto
          16 callgsubr
          endchar
        </CharString>
        <CharString name="dblverticalbar">
          483 750 -20 hstem
          141 -213 rmoveto
          5 callgsubr
          144 hmoveto
          5 callgsubr
          endchar
        </CharString>
        <CharString name="dcaron">
          -44 callsubr
          42 -21 146 86 -47 48 hstemhm
          129 76 hintmask 11001100
          -73 callsubr
          291 343 rmoveto
          hintmask 00110000
          -92 callgsubr
        </CharString>
        <CharString name="dcroat">
          -44 callsubr
          86 36 84 48 hstem
          129 76 vstem
          621 16 callsubr
          105 421 rlineto
          58 61 callgsubr
          -58 hlineto
          26 102 -73 callgsubr
          -3 0 -2 -4 -14 vhcurveto
          -12 -49 rlineto
          -139 hlineto
          -10 -10 -9 -9 -3 hvcurveto
          68 callsubr
          139 hlineto
          -35 -142 rlineto
          35 -23 -34 21 -42 hhcurveto
          -122 -127 -141 -146 -107 68 -57 74 64 53 47 21 20 hvcurveto
          -48 13 47 -20 36 hhcurveto
          31 26 15 36 22 hvcurveto
          24 39 14 60 3 vvcurveto
          -165 159 rmoveto
          -42 -166 -8 -31 -22 -24 -23 -22 rlinecurve
          -36 -41 -31 -5 -15 hhcurveto
          -46 -23 43 52 42 25 110 28 54 hvcurveto
          59 32 48 35 40 hhcurveto
          68 13 -87 -10 -3 -1 -4 -17 callsubr
          endchar
        </CharString>
        <CharString name="ddotbelow">
          45 callsubr
          hstemhm
          129 76 vstemhm
          -73 callsubr
          -132 -434 -95 callsubr
        </CharString>
        <CharString name="degree">
          452 390 48 197 48 hstem
          507 537 rmoveto
          81 20 -49 65 -81 hhcurveto
          -81 -82 -65 -81 -21 hvcurveto
          -82 -20 50 -65 81 hhcurveto
          81 82 65 82 20 hvcurveto
          -48 hmoveto
          -55 -13 -56 -44 -54 hhcurveto
          -55 -33 44 55 13 hvcurveto
          54 14 55 44 55 hhcurveto
          55 33 -44 -54 -14 hvcurveto
          endchar
        </CharString>
        <CharString name="diameter">
          897 -81 48 568 48 hstem
          945 578 rmoveto
          13 3 -8 11 -13 hhcurveto
          -7 -6 -3 -4 -6 hvcurveto
          -117 -93 rlineto
          50 -45 -69 31 -83 hhcurveto
          -184 -185 -149 -183 -46 hvcurveto
          -21 -83 11 -76 36 -58 -118 -94 rcurveline
          -5 -4 -4 -6 -2 -7 rrcurveto
          92 callsubr
          7 6 3 4 6 hvcurveto
          118 94 rlineto
          -50 45 69 -31 83 hhcurveto
          183 186 149 183 46 hvcurveto
          20 83 -11 75 -35 59 117 93 rcurveline
          5 4 4 6 2 7 rrcurveto
          -150 -327 rmoveto
          -157 -39 -159 -127 -157 hhcurveto
          -70 -58 25 42 -39 hvcurveto
          501 400 29 -50 9 -63 -17 -70 rlinecurve
          -46 217 rmoveto
          -501 -400 -30 49 -9 64 18 70 rlinecurve
          157 39 159 127 157 hhcurveto
          70 58 -25 -42 39 hvcurveto
          endchar
        </CharString>
        <CharString name="died">
          603 -4 -21 363 51 -45 39 220 -20 hstemhm
          hintmask 01000000
          649 375 rmoveto
          8 -2 0 -11 6 vhcurveto
          -4 hlineto
          hintmask 00110000
          -69 -70 -6 -69 hhcurveto
          14 62 19 63 21 59 rrcurveto
          2 7 4 7 7 vvcurveto
          2 vlineto
          10 -10 3 -8 vhcurveto
          -39 hlineto
          -15 -1 -11 -12 -2 hvcurveto
          -6 -33 -8 -49 -11 -50 -12 -48 rlinecurve
          -6 -2 2 -10 -11 hhcurveto
          -38 hlineto
          hintmask 11000000
          -44 -43 5 -44 hhcurveto
          -17 -5 -22 -14 -7 3 -6 9 -2 hvcurveto
          4 hlineto
          20 20 2 1 20 hvcurveto
          2 37 38 0 37 hhcurveto
          -29 -104 -24 -106 -33 -103 -8 -25 rcurveline
          -1 -5 -2 -5 -5 vvcurveto
          -2 vlineto
          -13 17 0 9 vhcurveto
          25 hlineto
          23 1 15 15 2 hvcurveto
          70 314 rlineto
          hintmask 00100000
          12 2 1 13 13 hhcurveto
          6 hlineto
          hintmask 01000000
          66 65 -6 66 hhcurveto
          18 4 23 14 hvcurveto
          endchar
        </CharString>
        <CharString name="dieresis">
          603 546 104 hstem
          -39 callsubr
          endchar
        </CharString>
        <CharString name="dieresis.cap">
          603 480 104 hstem
          -12 callsubr
          endchar
        </CharString>
        <CharString name="dieresis.dup">
          603 546 104 hstem
          -39 callsubr
          endchar
        </CharString>
        <CharString name="dieresis.ts1">
          603 566 108 hstem
          298 110 95 110 vstem
          408 630 rmoveto
          26 -21 18 -24 vhcurveto
          -3 -2 -1 -3 hhcurveto
          -32 -4 -25 -28 -31 vvcurveto
          -27 21 -17 24 33 32 29 35 vhcurveto
          205 hmoveto
          23 -19 21 -25 -3 -3 0 -1 -3 vhcurveto
          -31 -4 -26 -27 -32 vvcurveto
          -26 20 -18 24 34 32 29 35 vhcurveto
          endchar
        </CharString>
        <CharString name="discount">
          603 22 -21 601 135 13 -20 hstemhm
          301 137 -88 138 hintmask 10101000
          686 726 rmoveto
          13 -10 11 -14 vhcurveto
          -5 hlineto
          -16 -3 -13 -23 -9 -13 -478 -626 rcurveline
          -13 -17 -26 -26 -16 vvcurveto
          -13 10 -12 15 12 8 10 9 7 vhcurveto
          15 20 482 632 rlineto
          13 16 22 20 18 vvcurveto
          -198 -633 rmoveto
          -40 -34 -33 -39 -5 vhcurveto
          -5 hlineto
          -33 -27 22 36 39 34 34 38 5 hvcurveto
          7 hlineto
          32 27 -21 -37 hvcurveto
          -50 587 rmoveto
          hintmask 01010000
          -43 -37 -34 -41 -1 vhcurveto
          -6 hlineto
          -35 -18 30 28 41 36 35 42 1 hvcurveto
          6 hlineto
          34 19 -29 -28 hvcurveto
          endchar
        </CharString>
        <CharString name="divide">
          897 16 115 95 49 95 115 hstem
          cntrmask 11100000
          862 250 -1 callgsubr
          -249 188 -8 callgsubr
          -89 -354 -8 callgsubr
          endchar
        </CharString>
        <CharString name="divorced">
          603 -83 -21 140 51 328 51 140 110 callsubr
          -109 51 289 45 174 45 289 51 hintmask 0110111110000000
          835 305 rmoveto
          78 -43 83 -103 vhcurveto
          -11 hlineto
          -130 -15 -98 -134 -124 vvcurveto
          -74 42 -83 99 vhcurveto
          11 hlineto
          128 12 105 131 126 vvcurveto
          -559 1 rmoveto
          75 -39 85 -104 vhcurveto
          -11 hlineto
          -127 -14 -104 -130 -125 vvcurveto
          -75 41 -86 103 vhcurveto
          11 hlineto
          127 12 103 134 124 vvcurveto
          209 285 rmoveto
          13 -14 3 -10 vhcurveto
          hintmask 1111011110000000
          -6 -6 -1 -6 hhcurveto
          -11 hlineto
          -4 -3 0 -1 -3 hvcurveto
          -8 -2 -2 -7 -2 -8 -5 -26 rcurveline
          -31 -172 -48 -168 -44 -168 -13 -43 -11 -44 -14 -43 rrcurveto
          -1 -4 -2 -4 -5 vvcurveto
          -13 13 -2 10 vhcurveto
          26 hlineto
          30 -4 21 21 5 hvcurveto
          42 207 52 203 58 203 rrcurveto
          4 12 8 17 11 vvcurveto
          -255 -299 rmoveto
          -97 -9 -71 -108 -110 hhcurveto
          -53 -45 35 73 hvcurveto
          12 vlineto
          99 9 69 109 111 hhcurveto
          48 52 -29 -77 -6 0 -5 -1 -6 hvcurveto
          553 hmoveto
          -95 -10 -64 -109 -114 hhcurveto
          -51 -49 30 76 101 76 120 115 44 54 -25 -77 -7 0 -7 -1 -7 hvcurveto
          endchar
        </CharString>
        <CharString name="dlinebelow">
          603 -160 37 113 -42 callgsubr
          206 48 hstemhm
          129 76 hintmask 01111000
          -73 callsubr
          hintmask 10000000
          2 -439 -81 callgsubr
        </CharString>
        <CharString name="dollar">
          531 -35 -21 48 32 113 94 246 94 179 -20 hstem
          525 228 rmoveto
          2 30 -1 48 -37 44 -31 36 -38 9 -37 9 67 267 rcurveline
          53 -3 27 -18 7 -4 rrcurveto
          37 -25 2 -38 -13 vvcurveto
          1 -2 -2 0 -7 hhcurveto
          -30 -25 -24 -29 -3 hvcurveto
          -35 -3 30 -6 12 hhcurveto
          55 5 62 17 1 hvcurveto
          8 97 -68 46 -89 4 11 47 rcurveline
          -33 hlineto
          -7 -30 -4 -15 -1 -1 -12 -2 rlinecurve
          -136 -19 -86 -106 -8 -93 -3 -38 10 -41 30 -33 31 -34 26 -7 52 -13 -73 -295 rcurveline
          -61 3 -66 28 1 84 rrcurveto
          -1 3 2 0 8 hhcurveto
          31 24 24 29 3 hvcurveto
          32 2 -26 9 -15 hhcurveto
          -56 -5 -65 -19 -2 hvcurveto
          -7 -83 47 -67 108 -6 -11 -47 rcurveline
          33 hlineto
          11 47 124 8 112 110 10 119 rlinecurve
          -108 442 rmoveto
          -66 -259 -36 9 -76 20 6 82 rlinecurve
          6 67 69 70 97 11 rrcurveto
          46 -480 rmoveto
          -6 -74 -75 -81 -94 -11 72 286 rcurveline
          21 -5 90 -19 -8 -96 rrcurveto
          endchar
        </CharString>
        <CharString name="dollar.oldstyle">
          720 -35 -21 22 -21 46 36 642 35 47 110 callsubr
          136 43 -43 91 -7 63 330 62 -7 91 -43 43 hintmask 0000000000010000
          675 230 rmoveto
          67 -48 59 -67 22 vhcurveto
          -8 3 -8 4 -9 1 69 277 rcurveline
          51 -7 61 -27 -63 vvcurveto
          hintmask 0000010000100000
          -26 -1 -22 -21 -28 vvcurveto
          -18 13 -16 23 vhcurveto
          46 8 9 34 42 vvcurveto
          88 -77 35 -68 10 vhcurveto
          6 27 rlineto
          1 4 1 3 4 vvcurveto
          4 vlineto
          7 -2 -8 4 -7 hhcurveto
          -20 -5 -32 -17 -2 hvcurveto
          -36 2 -50 -2 rlineto
          2 11 5 11 11 vvcurveto
          2 vlineto
          hintmask 0000101010000000
          7 -6 4 -6 2 vhcurveto
          -9 hlineto
          -15 -6 -34 -19 -5 hvcurveto
          -18 -4 -22 -7 -17 -6 rrcurveto
          -86 -34 -89 -69 -95 vvcurveto
          -80 73 -44 70 -22 vhcurveto
          -76 -303 rlineto
          -46 -57 49 47 -5 hvcurveto
          10 vlineto
          hintmask 1010000100000000
          4 11 44 -1 43 vvcurveto
          21 -14 13 -27 -42 -8 -53 -30 vhcurveto
          -18 vlineto
          10 -79 62 -38 70 -11 rrcurveto
          -3 -11 -6 -16 -10 vvcurveto
          -11 9 -6 9 18 4 30 18 5 vhcurveto
          28 -1 rlineto
          19 19 1 1 19 hvcurveto
          -4 -15 -2 -7 -11 vvcurveto
          hintmask 0111000011000000
          -7 2 -6 9 -2 vhcurveto
          9 hlineto
          17 1 26 28 6 hvcurveto
          18 4 13 4 12 4 rrcurveto
          91 33 104 76 110 vvcurveto
          -196 78 rmoveto
          -71 -278 rlineto
          -3 -18 -27 0 -10 hhcurveto
          -10 -10 0 2 -10 hvcurveto
          75 299 rlineto
          215 -131 rmoveto
          -83 -100 -62 -64 -13 vhcurveto
          64 260 rlineto
          44 -13 56 -32 -57 vvcurveto
          -112 198 rmoveto
          -81 20 62 251 36 3 rlineto
          51 hlineto
          -184 -245 rmoveto
          -40 16 -62 16 63 vvcurveto
          83 99 34 61 23 vhcurveto
          endchar
        </CharString>
        <CharString name="dong">
          603 -36 36 hstem
          599 171 81 callgsubr
          -17 -1 -2 -24 -6 vhcurveto
          -49 -13 -17 -56 -35 hhcurveto
          -26 -4 28 16 17 5 20 1 2 hvcurveto
          100 400 rlineto
          54 hlineto
          10 9 8 9 3 hvcurveto
          9 2 -6 9 -9 hhcurveto
          -55 hlineto
          25 96 rlineto
          1 4 1 7 4 vvcurveto
          14 -15 -1 -10 -1 vhcurveto
          -103 -9 rlineto
          -12 -12 -1 -20 -14 12 0 12 46 0 -6 -9 -3 0 -2 -4 -13 hvcurveto
          -11 -46 rlineto
          -133 hlineto
          -9 -10 -9 -9 -2 hvcurveto
          -9 -2 5 -8 10 hhcurveto
          132 hlineto
          -33 -135 rlineto
          34 -22 -32 20 -40 hhcurveto
          -116 -121 -134 -139 -102 65 -54 70 61 50 45 20 19 hvcurveto
          -46 13 44 -19 34 hhcurveto
          30 25 14 35 21 hvcurveto
          22 37 14 57 3 vvcurveto
          -47 -189 rmoveto
          10 2 -6 8 -10 hhcurveto
          -442 59 callsubr
          442 hlineto
          10 10 8 10 3 hvcurveto
          -110 340 rmoveto
          -40 -158 -8 -30 -21 -22 -21 -21 rlinecurve
          -34 -39 -30 -5 -14 hhcurveto
          -44 -22 41 49 40 24 104 27 52 hvcurveto
          56 30 46 33 38 hhcurveto
          64 13 -83 -9 -3 -1 -4 -2 -6 hvcurveto
          endchar
        </CharString>
        <CharString name="dotaccent">
          368 541 115 hstem
          392 609 -95 callsubr
        </CharString>
        <CharString name="dotaccent.alt">
          368 382 567 -95 callsubr
        </CharString>
        <CharString name="dotaccent.cap">
          368 480 115 hstem
          377 548 -95 callsubr
        </CharString>
        <CharString name="dotlessi">
          34 callgsubr
          hstem
          37 callgsubr
          vstem
          386 143 -101 callsubr
          endchar
        </CharString>
        <CharString name="dotlessj">
          51 callgsubr
          hstem
          -27 86 232 71 vstem
          -69 callgsubr
          endchar
        </CharString>
        <CharString name="e">
          -23 callsubr
          hstem
          9 callgsubr
          vstem
          -102 callsubr
          endchar
        </CharString>
        <CharString name="eacute">
          -23 callsubr
          80 -21 196 -20 12 callgsubr
          hintmask 11100110
          -102 callsubr
          hintmask 00011000
          95 309 rmoveto
          -93 callsubr
        </CharString>
        <CharString name="ebreve">
          -23 callsubr
          69 43 134 -20 12 callgsubr
          hintmask 11100110
          -102 callsubr
          hintmask 00011000
          122 319 -88 callgsubr
        </CharString>
        <CharString name="ecaron">
          -23 callsubr
          12 callgsubr
          vstemhm
          -102 callsubr
          98 308 -65 callsubr
        </CharString>
        <CharString name="ecircumflex">
          -23 callsubr
          12 callgsubr
          vstemhm
          -102 callsubr
          64 180 -76 callsubr
          endchar
        </CharString>
        <CharString name="ecircumflexacute">
          -23 callsubr
          375 -20 12 callgsubr
          hintmask 11101100
          -102 callsubr
          hintmask 00010000
          64 180 -102 callgsubr
          41 243 -104 callgsubr
        </CharString>
        <CharString name="ecircumflexdotbelow">
          -23 callsubr
          12 callgsubr
          vstemhm
          -102 callsubr
          64 180 -76 callsubr
          -248 -666 -95 callsubr
        </CharString>
        <CharString name="ecircumflexgrave">
          -23 callsubr
          12 callgsubr
          vstemhm
          -102 callsubr
          64 180 -78 callgsubr
        </CharString>
        <CharString name="ecircumflexhookabove">
          -23 callsubr
          396 -20 12 callgsubr
          hintmask 11101100
          -102 callsubr
          hintmask 00010000
          64 180 -102 callgsubr
          129 235 -107 callgsubr
        </CharString>
        <CharString name="ecircumflextilde">
          -23 callsubr
          233 42 25 42 12 callgsubr
          hintmask 11100110
          -102 callsubr
          hintmask 00011000
          64 180 -102 callgsubr
          97 235 rmoveto
          -106 callgsubr
        </CharString>
        <CharString name="edblgrave">
          -23 callsubr
          81 -21 194 -20 12 callgsubr
          hintmask 11100110
          -102 callsubr
          hintmask 00011000
          61 167 -89 callsubr
        </CharString>
        <CharString name="edieresis">
          -23 callsubr
          105 104 12 callgsubr
          hintmask 11101100
          -102 callsubr
          hintmask 00010100
          -99 254 -55 callsubr
        </CharString>
        <CharString name="edotaccent">
          -23 callsubr
          100 115 12 callgsubr
          hintmask 11101100
          -102 callsubr
          hintmask 00010000
          1 255 -95 callsubr
        </CharString>
        <CharString name="edotbelow">
          -23 callsubr
          12 callgsubr
          vstemhm
          -102 callsubr
          -184 -486 -95 callsubr
        </CharString>
        <CharString name="egrave">
          -23 callsubr
          80 -21 196 -20 12 callgsubr
          hintmask 11100110
          -102 callsubr
          hintmask 00011000
          -8 170 rmoveto
          -72 callsubr
        </CharString>
        <CharString name="ehookabove">
          -23 callsubr
          77 -21 203 -20 12 callgsubr
          hintmask 11100110
          -102 callsubr
          hintmask 00011010
          55 278 -107 callgsubr
        </CharString>
        <CharString name="eight">
          83 callgsubr
          vstem
          566 -57 callsubr
        </CharString>
        <CharString name="eight.oldstyle">
          84 callgsubr
          3 54 vstem
          564 -57 callsubr
        </CharString>
        <CharString name="eight.prop">
          84 callgsubr
          vstem
          564 -57 callsubr
        </CharString>
        <CharString name="eight.taboldstyle">
          83 callgsubr
          3 54 vstem
          566 -57 callsubr
        </CharString>
        <CharString name="ellipsis">
          790 0 115 hstem
          257 68 -8 callgsubr
          211 hmoveto
          -22 callgsubr
          211 hmoveto
          -22 callgsubr
          endchar
        </CharString>
        <CharString name="emacron">
          -23 callsubr
          139 37 12 callgsubr
          hintmask 11101100
          -102 callsubr
          hintmask 00010000
          135 249 -81 callgsubr
        </CharString>
        <CharString name="emdash">
          1206 252 28 hstem
          141 1055 vstem
          1196 266 rmoveto
          71 callsubr
          vhcurveto
          -999 122 callsubr
          999 hlineto
          15 13 0 14 hvcurveto
          endchar
        </CharString>
        <CharString name="emdash.alt">
          854 253 28 -8 -21 hstemhm
          hintmask 10000000
          844 267 rmoveto
          11 -9 3 -9 vhcurveto
          -666 hlineto
          -3 -3 0 -1 -3 hvcurveto
          -7 -2 -3 -5 -5 vvcurveto
          hintmask 01000000
          -11 10 -5 14 vhcurveto
          hintmask 10000000
          8 9 1 8 hhcurveto
          634 hlineto
          9 11 3 11 hvcurveto
          endchar
        </CharString>
        <CharString name="endash">
          603 252 28 hstem
          104 526 vstem
          630 266 rmoveto
          71 callsubr
          vhcurveto
          -470 122 callsubr
          470 hlineto
          15 13 0 14 hvcurveto
          endchar
        </CharString>
        <CharString name="eng">
          585 -214 74 553 28 hstem
          520 70 vstem
          590 330 rmoveto
          -91 callgsubr
          -92 -53 -95 -24 -95 hvcurveto
          -21 -84 -25 -100 -41 -37 rrcurveto
          11 -4 -10 7 -13 hhcurveto
          -20 -21 -17 -20 -5 hvcurveto
          -21 -5 12 -16 20 hhcurveto
          114 59 145 132 33 hvcurveto
          22 90 52 90 87 vvcurveto
          endchar
        </CharString>
        <CharString name="eogonek">
          544 -211 47 154 -20 callgsubr
          hstem
          9 callgsubr
          vstem
          -22 callsubr
          endchar
        </CharString>
        <CharString name="eogonekacute">
          544 -211 47 154 -20 callgsubr
          80 -21 196 -20 12 callgsubr
          hintmask 11110011
          -22 callsubr
          hintmask 00001100
          95 309 rmoveto
          -93 callsubr
        </CharString>
        <CharString name="equal">
          897 116 49 171 49 hstem
          131 758 vstem
          889 360 -1 callgsubr
          -55 -220 -1 callgsubr
          endchar
        </CharString>
        <CharString name="ereversed">
          -23 callsubr
          hstem
          552 175 rmoveto
          176 88 -114 90 -112 hhcurveto
          -70 -68 -34 -54 -27 hvcurveto
          -125 -62 197 0 43 hhcurveto
          62 hlineto
          -8 -30 -10 -31 -15 -31 rrcurveto
          -63 -32 -55 -55 -65 hhcurveto
          -50 -78 19 73 -24 hvcurveto
          8 -3 -2 3 -5 hhcurveto
          -9 -22 -16 -8 -4 hvcurveto
          -13 -6 30 -94 159 hhcurveto
          108 102 80 105 52 hvcurveto
          -57 81 rmoveto
          -47 hlineto
          -39 -160 0 98 49 hvcurveto
          36 18 42 23 42 hhcurveto
          12 115 -2 -155 -32 hvcurveto
          endchar
        </CharString>
        <CharString name="estimated">
          784 -9 32 319 26 303 28 hstem
          141 93 504 83 vstem
          810 375 rmoveto
          6 34 5 35 34 vvcurveto
          55 -17 58 -38 41 vhcurveto
          53 -51 -75 14 -70 hhcurveto
          -13 hlineto
          -165 -16 -145 -110 -68 -149 rrcurveto
          -23 -50 -15 -56 -56 vvcurveto
          -160 124 -111 157 106 123 15 89 79 vhcurveto
          5 7 11 10 10 vvcurveto
          11 -12 2 -9 -18 -6 -12 -12 -10 vhcurveto
          -70 -70 -90 -18 -91 hhcurveto
          -48 -47 9 31 -38 hvcurveto
          -48 37 -25 59 60 vvcurveto
          39 6 34 6 40 vhcurveto
          5 2 1 5 8 hhcurveto
          527 hlineto
          23 0 18 15 3 hvcurveto
          -97 -7 rmoveto
          -457 hlineto
          145 38 122 158 163 hhcurveto
          42 38 -13 -29 33 hvcurveto
          35 -35 11 -50 -50 vvcurveto
          -51 -10 -75 -15 vhcurveto
          endchar
        </CharString>
        <CharString name="eth">
          603 -10 32 395 28 hstem
          114 80 335 86 vstem
          555 139 rmoveto
          34 54 26 121 66 vvcurveto
          97 -36 83 -63 56 vhcurveto
          82 42 rlineto
          10 5 4 8 7 vvcurveto
          9 -5 7 -9 -4 -3 -1 -2 -4 vhcurveto
          -101 -51 -46 31 -56 19 -64 4 rlinecurve
          -8 -7 -8 -9 -5 3 -5 9 -2 hvcurveto
          42 -11 38 -18 30 -26 -89 -45 rcurveline
          -10 -5 -4 -8 -7 vvcurveto
          -9 5 -7 9 4 3 1 2 4 vhcurveto
          105 53 rlineto
          48 -53 27 -73 -82 vvcurveto
          33 -20 -36 35 -63 hhcurveto
          -153 -143 -149 -135 -97 73 -74 111 92 105 53 96 60 hvcurveto
          -42 155 rmoveto
          -38 -17 -98 -44 -60 vhcurveto
          -52 -38 -58 -24 -50 hhcurveto
          -51 -61 26 84 31 20 125 48 59 hvcurveto
          60 50 61 10 31 hhcurveto
          61 48 -40 -83 hvcurveto
          endchar
        </CharString>
        <CharString name="etilde">
          -23 callsubr
          103 42 25 42 12 callgsubr
          hintmask 11100110
          -102 callsubr
          hintmask 00011000
          128 285 rmoveto
          -106 callgsubr
        </CharString>
        <CharString name="eturned">
          -10 callgsubr
        </CharString>
        <CharString name="exclam">
          368 0 115 100 -21 520 -20 hstem
          139 118 vstem
          402 645 rmoveto
          5 15 0 3 6 vvcurveto
          30 -25 15 -23 -19 -43 -12 -50 -8 vhcurveto
          -75 -445 rlineto
          -13 9 0 12 15 3 0 17 6 vhcurveto
          -2 -143 rmoveto
          24 -18 23 -30 102 callgsubr
          vhcurveto
          endchar
        </CharString>
        <CharString name="exclamdown">
          368 -193 -21 520 -20 99 115 hstem
          235 118 vstem
          353 453 -97 callsubr
          -150 -605 rmoveto
          75 445 rlineto
          13 -9 0 -12 -15 -3 0 -17 -6 vhcurveto
          -143 -434 rlineto
          -5 -15 0 -3 -6 vvcurveto
          -30 25 -15 23 19 43 12 50 8 vhcurveto
          endchar
        </CharString>
        <CharString name="f">
          -28 callgsubr
        </CharString>
        <CharString name="f_f">
          737 -204 28 18 76 477 36 245 28 hstem
          -17 86 192 86 166 86 186 86 vstem
          871 637 rmoveto
          45 -50 22 -55 -105 -29 -99 -51 -10 vhcurveto
          -24 -123 rlineto
          -282 hlineto
          16 86 6 29 14 74 18 20 rlinecurve
          23 22 30 13 46 56 callgsubr
          -39 -79 -2 -64 -47 vhcurveto
          -29 -41 -8 -43 -22 -123 rrcurveto
          -77 hlineto
          -17 -13 11 callsubr
          72 hlineto
          -64 -348 -12 -67 -1 -3 -17 -65 rlinecurve
          -23 -6 -17 -65 -39 hhcurveto
          -5 -22 0 15 -16 -6 callsubr
          -46 51 -21 44 117 39 185 100 18 vhcurveto
          58 314 rlineto
          282 hlineto
          -61 -331 -11 -58 0 -2 -16 -57 rlinecurve
          -15 -53 -8 -10 -21 -21 rrcurveto
          -22 -22 -25 -17 -32 hhcurveto
          -11 -29 1 14 -23 hvcurveto
          6 3 23 15 27 6 callsubr
          -52 64 -15 54 71 79 45 82 34 vhcurveto
          22 53 14 55 10 56 57 308 rcurveline
          94 hlineto
          17 13 89 callgsubr
          -90 hlineto
          25 135 rlineto
          44 8 12 66 49 hhcurveto
          15 22 -5 -9 12 hvcurveto
          -18 -9 -12 -17 -20 53 callsubr
          vhcurveto
          endchar
        </CharString>
        <CharString name="f_f_i">
          1061 -204 28 17 77 72 28 377 36 141 92 12 28 hstem
          -17 86 192 86 195 86 235 70 48 87 vstem
          1079 16 callsubr
          75 300 rlineto
          2 6 0 4 3 vvcurveto
          12 -11 0 -15 vhcurveto
          -306 hlineto
          22 114 rlineto
          107 25 37 24 117 hhcurveto
          37 63 0 -23 31 hvcurveto
          -26 -9 -9 -25 -13 vvcurveto
          -20 14 -14 22 25 26 21 38 73 -110 0 -72 -74 -73 -1 -60 -56 vhcurveto
          -42 -45 -9 -49 -21 -118 rrcurveto
          -295 hlineto
          7 37 2 14 8 36 rrcurveto
          101 19 11 57 120 hhcurveto
          9 52 0 -15 27 53 callgsubr
          27 24 22 34 64 -96 2 -50 -86 -105 -11 -164 -30 vhcurveto
          -18 -98 rlineto
          -76 hlineto
          -18 -13 89 callsubr
          71 hlineto
          -64 -349 -12 -65 -1 -7 -17 -63 rlinecurve
          -25 -7 -17 -62 -38 hhcurveto
          -14 -18 5 9 -11 hvcurveto
          19 8 13 18 20 6 callsubr
          -46 52 -21 43 102 38 142 40 10 vhcurveto
          16 56 0 2 8 44 58 315 rcurveline
          294 hlineto
          -61 -330 -8 -45 -10 -44 -14 -43 rlinecurve
          -10 -31 -6 -18 -30 -27 rrcurveto
          -29 -34 -28 -4 -17 hhcurveto
          -7 -37 1 14 -24 hvcurveto
          6 3 23 15 27 6 callsubr
          -65 98 -2 26 91 60 64 20 15 vhcurveto
          42 58 26 140 2 10 56 307 rcurveline
          260 20 callsubr
          endchar
        </CharString>
        <CharString name="f_f_l">
          1075 -204 28 17 77 72 28 377 36 173 99 callgsubr
          192 86 166 86 278 70 hintmask 0010010000100000
          1093 15 callsubr
          hintmask 1111101111100000
          51 -2 -52 13 -99 hhcurveto
          -71 -126 0 -172 -32 hvcurveto
          -19 -101 rlineto
          -294 hlineto
          23 129 6 22 8 22 rrcurveto
          22 7 17 50 91 56 callgsubr
          -103 -77 -33 -140 -26 vhcurveto
          -18 -100 rlineto
          -77 -34 callgsubr
          -14 12 0 16 hvcurveto
          72 hlineto
          -67 -363 rlineto
          -193 -36 -27 -15 -26 hhcurveto
          -5 -22 0 15 -16 -6 callsubr
          -46 51 -21 44 101 38 141 38 10 vhcurveto
          16 55 0 2 9 50 57 313 rcurveline
          295 hlineto
          -61 -327 -1 -5 -23 -127 -24 -44 rlinecurve
          -6 -4 -42 -62 -63 hhcurveto
          -7 -37 1 14 -24 hvcurveto
          6 3 23 15 27 6 callsubr
          -65 98 -2 26 83 58 53 30 24 vhcurveto
          43 56 27 149 0 vvcurveto
          57 311 rlineto
          274 20 callsubr
          -133 288 rmoveto
          -276 hlineto
          202 35 8 43 132 hhcurveto
          14 53 0 -15 28 53 callgsubr
          20 17 13 9 5 vhcurveto
          1 hlineto
          endchar
        </CharString>
        <CharString name="f_i">
          678 -204 28 18 76 72 28 377 36 141 82 22 28 hstem
          -17 86 411 70 48 87 vstem
          696 16 callsubr
          75 300 rlineto
          2 6 0 4 3 vvcurveto
          12 -11 0 -15 vhcurveto
          -291 hlineto
          201 36 8 44 149 hhcurveto
          28 66 0 -23 29 hvcurveto
          -18 -7 -16 -20 -20 vvcurveto
          -20 14 -14 22 27 24 24 34 73 -109 1 -68 -50 -82 0 -47 -49 vhcurveto
          -53 -52 -7 -39 -24 -135 rrcurveto
          -77 -34 callgsubr
          -14 12 0 16 hvcurveto
          72 hlineto
          -67 -363 rlineto
          -208 -38 -31 0 -20 hhcurveto
          -5 -22 0 15 -16 -6 callsubr
          -46 51 -21 44 101 39 142 38 10 vhcurveto
          15 55 0 2 9 49 57 313 rcurveline
          245 20 callsubr
          endchar
        </CharString>
        <CharString name="f_k">
          933 -204 28 166 28 377 36 -18 28 163 99 callgsubr
          666 74 68 86 hintmask 0101010011000000
          957 -46 callsubr
          -17 -5 vhcurveto
          -49 -12 -23 -69 -45 hhcurveto
          -21 -13 13 37 4 0 17 6 24 hvcurveto
          3 15 2 12 6 vvcurveto
          76 -88 22 -62 8 vhcurveto
          3 2 30 19 52 52 rrcurveto
          45 46 47 43 50 hhcurveto
          17 8 -8 -6 3 hvcurveto
          -21 -6 -17 -18 -24 vvcurveto
          -28 22 -6 13 26 25 21 36 35 -26 32 -48 -49 -46 -30 -58 -58 vhcurveto
          -58 -57 -26 -19 -28 -12 100 400 rcurveline
          4 17 rlineto
          12 3 -13 0 -16 hhcurveto
          -20 hlineto
          -23 -1 -1 -18 -5 hvcurveto
          -3 -13 -4 -13 -2 -9 rrcurveto
          -1 hlineto
          hintmask 1110101110000000
          -7 callgsubr
          -89 -354 rlineto
          -4 -14 0 -2 -5 vvcurveto
          -19 14 -11 18 33 7 29 19 5 vhcurveto
          47 188 rlineto
          53 -5 68 -20 -57 vvcurveto
          -6 0 -4 -3 -15 vhcurveto
          -4 -15 0 -3 -10 vvcurveto
          -54 39 -47 62 96 32 150 3 vhcurveto
          -365 39 callgsubr
          20 17 13 9 5 vhcurveto
          1 hlineto
          endchar
        </CharString>
        <CharString name="f_l">
          707 -204 28 18 76 72 28 377 36 151 80 -58 99 callgsubr
          440 70 hintmask 0010001001000000
          725 15 callsubr
          hintmask 1111100111000000
          -7 callgsubr
          -69 -277 rlineto
          -5 -20 0 -7 -7 vvcurveto
          -66 55 -28 44 31 26 15 36 22 vhcurveto
          24 39 14 60 3 vvcurveto
          -133 39 callgsubr
          vhcurveto
          hintmask 0001010000000000
          20 17 13 9 5 hvcurveto
          1 hlineto
          endchar
        </CharString>
        <CharString name="five">
          603 -20 41 callgsubr
          126 105 callgsubr
          568 255 -68 callgsubr
        </CharString>
        <CharString name="five.oldstyle">
          578 -214 41 callgsubr
          66 105 callgsubr
          508 61 -68 callgsubr
        </CharString>
        <CharString name="five.prop">
          578 -20 41 callgsubr
          114 105 callgsubr
          556 255 -68 callgsubr
        </CharString>
        <CharString name="five.taboldstyle">
          603 -214 41 callgsubr
          78 105 callgsubr
          520 61 -68 callgsubr
        </CharString>
        <CharString name="florin">
          -28 callgsubr
        </CharString>
        <CharString name="four">
          603 104 callsubr
          552 -33 callgsubr
        </CharString>
</ttFont>
